ply
format ascii 1.0
comment Created by Blender 3.5.1 - www.blender.org
element vertex 501
property float x
property float y
property float z
property float nx
property float ny
property float nz
element face 998
property list uchar uint vertex_indices
end_header
0.000000 -10.000000 -10.000000 0.000000 -0.524212 -0.851588
0.000000 10.000000 0.000000 0.000000 1.000000 0.000000
0.125660 -10.000000 -9.999210 0.010700 -0.524221 -0.851515
0.251301 -10.000000 -9.996842 0.021403 -0.524212 -0.851319
0.376902 -10.000000 -9.992894 0.032097 -0.524221 -0.850977
0.502443 -10.000000 -9.987370 0.042785 -0.524214 -0.850511
0.627905 -10.000000 -9.980268 0.053472 -0.524215 -0.849905
0.753268 -10.000000 -9.971589 0.064149 -0.524215 -0.849166
0.878512 -10.000000 -9.961336 0.074812 -0.524216 -0.848293
1.003617 -10.000000 -9.949511 0.085466 -0.524214 -0.847287
1.128564 -10.000000 -9.936113 0.096107 -0.524216 -0.846145
1.253332 -10.000000 -9.921147 0.106732 -0.524214 -0.844872
1.377903 -10.000000 -9.904614 0.117340 -0.524225 -0.843457
1.502256 -10.000000 -9.886518 0.127930 -0.524214 -0.841923
1.626372 -10.000000 -9.866859 0.138501 -0.524214 -0.840248
1.750231 -10.000000 -9.845643 0.149048 -0.524217 -0.838440
1.873813 -10.000000 -9.822872 0.159570 -0.524211 -0.836504
1.997100 -10.000000 -9.798551 0.170068 -0.524215 -0.834431
2.120071 -10.000000 -9.772681 0.180542 -0.524209 -0.832232
2.242708 -10.000000 -9.745269 0.190988 -0.524214 -0.829894
2.364990 -10.000000 -9.716317 0.201398 -0.524215 -0.827428
2.486899 -10.000000 -9.685832 0.211781 -0.524212 -0.824833
2.608415 -10.000000 -9.653816 0.222131 -0.524214 -0.822105
2.729520 -10.000000 -9.620276 0.232443 -0.524215 -0.819249
2.850193 -10.000000 -9.585217 0.242716 -0.524223 -0.816259
2.970416 -10.000000 -9.548646 0.252953 -0.524213 -0.813151
3.090170 -10.000000 -9.510566 0.263153 -0.524215 -0.809907
3.209436 -10.000000 -9.470984 0.273315 -0.524215 -0.806535
3.328196 -10.000000 -9.429905 0.283431 -0.524196 -0.803048
3.446430 -10.000000 -9.387339 0.293492 -0.524216 -0.799412
3.564119 -10.000000 -9.343289 0.303517 -0.524213 -0.795662
3.681245 -10.000000 -9.297765 0.313489 -0.524216 -0.791784
3.797791 -10.000000 -9.250772 0.323417 -0.524208 -0.787786
3.913737 -10.000000 -9.202318 0.333289 -0.524216 -0.783656
4.029064 -10.000000 -9.152411 0.343108 -0.524217 -0.779405
4.143756 -10.000000 -9.101059 0.352876 -0.524216 -0.775033
4.257793 -10.000000 -9.048270 0.362584 -0.524220 -0.770536
4.371158 -10.000000 -8.994053 0.372240 -0.524214 -0.765922
4.483832 -10.000000 -8.938415 0.381840 -0.524210 -0.761185
4.595798 -10.000000 -8.881365 0.391373 -0.524216 -0.756324
4.707039 -10.000000 -8.822912 0.400848 -0.524208 -0.751350
4.817537 -10.000000 -8.763066 0.410256 -0.524216 -0.746249
4.927274 -10.000000 -8.701838 0.419596 -0.524219 -0.741036
5.036232 -10.000000 -8.639235 0.428876 -0.524215 -0.735706
5.144395 -10.000000 -8.575267 0.438090 -0.524216 -0.730257
5.251747 -10.000000 -8.509945 0.447231 -0.524216 -0.724694
5.358269 -10.000000 -8.443279 0.456304 -0.524212 -0.719019
5.463943 -10.000000 -8.375280 0.465303 -0.524217 -0.713225
5.568757 -10.000000 -8.305959 0.474230 -0.524214 -0.707323
5.672689 -10.000000 -8.235326 0.483077 -0.524215 -0.701309
5.775727 -10.000000 -8.163393 0.491851 -0.524216 -0.695184
5.877852 -10.000000 -8.090170 0.500549 -0.524215 -0.688948
5.979051 -10.000000 -8.015670 0.509165 -0.524222 -0.682600
6.079304 -10.000000 -7.939904 0.517705 -0.524216 -0.676150
6.178596 -10.000000 -7.862885 0.526162 -0.524216 -0.669590
6.276914 -10.000000 -7.784623 0.534533 -0.524215 -0.662928
6.374240 -10.000000 -7.705132 0.542819 -0.524220 -0.656156
6.470560 -10.000000 -7.624425 0.551024 -0.524214 -0.649286
6.565857 -10.000000 -7.542514 0.559135 -0.524223 -0.642307
6.660119 -10.000000 -7.459412 0.567169 -0.524214 -0.635232
6.753328 -10.000000 -7.375131 0.575101 -0.524221 -0.628053
6.845471 -10.000000 -7.289686 0.582950 -0.524214 -0.620781
6.936533 -10.000000 -7.203090 0.590705 -0.524216 -0.613405
7.026500 -10.000000 -7.115357 0.598366 -0.524215 -0.605935
7.115357 -10.000000 -7.026500 0.605938 -0.524208 -0.598369
7.203090 -10.000000 -6.936533 0.613405 -0.524216 -0.590705
7.289686 -10.000000 -6.845471 0.620780 -0.524217 -0.582948
7.375131 -10.000000 -6.753328 0.628056 -0.524215 -0.575104
7.459412 -10.000000 -6.660119 0.635232 -0.524212 -0.567170
7.542514 -10.000000 -6.565857 0.642311 -0.524216 -0.559138
7.624425 -10.000000 -6.470560 0.649284 -0.524218 -0.551023
7.705132 -10.000000 -6.374240 0.656159 -0.524214 -0.542822
7.784623 -10.000000 -6.276914 0.662928 -0.524215 -0.534533
7.862885 -10.000000 -6.178596 0.669591 -0.524215 -0.526162
7.939904 -10.000000 -6.079304 0.676149 -0.524218 -0.517705
8.015670 -10.000000 -5.979051 0.682604 -0.524213 -0.509168
8.090170 -10.000000 -5.877852 0.688949 -0.524214 -0.500549
8.163393 -10.000000 -5.775727 0.695185 -0.524215 -0.491851
8.235326 -10.000000 -5.672689 0.701312 -0.524211 -0.483079
8.305959 -10.000000 -5.568757 0.707323 -0.524214 -0.474230
8.375280 -10.000000 -5.463943 0.713228 -0.524211 -0.465305
8.443279 -10.000000 -5.358269 0.719018 -0.524214 -0.456303
8.509945 -10.000000 -5.251747 0.724695 -0.524215 -0.447231
8.575267 -10.000000 -5.144395 0.730257 -0.524216 -0.438090
8.639235 -10.000000 -5.036232 0.735706 -0.524216 -0.428876
8.701838 -10.000000 -4.927274 0.741039 -0.524213 -0.419597
8.763066 -10.000000 -4.817537 0.746250 -0.524214 -0.410257
8.822912 -10.000000 -4.707039 0.751347 -0.524214 -0.400846
8.881365 -10.000000 -4.595798 0.756327 -0.524209 -0.391375
8.938415 -10.000000 -4.483832 0.761181 -0.524216 -0.381838
8.994053 -10.000000 -4.371158 0.765925 -0.524210 -0.372241
9.048270 -10.000000 -4.257793 0.770538 -0.524217 -0.362585
9.101059 -10.000000 -4.143756 0.775029 -0.524223 -0.352874
9.152411 -10.000000 -4.029064 0.779406 -0.524216 -0.343109
9.202318 -10.000000 -3.913737 0.783657 -0.524214 -0.333289
9.250772 -10.000000 -3.797791 0.787783 -0.524215 -0.323416
9.297765 -10.000000 -3.681245 0.791786 -0.524212 -0.313490
9.343289 -10.000000 -3.564119 0.795661 -0.524216 -0.303516
9.387339 -10.000000 -3.446430 0.799411 -0.524218 -0.293492
9.429905 -10.000000 -3.328196 0.803036 -0.524215 -0.283427
9.470984 -10.000000 -3.209436 0.806538 -0.524210 -0.273316
9.510566 -10.000000 -3.090170 0.809906 -0.524217 -0.263153
9.548646 -10.000000 -2.970416 0.813152 -0.524213 -0.252953
9.585217 -10.000000 -2.850193 0.816264 -0.524216 -0.242717
9.620276 -10.000000 -2.729520 0.819255 -0.524205 -0.232445
9.653816 -10.000000 -2.608415 0.822105 -0.524215 -0.222131
9.685832 -10.000000 -2.486899 0.824833 -0.524213 -0.211780
9.716317 -10.000000 -2.364990 0.827427 -0.524216 -0.201398
9.745269 -10.000000 -2.242708 0.829893 -0.524215 -0.190988
9.772681 -10.000000 -2.120071 0.832229 -0.524213 -0.180541
9.798551 -10.000000 -1.997100 0.834430 -0.524217 -0.170068
9.822872 -10.000000 -1.873813 0.836503 -0.524213 -0.159570
9.845643 -10.000000 -1.750231 0.838441 -0.524215 -0.149048
9.866859 -10.000000 -1.626372 0.840248 -0.524214 -0.138501
9.886518 -10.000000 -1.502256 0.841923 -0.524213 -0.127930
9.904614 -10.000000 -1.377903 0.843462 -0.524217 -0.117341
9.921147 -10.000000 -1.253332 0.844870 -0.524217 -0.106731
9.936113 -10.000000 -1.128564 0.846145 -0.524216 -0.096107
9.949511 -10.000000 -1.003617 0.847285 -0.524217 -0.085466
9.961336 -10.000000 -0.878512 0.848294 -0.524213 -0.074812
9.971589 -10.000000 -0.753268 0.849161 -0.524223 -0.064148
9.980268 -10.000000 -0.627905 0.849907 -0.524213 -0.053472
9.987370 -10.000000 -0.502443 0.850511 -0.524214 -0.042785
9.992894 -10.000000 -0.376902 0.850980 -0.524216 -0.032098
9.996842 -10.000000 -0.251301 0.851318 -0.524214 -0.021403
9.999210 -10.000000 -0.125660 0.851519 -0.524214 -0.010700
10.000000 -10.000000 0.000000 0.851586 -0.524215 0.000000
9.999210 -10.000000 0.125660 0.851519 -0.524214 0.010700
9.996842 -10.000000 0.251301 0.851318 -0.524213 0.021403
9.992894 -10.000000 0.376902 0.850980 -0.524216 0.032098
9.987370 -10.000000 0.502443 0.850511 -0.524214 0.042785
9.980268 -10.000000 0.627905 0.849907 -0.524213 0.053472
9.971589 -10.000000 0.753268 0.849163 -0.524221 0.064148
9.961336 -10.000000 0.878512 0.848294 -0.524213 0.074812
9.949511 -10.000000 1.003617 0.847286 -0.524216 0.085466
9.936113 -10.000000 1.128564 0.846145 -0.524216 0.096107
9.921147 -10.000000 1.253332 0.844869 -0.524218 0.106731
9.904614 -10.000000 1.377903 0.843462 -0.524217 0.117341
9.886518 -10.000000 1.502256 0.841923 -0.524213 0.127930
9.866859 -10.000000 1.626372 0.840248 -0.524214 0.138501
9.845643 -10.000000 1.750231 0.838439 -0.524218 0.149048
9.822872 -10.000000 1.873813 0.836503 -0.524213 0.159570
9.798551 -10.000000 1.997100 0.834430 -0.524217 0.170068
9.772681 -10.000000 2.120071 0.832229 -0.524213 0.180541
9.745269 -10.000000 2.242708 0.829894 -0.524214 0.190988
9.716317 -10.000000 2.364990 0.827427 -0.524216 0.201398
9.685832 -10.000000 2.486899 0.824833 -0.524213 0.211780
9.653816 -10.000000 2.608415 0.822105 -0.524215 0.222131
9.620276 -10.000000 2.729520 0.819254 -0.524207 0.232445
9.585217 -10.000000 2.850193 0.816264 -0.524216 0.242717
9.548646 -10.000000 2.970416 0.813152 -0.524213 0.252953
9.510566 -10.000000 3.090170 0.809906 -0.524217 0.263153
9.470984 -10.000000 3.209436 0.806540 -0.524206 0.273316
9.429905 -10.000000 3.328196 0.803036 -0.524215 0.283427
9.387339 -10.000000 3.446430 0.799411 -0.524218 0.293492
9.343289 -10.000000 3.564119 0.795661 -0.524216 0.303516
9.297765 -10.000000 3.681245 0.791785 -0.524214 0.313489
9.250772 -10.000000 3.797791 0.787783 -0.524215 0.323416
9.202318 -10.000000 3.913737 0.783657 -0.524214 0.333289
9.152411 -10.000000 4.029064 0.779406 -0.524216 0.343109
9.101059 -10.000000 4.143756 0.775030 -0.524222 0.352874
9.048270 -10.000000 4.257793 0.770538 -0.524217 0.362585
8.994053 -10.000000 4.371158 0.765925 -0.524209 0.372241
8.938415 -10.000000 4.483832 0.761181 -0.524216 0.381838
8.881365 -10.000000 4.595798 0.756329 -0.524205 0.391376
8.822912 -10.000000 4.707039 0.751347 -0.524214 0.400846
8.763066 -10.000000 4.817537 0.746250 -0.524214 0.410257
8.701838 -10.000000 4.927274 0.741039 -0.524213 0.419597
8.639235 -10.000000 5.036232 0.735705 -0.524217 0.428876
8.575267 -10.000000 5.144395 0.730257 -0.524216 0.438090
8.509945 -10.000000 5.251747 0.724695 -0.524215 0.447231
8.443279 -10.000000 5.358269 0.719018 -0.524214 0.456303
8.375280 -10.000000 5.463943 0.713227 -0.524214 0.465304
8.305959 -10.000000 5.568757 0.707323 -0.524214 0.474230
8.235326 -10.000000 5.672689 0.701313 -0.524209 0.483080
8.163393 -10.000000 5.775727 0.695185 -0.524215 0.491851
8.090170 -10.000000 5.877852 0.688948 -0.524216 0.500548
8.015670 -10.000000 5.979051 0.682604 -0.524213 0.509168
7.939904 -10.000000 6.079304 0.676149 -0.524218 0.517705
7.862885 -10.000000 6.178596 0.669591 -0.524215 0.526162
7.784623 -10.000000 6.276914 0.662927 -0.524216 0.534532
7.705132 -10.000000 6.374240 0.656159 -0.524214 0.542822
7.624425 -10.000000 6.470560 0.649284 -0.524218 0.551023
7.542514 -10.000000 6.565857 0.642311 -0.524216 0.559138
7.459412 -10.000000 6.660119 0.635233 -0.524211 0.567170
7.375131 -10.000000 6.753328 0.628056 -0.524215 0.575104
7.289686 -10.000000 6.845471 0.620780 -0.524217 0.582948
7.203090 -10.000000 6.936533 0.613405 -0.524216 0.590705
7.115357 -10.000000 7.026500 0.605937 -0.524210 0.598368
7.026500 -10.000000 7.115357 0.598366 -0.524215 0.605935
6.936533 -10.000000 7.203090 0.590705 -0.524216 0.613405
6.845471 -10.000000 7.289686 0.582950 -0.524214 0.620781
6.753328 -10.000000 7.375131 0.575101 -0.524222 0.628053
6.660119 -10.000000 7.459412 0.567169 -0.524214 0.635232
6.565857 -10.000000 7.542514 0.559135 -0.524223 0.642307
6.470560 -10.000000 7.624425 0.551024 -0.524214 0.649286
6.374240 -10.000000 7.705132 0.542820 -0.524219 0.656156
6.276914 -10.000000 7.784623 0.534533 -0.524215 0.662928
6.178596 -10.000000 7.862885 0.526162 -0.524216 0.669590
6.079304 -10.000000 7.939904 0.517705 -0.524216 0.676150
5.979051 -10.000000 8.015670 0.509164 -0.524225 0.682599
5.877852 -10.000000 8.090170 0.500549 -0.524215 0.688948
5.775727 -10.000000 8.163393 0.491851 -0.524214 0.695185
5.672689 -10.000000 8.235326 0.483077 -0.524217 0.701308
5.568757 -10.000000 8.305959 0.474230 -0.524214 0.707323
5.463943 -10.000000 8.375280 0.465303 -0.524217 0.713225
5.358269 -10.000000 8.443279 0.456304 -0.524212 0.719019
5.251747 -10.000000 8.509945 0.447231 -0.524216 0.724694
5.144395 -10.000000 8.575267 0.438090 -0.524215 0.730257
5.036232 -10.000000 8.639235 0.428876 -0.524215 0.735706
4.927274 -10.000000 8.701838 0.419596 -0.524218 0.741036
4.817537 -10.000000 8.763066 0.410256 -0.524216 0.746249
4.707039 -10.000000 8.822912 0.400848 -0.524207 0.751351
4.595798 -10.000000 8.881365 0.391373 -0.524216 0.756324
4.483832 -10.000000 8.938415 0.381840 -0.524210 0.761185
4.371158 -10.000000 8.994053 0.372240 -0.524214 0.765922
4.257793 -10.000000 9.048270 0.362584 -0.524220 0.770536
4.143756 -10.000000 9.101059 0.352876 -0.524216 0.775033
4.029064 -10.000000 9.152411 0.343108 -0.524217 0.779405
3.913737 -10.000000 9.202318 0.333289 -0.524216 0.783656
3.797791 -10.000000 9.250772 0.323417 -0.524210 0.787785
3.681245 -10.000000 9.297765 0.313489 -0.524216 0.791784
3.564119 -10.000000 9.343289 0.303517 -0.524213 0.795662
3.446430 -10.000000 9.387339 0.293492 -0.524216 0.799412
3.328196 -10.000000 9.429905 0.283432 -0.524193 0.803049
3.209436 -10.000000 9.470984 0.273315 -0.524215 0.806535
3.090170 -10.000000 9.510566 0.263153 -0.524215 0.809907
2.970416 -10.000000 9.548646 0.252953 -0.524213 0.813151
2.850193 -10.000000 9.585217 0.242715 -0.524226 0.816258
2.729520 -10.000000 9.620276 0.232443 -0.524215 0.819249
2.608415 -10.000000 9.653816 0.222131 -0.524213 0.822106
2.486899 -10.000000 9.685832 0.211781 -0.524212 0.824833
2.364990 -10.000000 9.716317 0.201398 -0.524213 0.827429
2.242708 -10.000000 9.745269 0.190988 -0.524214 0.829894
2.120071 -10.000000 9.772681 0.180542 -0.524209 0.832232
1.997100 -10.000000 9.798551 0.170068 -0.524215 0.834431
1.873813 -10.000000 9.822872 0.159570 -0.524213 0.836504
1.750231 -10.000000 9.845643 0.149048 -0.524217 0.838440
1.626372 -10.000000 9.866859 0.138501 -0.524214 0.840248
1.502256 -10.000000 9.886518 0.127930 -0.524214 0.841923
1.377903 -10.000000 9.904614 0.117340 -0.524225 0.843457
1.253332 -10.000000 9.921147 0.106732 -0.524214 0.844872
1.128564 -10.000000 9.936113 0.096107 -0.524216 0.846145
1.003617 -10.000000 9.949511 0.085466 -0.524214 0.847287
0.878512 -10.000000 9.961336 0.074812 -0.524217 0.848292
0.753268 -10.000000 9.971589 0.064149 -0.524215 0.849166
0.627905 -10.000000 9.980268 0.053472 -0.524215 0.849905
0.502443 -10.000000 9.987370 0.042785 -0.524214 0.850511
0.376902 -10.000000 9.992894 0.032097 -0.524221 0.850977
0.251301 -10.000000 9.996842 0.021403 -0.524212 0.851319
0.125660 -10.000000 9.999210 0.010700 -0.524221 0.851515
0.000000 -10.000000 10.000000 0.000000 -0.524212 0.851588
-0.125660 -10.000000 9.999210 -0.010700 -0.524222 0.851515
-0.251301 -10.000000 9.996842 -0.021403 -0.524212 0.851319
-0.376902 -10.000000 9.992894 -0.032097 -0.524220 0.850978
-0.502443 -10.000000 9.987370 -0.042785 -0.524214 0.850511
-0.627905 -10.000000 9.980268 -0.053472 -0.524212 0.849908
-0.753268 -10.000000 9.971589 -0.064149 -0.524214 0.849167
-0.878512 -10.000000 9.961336 -0.074812 -0.524215 0.848293
-1.003617 -10.000000 9.949511 -0.085466 -0.524216 0.847286
-1.128564 -10.000000 9.936113 -0.096107 -0.524214 0.846146
-1.253332 -10.000000 9.921147 -0.106732 -0.524214 0.844872
-1.377903 -10.000000 9.904614 -0.117341 -0.524216 0.843462
-1.502256 -10.000000 9.886518 -0.127930 -0.524214 0.841923
-1.626372 -10.000000 9.866859 -0.138500 -0.524217 0.840246
-1.750231 -10.000000 9.845643 -0.149048 -0.524215 0.838441
-1.873813 -10.000000 9.822872 -0.159570 -0.524215 0.836502
-1.997100 -10.000000 9.798551 -0.170068 -0.524215 0.834431
-2.120071 -10.000000 9.772681 -0.180543 -0.524202 0.832236
-2.242708 -10.000000 9.745269 -0.190988 -0.524214 0.829894
-2.364990 -10.000000 9.716317 -0.201398 -0.524218 0.827427
-2.486899 -10.000000 9.685832 -0.211781 -0.524212 0.824833
-2.608415 -10.000000 9.653816 -0.222132 -0.524210 0.822108
-2.729520 -10.000000 9.620276 -0.232443 -0.524215 0.819249
-2.850193 -10.000000 9.585217 -0.242716 -0.524222 0.816260
-2.970416 -10.000000 9.548646 -0.252953 -0.524213 0.813151
-3.090170 -10.000000 9.510566 -0.263154 -0.524214 0.809907
-3.209436 -10.000000 9.470984 -0.273314 -0.524216 0.806534
-3.328196 -10.000000 9.429905 -0.283429 -0.524206 0.803041
-3.446430 -10.000000 9.387339 -0.293492 -0.524216 0.799412
-3.564119 -10.000000 9.343289 -0.303517 -0.524211 0.795663
-3.681245 -10.000000 9.297765 -0.313489 -0.524215 0.791785
-3.797791 -10.000000 9.250772 -0.323417 -0.524207 0.787787
-3.913737 -10.000000 9.202318 -0.333288 -0.524217 0.783655
-4.029064 -10.000000 9.152411 -0.343110 -0.524211 0.779409
-4.143756 -10.000000 9.101059 -0.352876 -0.524216 0.775033
-4.257793 -10.000000 9.048270 -0.362584 -0.524218 0.770537
-4.371158 -10.000000 8.994053 -0.372240 -0.524214 0.765923
-4.483832 -10.000000 8.938415 -0.381842 -0.524202 0.761189
-4.595798 -10.000000 8.881365 -0.391373 -0.524216 0.756324
-4.707039 -10.000000 8.822912 -0.400846 -0.524213 0.751347
-4.817537 -10.000000 8.763066 -0.410256 -0.524216 0.746249
-4.927274 -10.000000 8.701838 -0.419593 -0.524227 0.741031
-5.036232 -10.000000 8.639235 -0.428876 -0.524215 0.735706
-5.144395 -10.000000 8.575267 -0.438090 -0.524217 0.730256
-5.251747 -10.000000 8.509945 -0.447231 -0.524216 0.724694
-5.358269 -10.000000 8.443279 -0.456303 -0.524214 0.719018
-5.463943 -10.000000 8.375280 -0.465303 -0.524215 0.713226
-5.568757 -10.000000 8.305959 -0.474230 -0.524213 0.707323
-5.672689 -10.000000 8.235326 -0.483077 -0.524217 0.701308
-5.775727 -10.000000 8.163393 -0.491851 -0.524214 0.695185
-5.877852 -10.000000 8.090170 -0.500548 -0.524217 0.688947
-5.979051 -10.000000 8.015670 -0.509166 -0.524217 0.682602
-6.079304 -10.000000 7.939904 -0.517705 -0.524216 0.676150
-6.178596 -10.000000 7.862885 -0.526163 -0.524212 0.669592
-6.276914 -10.000000 7.784623 -0.534533 -0.524216 0.662928
-6.374240 -10.000000 7.705132 -0.542821 -0.524216 0.656158
-6.470560 -10.000000 7.624425 -0.551024 -0.524215 0.649285
-6.565857 -10.000000 7.542514 -0.559137 -0.524218 0.642310
-6.660119 -10.000000 7.459412 -0.567169 -0.524214 0.635232
-6.753328 -10.000000 7.375131 -0.575101 -0.524221 0.628053
-6.845471 -10.000000 7.289686 -0.582950 -0.524214 0.620781
-6.936533 -10.000000 7.203090 -0.590706 -0.524212 0.613407
-7.026500 -10.000000 7.115357 -0.598365 -0.524217 0.605934
-7.115357 -10.000000 7.026500 -0.605936 -0.524212 0.598367
-7.203090 -10.000000 6.936533 -0.613405 -0.524216 0.590705
-7.289686 -10.000000 6.845471 -0.620780 -0.524217 0.582948
-7.375131 -10.000000 6.753328 -0.628056 -0.524216 0.575103
-7.459412 -10.000000 6.660119 -0.635233 -0.524212 0.567170
-7.542514 -10.000000 6.565857 -0.642311 -0.524216 0.559138
-7.624425 -10.000000 6.470560 -0.649284 -0.524218 0.551023
-7.705132 -10.000000 6.374240 -0.656159 -0.524214 0.542822
-7.784623 -10.000000 6.276914 -0.662927 -0.524218 0.534532
-7.862885 -10.000000 6.178596 -0.669591 -0.524215 0.526162
-7.939904 -10.000000 6.079304 -0.676149 -0.524218 0.517705
-8.015670 -10.000000 5.979051 -0.682604 -0.524213 0.509168
-8.090170 -10.000000 5.877852 -0.688946 -0.524218 0.500547
-8.163393 -10.000000 5.775727 -0.695185 -0.524215 0.491851
-8.235326 -10.000000 5.672689 -0.701314 -0.524206 0.483081
-8.305959 -10.000000 5.568757 -0.707323 -0.524214 0.474230
-8.375280 -10.000000 5.463943 -0.713226 -0.524215 0.465303
-8.443279 -10.000000 5.358269 -0.719018 -0.524214 0.456303
-8.509945 -10.000000 5.251747 -0.724696 -0.524212 0.447232
-8.575267 -10.000000 5.144395 -0.730257 -0.524216 0.438090
-8.639235 -10.000000 5.036232 -0.735708 -0.524212 0.428877
-8.701838 -10.000000 4.927274 -0.741037 -0.524217 0.419596
-8.763066 -10.000000 4.817537 -0.746250 -0.524215 0.410256
-8.822912 -10.000000 4.707039 -0.751346 -0.524216 0.400845
-8.881365 -10.000000 4.595798 -0.756326 -0.524212 0.391374
-8.938415 -10.000000 4.483832 -0.761181 -0.524216 0.381838
-8.994053 -10.000000 4.371158 -0.765926 -0.524208 0.372242
-9.048270 -10.000000 4.257793 -0.770538 -0.524217 0.362585
-9.101059 -10.000000 4.143756 -0.775030 -0.524221 0.352875
-9.152411 -10.000000 4.029064 -0.779406 -0.524216 0.343109
-9.202318 -10.000000 3.913737 -0.783660 -0.524209 0.333290
-9.250772 -10.000000 3.797791 -0.787783 -0.524215 0.323416
-9.297765 -10.000000 3.681245 -0.791783 -0.524218 0.313489
-9.343289 -10.000000 3.564119 -0.795661 -0.524216 0.303516
-9.387339 -10.000000 3.446430 -0.799414 -0.524214 0.293493
-9.429905 -10.000000 3.328196 -0.803033 -0.524220 0.283426
-9.470984 -10.000000 3.209436 -0.806538 -0.524209 0.273316
-9.510566 -10.000000 3.090170 -0.809906 -0.524217 0.263153
-9.548646 -10.000000 2.970416 -0.813149 -0.524218 0.252952
-9.585217 -10.000000 2.850193 -0.816264 -0.524215 0.242717
-9.620276 -10.000000 2.729520 -0.819249 -0.524214 0.232444
-9.653816 -10.000000 2.608415 -0.822105 -0.524215 0.222131
-9.685832 -10.000000 2.486899 -0.824832 -0.524215 0.211780
-9.716317 -10.000000 2.364990 -0.827428 -0.524215 0.201398
-9.745269 -10.000000 2.242708 -0.829894 -0.524213 0.190988
-9.772681 -10.000000 2.120071 -0.832227 -0.524217 0.180541
-9.798551 -10.000000 1.997100 -0.834433 -0.524212 0.170069
-9.822872 -10.000000 1.873813 -0.836503 -0.524213 0.159570
-9.845643 -10.000000 1.750231 -0.838441 -0.524215 0.149048
-9.866859 -10.000000 1.626372 -0.840248 -0.524214 0.138501
-9.886518 -10.000000 1.502256 -0.841922 -0.524215 0.127930
-9.904614 -10.000000 1.377903 -0.843463 -0.524216 0.117341
-9.921147 -10.000000 1.253332 -0.844871 -0.524216 0.106731
-9.936113 -10.000000 1.128564 -0.846145 -0.524216 0.096107
-9.949511 -10.000000 1.003617 -0.847285 -0.524218 0.085466
-9.961336 -10.000000 0.878512 -0.848294 -0.524213 0.074812
-9.971589 -10.000000 0.753268 -0.849164 -0.524219 0.064148
-9.980268 -10.000000 0.627905 -0.849907 -0.524213 0.053472
-9.987370 -10.000000 0.502443 -0.850511 -0.524214 0.042785
-9.992894 -10.000000 0.376902 -0.850979 -0.524219 0.032097
-9.996842 -10.000000 0.251301 -0.851319 -0.524212 0.021403
-9.999210 -10.000000 0.125660 -0.851519 -0.524214 0.010700
-10.000000 -10.000000 0.000000 -0.851585 -0.524217 0.000000
-9.999210 -10.000000 -0.125660 -0.851519 -0.524214 -0.010700
-9.996842 -10.000000 -0.251301 -0.851319 -0.524212 -0.021403
-9.992894 -10.000000 -0.376902 -0.850979 -0.524219 -0.032097
-9.987370 -10.000000 -0.502443 -0.850511 -0.524214 -0.042785
-9.980268 -10.000000 -0.627905 -0.849907 -0.524213 -0.053472
-9.971589 -10.000000 -0.753268 -0.849164 -0.524219 -0.064148
-9.961336 -10.000000 -0.878512 -0.848294 -0.524213 -0.074812
-9.949511 -10.000000 -1.003617 -0.847285 -0.524217 -0.085466
-9.936113 -10.000000 -1.128564 -0.846145 -0.524216 -0.096107
-9.921147 -10.000000 -1.253332 -0.844871 -0.524216 -0.106731
-9.904614 -10.000000 -1.377903 -0.843463 -0.524216 -0.117341
-9.886518 -10.000000 -1.502256 -0.841922 -0.524215 -0.127930
-9.866859 -10.000000 -1.626372 -0.840248 -0.524214 -0.138501
-9.845643 -10.000000 -1.750231 -0.838441 -0.524215 -0.149048
-9.822872 -10.000000 -1.873813 -0.836503 -0.524213 -0.159570
-9.798551 -10.000000 -1.997100 -0.834433 -0.524212 -0.170069
-9.772681 -10.000000 -2.120071 -0.832227 -0.524217 -0.180541
-9.745269 -10.000000 -2.242708 -0.829894 -0.524213 -0.190988
-9.716317 -10.000000 -2.364990 -0.827428 -0.524215 -0.201398
-9.685832 -10.000000 -2.486899 -0.824832 -0.524215 -0.211780
-9.653816 -10.000000 -2.608415 -0.822105 -0.524215 -0.222131
-9.620276 -10.000000 -2.729520 -0.819249 -0.524214 -0.232444
-9.585217 -10.000000 -2.850193 -0.816264 -0.524215 -0.242717
-9.548646 -10.000000 -2.970416 -0.813149 -0.524218 -0.252952
-9.510566 -10.000000 -3.090170 -0.809906 -0.524217 -0.263153
-9.470984 -10.000000 -3.209436 -0.806538 -0.524209 -0.273316
-9.429905 -10.000000 -3.328196 -0.803033 -0.524220 -0.283426
-9.387339 -10.000000 -3.446430 -0.799414 -0.524214 -0.293493
-9.343289 -10.000000 -3.564119 -0.795661 -0.524216 -0.303516
-9.297765 -10.000000 -3.681245 -0.791783 -0.524218 -0.313489
-9.250772 -10.000000 -3.797791 -0.787783 -0.524215 -0.323416
-9.202318 -10.000000 -3.913737 -0.783660 -0.524209 -0.333290
-9.152411 -10.000000 -4.029064 -0.779406 -0.524216 -0.343109
-9.101059 -10.000000 -4.143756 -0.775030 -0.524221 -0.352875
-9.048270 -10.000000 -4.257793 -0.770538 -0.524217 -0.362585
-8.994053 -10.000000 -4.371158 -0.765926 -0.524208 -0.372242
-8.938415 -10.000000 -4.483832 -0.761181 -0.524216 -0.381838
-8.881365 -10.000000 -4.595798 -0.756326 -0.524212 -0.391374
-8.822912 -10.000000 -4.707039 -0.751346 -0.524216 -0.400845
-8.763066 -10.000000 -4.817537 -0.746250 -0.524215 -0.410256
-8.701838 -10.000000 -4.927274 -0.741037 -0.524217 -0.419596
-8.639235 -10.000000 -5.036232 -0.735708 -0.524212 -0.428877
-8.575267 -10.000000 -5.144395 -0.730257 -0.524216 -0.438090
-8.509945 -10.000000 -5.251747 -0.724696 -0.524212 -0.447232
-8.443279 -10.000000 -5.358269 -0.719018 -0.524214 -0.456303
-8.375280 -10.000000 -5.463943 -0.713226 -0.524215 -0.465303
-8.305959 -10.000000 -5.568757 -0.707323 -0.524214 -0.474230
-8.235326 -10.000000 -5.672689 -0.701313 -0.524208 -0.483080
-8.163393 -10.000000 -5.775727 -0.695185 -0.524215 -0.491851
-8.090170 -10.000000 -5.877852 -0.688946 -0.524218 -0.500547
-8.015670 -10.000000 -5.979051 -0.682604 -0.524213 -0.509168
-7.939904 -10.000000 -6.079304 -0.676149 -0.524218 -0.517705
-7.862885 -10.000000 -6.178596 -0.669591 -0.524215 -0.526162
-7.784623 -10.000000 -6.276914 -0.662927 -0.524218 -0.534532
-7.705132 -10.000000 -6.374240 -0.656159 -0.524214 -0.542822
-7.624425 -10.000000 -6.470560 -0.649284 -0.524217 -0.551023
-7.542514 -10.000000 -6.565857 -0.642311 -0.524216 -0.559138
-7.459412 -10.000000 -6.660119 -0.635233 -0.524212 -0.567170
-7.375131 -10.000000 -6.753328 -0.628056 -0.524216 -0.575103
-7.289686 -10.000000 -6.845471 -0.620780 -0.524217 -0.582948
-7.203090 -10.000000 -6.936533 -0.613405 -0.524216 -0.590705
-7.115357 -10.000000 -7.026500 -0.605936 -0.524212 -0.598367
-7.026500 -10.000000 -7.115357 -0.598365 -0.524217 -0.605934
-6.936533 -10.000000 -7.203090 -0.590706 -0.524213 -0.613406
-6.845471 -10.000000 -7.289686 -0.582950 -0.524214 -0.620781
-6.753328 -10.000000 -7.375131 -0.575102 -0.524219 -0.628054
-6.660119 -10.000000 -7.459412 -0.567169 -0.524214 -0.635232
-6.565857 -10.000000 -7.542514 -0.559137 -0.524219 -0.642309
-6.470560 -10.000000 -7.624425 -0.551024 -0.524215 -0.649285
-6.374240 -10.000000 -7.705132 -0.542821 -0.524216 -0.656158
-6.276914 -10.000000 -7.784623 -0.534533 -0.524216 -0.662928
-6.178596 -10.000000 -7.862885 -0.526162 -0.524215 -0.669591
-6.079304 -10.000000 -7.939904 -0.517705 -0.524216 -0.676150
-5.979051 -10.000000 -8.015670 -0.509166 -0.524217 -0.682602
-5.877852 -10.000000 -8.090170 -0.500548 -0.524217 -0.688947
-5.775727 -10.000000 -8.163393 -0.491851 -0.524214 -0.695185
-5.672689 -10.000000 -8.235326 -0.483077 -0.524217 -0.701308
-5.568757 -10.000000 -8.305959 -0.474230 -0.524213 -0.707323
-5.463943 -10.000000 -8.375280 -0.465303 -0.524215 -0.713226
-5.358269 -10.000000 -8.443279 -0.456303 -0.524214 -0.719018
-5.251747 -10.000000 -8.509945 -0.447231 -0.524216 -0.724694
-5.144395 -10.000000 -8.575267 -0.438090 -0.524217 -0.730256
-5.036232 -10.000000 -8.639235 -0.428876 -0.524215 -0.735706
-4.927274 -10.000000 -8.701838 -0.419593 -0.524227 -0.741031
-4.817537 -10.000000 -8.763066 -0.410256 -0.524216 -0.746249
-4.707039 -10.000000 -8.822912 -0.400846 -0.524213 -0.751347
-4.595798 -10.000000 -8.881365 -0.391373 -0.524216 -0.756324
-4.483832 -10.000000 -8.938415 -0.381842 -0.524202 -0.761189
-4.371158 -10.000000 -8.994053 -0.372240 -0.524214 -0.765923
-4.257793 -10.000000 -9.048270 -0.362584 -0.524218 -0.770537
-4.143756 -10.000000 -9.101059 -0.352876 -0.524216 -0.775033
-4.029064 -10.000000 -9.152411 -0.343110 -0.524211 -0.779409
-3.913737 -10.000000 -9.202318 -0.333288 -0.524217 -0.783655
-3.797791 -10.000000 -9.250772 -0.323417 -0.524207 -0.787787
-3.681245 -10.000000 -9.297765 -0.313489 -0.524215 -0.791785
-3.564119 -10.000000 -9.343289 -0.303517 -0.524211 -0.795663
-3.446430 -10.000000 -9.387339 -0.293492 -0.524216 -0.799412
-3.328196 -10.000000 -9.429905 -0.283429 -0.524206 -0.803041
-3.209436 -10.000000 -9.470984 -0.273314 -0.524216 -0.806534
-3.090170 -10.000000 -9.510566 -0.263154 -0.524214 -0.809907
-2.970416 -10.000000 -9.548646 -0.252953 -0.524213 -0.813151
-2.850193 -10.000000 -9.585217 -0.242716 -0.524222 -0.816260
-2.729520 -10.000000 -9.620276 -0.232443 -0.524215 -0.819249
-2.608415 -10.000000 -9.653816 -0.222132 -0.524210 -0.822108
-2.486899 -10.000000 -9.685832 -0.211781 -0.524212 -0.824833
-2.364990 -10.000000 -9.716317 -0.201398 -0.524218 -0.827427
-2.242708 -10.000000 -9.745269 -0.190988 -0.524214 -0.829894
-2.120071 -10.000000 -9.772681 -0.180543 -0.524202 -0.832236
-1.997100 -10.000000 -9.798551 -0.170068 -0.524215 -0.834431
-1.873813 -10.000000 -9.822872 -0.159570 -0.524215 -0.836502
-1.750231 -10.000000 -9.845643 -0.149048 -0.524215 -0.838441
-1.626372 -10.000000 -9.866859 -0.138501 -0.524216 -0.840247
-1.502256 -10.000000 -9.886518 -0.127930 -0.524214 -0.841923
-1.377903 -10.000000 -9.904614 -0.117341 -0.524216 -0.843462
-1.253332 -10.000000 -9.921147 -0.106732 -0.524214 -0.844872
-1.128564 -10.000000 -9.936113 -0.096107 -0.524214 -0.846146
-1.003617 -10.000000 -9.949511 -0.085466 -0.524216 -0.847286
-0.878512 -10.000000 -9.961336 -0.074812 -0.524215 -0.848293
-0.753268 -10.000000 -9.971589 -0.064149 -0.524214 -0.849167
-0.627905 -10.000000 -9.980268 -0.053472 -0.524212 -0.849908
-0.502443 -10.000000 -9.987370 -0.042785 -0.524214 -0.850511
-0.376902 -10.000000 -9.992894 -0.032097 -0.524220 -0.850978
-0.251301 -10.000000 -9.996842 -0.021403 -0.524212 -0.851319
-0.125660 -10.000000 -9.999210 -0.010700 -0.524221 -0.851515
3 0 1 2
3 2 1 3
3 3 1 4
3 4 1 5
3 5 1 6
3 6 1 7
3 7 1 8
3 8 1 9
3 9 1 10
3 10 1 11
3 11 1 12
3 12 1 13
3 13 1 14
3 14 1 15
3 15 1 16
3 16 1 17
3 17 1 18
3 18 1 19
3 19 1 20
3 20 1 21
3 21 1 22
3 22 1 23
3 23 1 24
3 24 1 25
3 25 1 26
3 26 1 27
3 27 1 28
3 28 1 29
3 29 1 30
3 30 1 31
3 31 1 32
3 32 1 33
3 33 1 34
3 34 1 35
3 35 1 36
3 36 1 37
3 37 1 38
3 38 1 39
3 39 1 40
3 40 1 41
3 41 1 42
3 42 1 43
3 43 1 44
3 44 1 45
3 45 1 46
3 46 1 47
3 47 1 48
3 48 1 49
3 49 1 50
3 50 1 51
3 51 1 52
3 52 1 53
3 53 1 54
3 54 1 55
3 55 1 56
3 56 1 57
3 57 1 58
3 58 1 59
3 59 1 60
3 60 1 61
3 61 1 62
3 62 1 63
3 63 1 64
3 64 1 65
3 65 1 66
3 66 1 67
3 67 1 68
3 68 1 69
3 69 1 70
3 70 1 71
3 71 1 72
3 72 1 73
3 73 1 74
3 74 1 75
3 75 1 76
3 76 1 77
3 77 1 78
3 78 1 79
3 79 1 80
3 80 1 81
3 81 1 82
3 82 1 83
3 83 1 84
3 84 1 85
3 85 1 86
3 86 1 87
3 87 1 88
3 88 1 89
3 89 1 90
3 90 1 91
3 91 1 92
3 92 1 93
3 93 1 94
3 94 1 95
3 95 1 96
3 96 1 97
3 97 1 98
3 98 1 99
3 99 1 100
3 100 1 101
3 101 1 102
3 102 1 103
3 103 1 104
3 104 1 105
3 105 1 106
3 106 1 107
3 107 1 108
3 108 1 109
3 109 1 110
3 110 1 111
3 111 1 112
3 112 1 113
3 113 1 114
3 114 1 115
3 115 1 116
3 116 1 117
3 117 1 118
3 118 1 119
3 119 1 120
3 120 1 121
3 121 1 122
3 122 1 123
3 123 1 124
3 124 1 125
3 125 1 126
3 126 1 127
3 127 1 128
3 128 1 129
3 129 1 130
3 130 1 131
3 131 1 132
3 132 1 133
3 133 1 134
3 134 1 135
3 135 1 136
3 136 1 137
3 137 1 138
3 138 1 139
3 139 1 140
3 140 1 141
3 141 1 142
3 142 1 143
3 143 1 144
3 144 1 145
3 145 1 146
3 146 1 147
3 147 1 148
3 148 1 149
3 149 1 150
3 150 1 151
3 151 1 152
3 152 1 153
3 153 1 154
3 154 1 155
3 155 1 156
3 156 1 157
3 157 1 158
3 158 1 159
3 159 1 160
3 160 1 161
3 161 1 162
3 162 1 163
3 163 1 164
3 164 1 165
3 165 1 166
3 166 1 167
3 167 1 168
3 168 1 169
3 169 1 170
3 170 1 171
3 171 1 172
3 172 1 173
3 173 1 174
3 174 1 175
3 175 1 176
3 176 1 177
3 177 1 178
3 178 1 179
3 179 1 180
3 180 1 181
3 181 1 182
3 182 1 183
3 183 1 184
3 184 1 185
3 185 1 186
3 186 1 187
3 187 1 188
3 188 1 189
3 189 1 190
3 190 1 191
3 191 1 192
3 192 1 193
3 193 1 194
3 194 1 195
3 195 1 196
3 196 1 197
3 197 1 198
3 198 1 199
3 199 1 200
3 200 1 201
3 201 1 202
3 202 1 203
3 203 1 204
3 204 1 205
3 205 1 206
3 206 1 207
3 207 1 208
3 208 1 209
3 209 1 210
3 210 1 211
3 211 1 212
3 212 1 213
3 213 1 214
3 214 1 215
3 215 1 216
3 216 1 217
3 217 1 218
3 218 1 219
3 219 1 220
3 220 1 221
3 221 1 222
3 222 1 223
3 223 1 224
3 224 1 225
3 225 1 226
3 226 1 227
3 227 1 228
3 228 1 229
3 229 1 230
3 230 1 231
3 231 1 232
3 232 1 233
3 233 1 234
3 234 1 235
3 235 1 236
3 236 1 237
3 237 1 238
3 238 1 239
3 239 1 240
3 240 1 241
3 241 1 242
3 242 1 243
3 243 1 244
3 244 1 245
3 245 1 246
3 246 1 247
3 247 1 248
3 248 1 249
3 249 1 250
3 250 1 251
3 251 1 252
3 252 1 253
3 253 1 254
3 254 1 255
3 255 1 256
3 256 1 257
3 257 1 258
3 258 1 259
3 259 1 260
3 260 1 261
3 261 1 262
3 262 1 263
3 263 1 264
3 264 1 265
3 265 1 266
3 266 1 267
3 267 1 268
3 268 1 269
3 269 1 270
3 270 1 271
3 271 1 272
3 272 1 273
3 273 1 274
3 274 1 275
3 275 1 276
3 276 1 277
3 277 1 278
3 278 1 279
3 279 1 280
3 280 1 281
3 281 1 282
3 282 1 283
3 283 1 284
3 284 1 285
3 285 1 286
3 286 1 287
3 287 1 288
3 288 1 289
3 289 1 290
3 290 1 291
3 291 1 292
3 292 1 293
3 293 1 294
3 294 1 295
3 295 1 296
3 296 1 297
3 297 1 298
3 298 1 299
3 299 1 300
3 300 1 301
3 301 1 302
3 302 1 303
3 303 1 304
3 304 1 305
3 305 1 306
3 306 1 307
3 307 1 308
3 308 1 309
3 309 1 310
3 310 1 311
3 311 1 312
3 312 1 313
3 313 1 314
3 314 1 315
3 315 1 316
3 316 1 317
3 317 1 318
3 318 1 319
3 319 1 320
3 320 1 321
3 321 1 322
3 322 1 323
3 323 1 324
3 324 1 325
3 325 1 326
3 326 1 327
3 327 1 328
3 328 1 329
3 329 1 330
3 330 1 331
3 331 1 332
3 332 1 333
3 333 1 334
3 334 1 335
3 335 1 336
3 336 1 337
3 337 1 338
3 338 1 339
3 339 1 340
3 340 1 341
3 341 1 342
3 342 1 343
3 343 1 344
3 344 1 345
3 345 1 346
3 346 1 347
3 347 1 348
3 348 1 349
3 349 1 350
3 350 1 351
3 351 1 352
3 352 1 353
3 353 1 354
3 354 1 355
3 355 1 356
3 356 1 357
3 357 1 358
3 358 1 359
3 359 1 360
3 360 1 361
3 361 1 362
3 362 1 363
3 363 1 364
3 364 1 365
3 365 1 366
3 366 1 367
3 367 1 368
3 368 1 369
3 369 1 370
3 370 1 371
3 371 1 372
3 372 1 373
3 373 1 374
3 374 1 375
3 375 1 376
3 376 1 377
3 377 1 378
3 378 1 379
3 379 1 380
3 380 1 381
3 381 1 382
3 382 1 383
3 383 1 384
3 384 1 385
3 385 1 386
3 386 1 387
3 387 1 388
3 388 1 389
3 389 1 390
3 390 1 391
3 391 1 392
3 392 1 393
3 393 1 394
3 394 1 395
3 395 1 396
3 396 1 397
3 397 1 398
3 398 1 399
3 399 1 400
3 400 1 401
3 401 1 402
3 402 1 403
3 403 1 404
3 404 1 405
3 405 1 406
3 406 1 407
3 407 1 408
3 408 1 409
3 409 1 410
3 410 1 411
3 411 1 412
3 412 1 413
3 413 1 414
3 414 1 415
3 415 1 416
3 416 1 417
3 417 1 418
3 418 1 419
3 419 1 420
3 420 1 421
3 421 1 422
3 422 1 423
3 423 1 424
3 424 1 425
3 425 1 426
3 426 1 427
3 427 1 428
3 428 1 429
3 429 1 430
3 430 1 431
3 431 1 432
3 432 1 433
3 433 1 434
3 434 1 435
3 435 1 436
3 436 1 437
3 437 1 438
3 438 1 439
3 439 1 440
3 440 1 441
3 441 1 442
3 442 1 443
3 443 1 444
3 444 1 445
3 445 1 446
3 446 1 447
3 447 1 448
3 448 1 449
3 449 1 450
3 450 1 451
3 451 1 452
3 452 1 453
3 453 1 454
3 454 1 455
3 455 1 456
3 456 1 457
3 457 1 458
3 458 1 459
3 459 1 460
3 460 1 461
3 461 1 462
3 462 1 463
3 463 1 464
3 464 1 465
3 465 1 466
3 466 1 467
3 467 1 468
3 468 1 469
3 469 1 470
3 470 1 471
3 471 1 472
3 472 1 473
3 473 1 474
3 474 1 475
3 475 1 476
3 476 1 477
3 477 1 478
3 478 1 479
3 479 1 480
3 480 1 481
3 481 1 482
3 482 1 483
3 483 1 484
3 484 1 485
3 485 1 486
3 486 1 487
3 487 1 488
3 488 1 489
3 489 1 490
3 490 1 491
3 491 1 492
3 492 1 493
3 493 1 494
3 494 1 495
3 495 1 496
3 496 1 497
3 497 1 498
3 498 1 499
3 488 104 232
3 499 1 500
3 500 1 0
3 500 0 2
3 2 3 4
3 4 5 6
3 6 7 4
3 7 8 4
3 8 9 12
3 9 10 12
3 10 11 12
3 12 13 14
3 14 15 12
3 15 16 12
3 16 17 18
3 18 19 20
3 20 21 22
3 22 23 24
3 24 25 26
3 26 27 24
3 27 28 24
3 28 29 30
3 30 31 28
3 31 32 28
3 32 33 36
3 33 34 36
3 34 35 36
3 36 37 40
3 37 38 40
3 38 39 40
3 40 41 42
3 42 43 44
3 44 45 46
3 46 47 44
3 47 48 44
3 48 49 52
3 49 50 52
3 50 51 52
3 52 53 54
3 54 55 52
3 55 56 52
3 56 57 58
3 58 59 60
3 60 61 62
3 62 63 60
3 63 64 60
3 64 65 66
3 66 67 64
3 67 68 64
3 68 69 70
3 70 71 72
3 72 73 76
3 73 74 76
3 74 75 76
3 76 77 78
3 78 79 80
3 80 81 82
3 82 83 80
3 83 84 80
3 84 85 88
3 85 86 88
3 86 87 88
3 88 89 90
3 90 91 92
3 92 93 94
3 94 95 96
3 96 97 98
3 98 99 96
3 99 100 96
3 100 101 102
3 102 103 100
3 103 104 100
3 104 105 106
3 106 107 104
3 107 108 104
3 108 109 112
3 109 110 112
3 110 111 112
3 112 113 114
3 114 115 112
3 115 116 112
3 116 117 118
3 118 119 120
3 120 121 122
3 122 123 120
3 123 124 120
3 124 125 126
3 126 127 128
3 128 129 132
3 129 130 132
3 130 131 132
3 132 133 134
3 134 135 136
3 136 137 140
3 137 138 140
3 138 139 140
3 140 141 142
3 142 143 140
3 143 144 140
3 144 145 148
3 145 146 148
3 146 147 148
3 148 149 152
3 149 150 152
3 150 151 152
3 152 153 156
3 153 154 156
3 154 155 156
3 156 157 158
3 158 159 160
3 160 161 162
3 162 163 164
3 164 165 166
3 166 167 164
3 167 168 164
3 168 169 172
3 169 170 172
3 170 171 172
3 172 173 174
3 174 175 176
3 176 177 178
3 178 179 176
3 179 180 176
3 180 181 182
3 182 183 184
3 184 185 188
3 185 186 188
3 186 187 188
3 188 189 192
3 189 190 192
3 190 191 192
3 192 193 194
3 194 195 196
3 196 197 200
3 197 198 200
3 198 199 200
3 200 201 202
3 202 203 204
3 204 205 208
3 205 206 208
3 206 207 208
3 208 209 210
3 210 211 212
3 212 213 214
3 214 215 212
3 215 216 212
3 216 217 218
3 218 219 216
3 219 220 216
3 220 221 224
3 221 222 224
3 222 223 224
3 224 225 228
3 225 226 228
3 226 227 228
3 228 229 230
3 230 231 232
3 232 233 234
3 234 235 236
3 236 237 240
3 237 238 240
3 238 239 240
3 240 241 242
3 242 243 240
3 243 244 240
3 244 245 248
3 245 246 248
3 246 247 248
3 248 249 250
3 250 251 252
3 252 253 254
3 254 255 256
3 256 257 258
3 258 259 256
3 259 260 256
3 260 261 262
3 262 263 264
3 264 265 268
3 265 266 268
3 266 267 268
3 268 269 270
3 270 271 272
3 272 273 274
3 274 275 276
3 276 277 278
3 278 279 280
3 280 281 282
3 282 283 284
3 284 285 286
3 286 287 284
3 287 288 284
3 288 289 290
3 290 291 292
3 292 293 294
3 294 295 292
3 295 296 292
3 296 297 300
3 297 298 300
3 298 299 300
3 300 301 304
3 301 302 304
3 302 303 304
3 304 305 306
3 306 307 304
3 307 308 304
3 308 309 310
3 310 311 312
3 312 313 314
3 314 315 316
3 316 317 320
3 317 318 320
3 318 319 320
3 320 321 322
3 322 323 320
3 323 324 320
3 324 325 326
3 326 327 328
3 328 329 330
3 330 331 332
3 332 333 334
3 334 335 332
3 335 336 332
3 336 337 340
3 337 338 340
3 338 339 340
3 340 341 342
3 342 343 344
3 344 345 346
3 346 347 348
3 348 349 350
3 350 351 352
3 352 353 354
3 354 355 352
3 355 356 352
3 356 357 360
3 357 358 360
3 358 359 360
3 360 361 362
3 362 363 364
3 364 365 368
3 365 366 368
3 366 367 368
3 368 369 370
3 370 371 372
3 372 373 376
3 373 374 376
3 374 375 376
3 376 377 378
3 378 379 376
3 379 380 376
3 380 381 382
3 382 383 384
3 384 385 386
3 386 387 384
3 387 388 384
3 388 389 390
3 390 391 392
3 392 393 394
3 394 395 392
3 395 396 392
3 396 397 400
3 397 398 400
3 398 399 400
3 400 401 402
3 402 403 404
3 404 405 406
3 406 407 408
3 408 409 410
3 410 411 412
3 412 413 414
3 414 415 412
3 415 416 412
3 416 417 420
3 417 418 420
3 418 419 420
3 420 421 422
3 422 423 424
3 424 425 426
3 426 427 428
3 428 429 432
3 429 430 432
3 430 431 432
3 432 433 434
3 434 435 432
3 435 436 432
3 436 437 438
3 438 439 440
3 440 441 442
3 442 443 444
3 444 445 448
3 445 446 448
3 446 447 448
3 448 449 450
3 450 451 448
3 451 452 448
3 452 453 454
3 454 455 452
3 455 456 452
3 456 457 460
3 457 458 460
3 458 459 460
3 460 461 462
3 462 463 464
3 464 465 468
3 465 466 468
3 466 467 468
3 468 469 470
3 470 471 472
3 472 473 474
3 474 475 476
3 476 477 478
3 478 479 480
3 480 481 482
3 482 483 484
3 484 485 486
3 486 487 484
3 487 488 484
3 488 489 490
3 490 491 492
3 492 493 496
3 493 494 496
3 494 495 496
3 496 497 498
3 498 499 500
3 500 2 4
3 16 18 20
3 20 22 24
3 40 42 48
3 42 44 48
3 56 58 64
3 58 60 64
3 68 70 64
3 70 72 64
3 76 78 80
3 88 90 92
3 92 94 88
3 94 96 88
3 116 118 112
3 118 120 112
3 124 126 120
3 126 128 120
3 132 134 136
3 156 158 152
3 158 160 152
3 160 162 168
3 162 164 168
3 172 174 168
3 174 176 168
3 180 182 176
3 182 184 176
3 192 194 200
3 194 196 200
3 200 202 208
3 202 204 208
3 208 210 212
3 228 230 224
3 230 232 224
3 232 234 236
3 248 250 252
3 252 254 256
3 260 262 256
3 262 264 256
3 268 270 264
3 270 272 264
3 272 274 276
3 276 278 272
3 278 280 272
3 280 282 288
3 282 284 288
3 288 290 292
3 308 310 304
3 310 312 304
3 312 314 320
3 314 316 320
3 324 326 320
3 326 328 320
3 328 330 332
3 340 342 344
3 344 346 348
3 348 350 344
3 350 352 344
3 360 362 368
3 362 364 368
3 368 370 376
3 370 372 376
3 380 382 376
3 382 384 376
3 388 390 384
3 390 392 384
3 400 402 408
3 402 404 408
3 404 406 408
3 408 410 412
3 420 422 424
3 424 426 432
3 426 428 432
3 436 438 432
3 438 440 432
3 440 442 444
3 460 462 464
3 468 470 464
3 470 472 464
3 472 474 480
3 474 476 480
3 476 478 480
3 480 482 488
3 482 484 488
3 488 490 496
3 490 492 496
3 496 498 500
3 500 4 8
3 8 12 16
3 16 20 24
3 24 28 32
3 32 36 40
3 48 52 40
3 52 56 40
3 72 76 88
3 76 80 88
3 80 84 88
3 96 100 104
3 104 108 112
3 128 132 120
3 132 136 120
3 136 140 152
3 140 144 152
3 144 148 152
3 184 188 192
3 208 212 200
3 212 216 200
3 216 220 232
3 220 224 232
3 232 236 248
3 236 240 248
3 240 244 248
3 248 252 264
3 252 256 264
3 288 292 280
3 292 296 280
3 296 300 304
3 328 332 336
3 336 340 328
3 340 344 328
3 352 356 344
3 356 360 344
3 392 396 408
3 396 400 408
3 408 412 424
3 412 416 424
3 416 420 424
3 440 444 456
3 444 448 456
3 448 452 456
3 456 460 472
3 460 464 472
3 496 500 488
3 500 8 488
3 8 16 40
3 16 24 40
3 24 32 40
3 56 64 40
3 64 72 40
3 88 96 104
3 104 112 120
3 152 160 136
3 160 168 136
3 168 176 184
3 184 192 168
3 192 200 168
3 264 272 296
3 272 280 296
3 296 304 328
3 304 312 328
3 312 320 328
3 360 368 392
3 368 376 392
3 376 384 392
3 424 432 456
3 432 440 456
3 472 480 456
3 480 488 456
3 72 88 104
3 104 120 168
3 120 136 168
3 200 216 232
3 232 248 264
3 328 344 296
3 344 360 296
3 392 408 360
3 408 424 360
3 488 8 40
3 40 72 488
3 72 104 488
3 168 200 232
3 232 264 296
3 424 456 488
3 104 168 232
3 232 296 360
3 360 424 232
3 424 488 232
