ply
format ascii 1.0
comment Created by Blender 3.5.1 - www.blender.org
element vertex 33
property float x
property float y
property float z
property float nx
property float ny
property float nz
element face 62
property list uchar uint vertex_indices
end_header
0.000000 10.000000 -10.000000 0.000000 0.864118 -0.503290
0.000000 0.000000 10.000000 0.000000 0.000000 1.000000
1.950903 9.807853 -10.000000 0.168581 0.847514 -0.503290
3.826835 9.238795 -10.000000 0.330684 0.798341 -0.503290
5.555702 8.314696 -10.000000 0.480078 0.718487 -0.503290
7.071068 7.071068 -10.000000 0.611023 0.611023 -0.503290
8.314696 5.555702 -10.000000 0.718488 0.480078 -0.503290
9.238795 3.826835 -10.000000 0.798341 0.330683 -0.503290
9.807853 1.950903 -10.000000 0.847514 0.168581 -0.503290
10.000000 0.000000 -10.000000 0.864118 -0.000000 -0.503290
9.807853 -1.950903 -10.000000 0.847514 -0.168581 -0.503290
9.238795 -3.826835 -10.000000 0.798341 -0.330683 -0.503290
8.314696 -5.555702 -10.000000 0.718487 -0.480078 -0.503290
7.071068 -7.071068 -10.000000 0.611023 -0.611023 -0.503290
5.555702 -8.314696 -10.000000 0.480078 -0.718488 -0.503290
3.826835 -9.238795 -10.000000 0.330683 -0.798341 -0.503290
1.950903 -9.807853 -10.000000 0.168581 -0.847514 -0.503290
0.000000 -10.000000 -10.000000 0.000000 -0.864118 -0.503290
-1.950903 -9.807853 -10.000000 -0.168581 -0.847514 -0.503290
-3.826835 -9.238795 -10.000000 -0.330684 -0.798341 -0.503290
-5.555702 -8.314696 -10.000000 -0.480078 -0.718488 -0.503290
-7.071068 -7.071068 -10.000000 -0.611023 -0.611023 -0.503290
-8.314696 -5.555702 -10.000000 -0.718488 -0.480078 -0.503290
-9.238795 -3.826835 -10.000000 -0.798341 -0.330683 -0.503290
-9.807853 -1.950903 -10.000000 -0.847514 -0.168581 -0.503290
-10.000000 0.000000 -10.000000 -0.864118 -0.000000 -0.503290
-9.807853 1.950903 -10.000000 -0.847514 0.168581 -0.503290
-9.238795 3.826835 -10.000000 -0.798341 0.330683 -0.503290
-8.314696 5.555702 -10.000000 -0.718488 0.480078 -0.503290
-7.071068 7.071068 -10.000000 -0.611023 0.611023 -0.503290
-5.555702 8.314696 -10.000000 -0.480078 0.718488 -0.503290
-3.826835 9.238795 -10.000000 -0.330683 0.798341 -0.503290
-1.950903 9.807853 -10.000000 -0.168581 0.847514 -0.503290
3 0 1 2
3 2 1 3
3 3 1 4
3 4 1 5
3 5 1 6
3 6 1 7
3 7 1 8
3 8 1 9
3 9 1 10
3 10 1 11
3 11 1 12
3 12 1 13
3 13 1 14
3 14 1 15
3 15 1 16
3 16 1 17
3 17 1 18
3 18 1 19
3 19 1 20
3 20 1 21
3 21 1 22
3 22 1 23
3 23 1 24
3 24 1 25
3 25 1 26
3 26 1 27
3 27 1 28
3 28 1 29
3 29 1 30
3 30 1 31
3 16 24 32
3 31 1 32
3 32 1 0
3 32 0 2
3 2 3 32
3 3 4 32
3 4 5 6
3 6 7 8
3 8 9 10
3 10 11 12
3 12 13 14
3 14 15 16
3 16 17 18
3 18 19 16
3 19 20 16
3 20 21 22
3 22 23 24
3 24 25 26
3 26 27 28
3 28 29 30
3 30 31 32
3 4 6 8
3 8 10 16
3 10 12 16
3 12 14 16
3 20 22 24
3 24 26 32
3 26 28 32
3 28 30 32
3 32 4 8
3 16 20 24
3 32 8 16
