ply
format ascii 1.0
comment Created by Blender 3.5.1 - www.blender.org
element vertex 8
property float x
property float y
property float z
property float nx
property float ny
property float nz
element face 6
property list uchar uint vertex_indices
end_header
-10.000000 -10.000000 10.000000 -0.577350 -0.577350 0.577350
-10.000000 10.000000 10.000000 -0.577350 0.577350 0.577350
-10.000000 10.000000 -10.000000 -0.577350 0.577350 -0.577350
-10.000000 -10.000000 -10.000000 -0.577350 -0.577350 -0.577350
10.000000 10.000000 -10.000000 0.577350 0.577350 -0.577350
10.000000 -10.000000 -10.000000 0.577350 -0.577350 -0.577350
10.000000 10.000000 10.000000 0.577350 0.577350 0.577350
10.000000 -10.000000 10.000000 0.577350 -0.577350 0.577350
4 0 1 2 3
4 3 2 4 5
4 5 4 6 7
4 7 6 1 0
4 3 5 7 0
4 4 2 1 6
