ply
format ascii 1.0
comment Created by Blender 3.5.1 - www.blender.org
element vertex 64
property float x
property float y
property float z
property float nx
property float ny
property float nz
element face 34
property list uchar uint vertex_indices
end_header
0.000000 -10.000000 -10.000000 0.000000 -0.685696 -0.727888
0.000000 10.000000 -10.000000 0.000000 0.685696 -0.727888
1.950903 10.000000 -9.807853 0.142004 0.685696 -0.713901
1.950903 -10.000000 -9.807853 0.142004 -0.685696 -0.713902
3.826835 10.000000 -9.238795 0.278551 0.685696 -0.672481
3.826835 -10.000000 -9.238795 0.278551 -0.685696 -0.672481
5.555702 10.000000 -8.314696 0.404393 0.685696 -0.605216
5.555702 -10.000000 -8.314696 0.404393 -0.685696 -0.605216
7.071068 10.000000 -7.071068 0.514694 0.685696 -0.514694
7.071068 -10.000000 -7.071068 0.514694 -0.685696 -0.514694
8.314696 10.000000 -5.555702 0.605216 0.685696 -0.404393
8.314696 -10.000000 -5.555702 0.605216 -0.685696 -0.404393
9.238795 10.000000 -3.826835 0.672481 0.685696 -0.278550
9.238795 -10.000000 -3.826835 0.672481 -0.685696 -0.278551
9.807853 10.000000 -1.950903 0.713902 0.685696 -0.142004
9.807853 -10.000000 -1.950903 0.713902 -0.685696 -0.142004
10.000000 10.000000 0.000000 0.727888 0.685696 0.000000
10.000000 -10.000000 0.000000 0.727888 -0.685696 0.000000
9.807853 10.000000 1.950903 0.713902 0.685696 0.142004
9.807853 -10.000000 1.950903 0.713902 -0.685696 0.142004
9.238795 10.000000 3.826835 0.672481 0.685696 0.278551
9.238795 -10.000000 3.826835 0.672481 -0.685696 0.278551
8.314696 10.000000 5.555702 0.605216 0.685696 0.404393
8.314696 -10.000000 5.555702 0.605216 -0.685696 0.404393
7.071068 10.000000 7.071068 0.514694 0.685696 0.514694
7.071068 -10.000000 7.071068 0.514694 -0.685696 0.514694
5.555702 10.000000 8.314696 0.404393 0.685696 0.605216
5.555702 -10.000000 8.314696 0.404393 -0.685696 0.605216
3.826835 10.000000 9.238795 0.278551 0.685696 0.672481
3.826835 -10.000000 9.238795 0.278551 -0.685696 0.672481
1.950903 10.000000 9.807853 0.142004 0.685696 0.713902
1.950903 -10.000000 9.807853 0.142004 -0.685696 0.713902
0.000000 10.000000 10.000000 0.000000 0.685696 0.727888
0.000000 -10.000000 10.000000 0.000000 -0.685696 0.727888
-1.950903 10.000000 9.807853 -0.142004 0.685696 0.713902
-1.950903 -10.000000 9.807853 -0.142004 -0.685696 0.713902
-3.826835 10.000000 9.238795 -0.278551 0.685696 0.672481
-3.826835 -10.000000 9.238795 -0.278551 -0.685696 0.672481
-5.555702 10.000000 8.314696 -0.404393 0.685696 0.605216
-5.555702 -10.000000 8.314696 -0.404393 -0.685696 0.605216
-7.071068 10.000000 7.071068 -0.514694 0.685696 0.514694
-7.071068 -10.000000 7.071068 -0.514694 -0.685696 0.514694
-8.314696 10.000000 5.555702 -0.605216 0.685696 0.404393
-8.314696 -10.000000 5.555702 -0.605216 -0.685696 0.404393
-9.238795 10.000000 3.826835 -0.672481 0.685696 0.278551
-9.238795 -10.000000 3.826835 -0.672481 -0.685696 0.278551
-9.807853 10.000000 1.950903 -0.713902 0.685696 0.142004
-9.807853 -10.000000 1.950903 -0.713902 -0.685696 0.142004
-10.000000 10.000000 0.000000 -0.727888 0.685696 0.000000
-10.000000 -10.000000 0.000000 -0.727888 -0.685696 0.000000
-9.807853 10.000000 -1.950903 -0.713902 0.685696 -0.142004
-9.807853 -10.000000 -1.950903 -0.713902 -0.685696 -0.142004
-9.238795 10.000000 -3.826835 -0.672481 0.685696 -0.278550
-9.238795 -10.000000 -3.826835 -0.672481 -0.685696 -0.278551
-8.314696 10.000000 -5.555702 -0.605216 0.685696 -0.404393
-8.314696 -10.000000 -5.555702 -0.605216 -0.685696 -0.404393
-7.071068 10.000000 -7.071068 -0.514694 0.685696 -0.514694
-7.071068 -10.000000 -7.071068 -0.514694 -0.685696 -0.514694
-5.555702 10.000000 -8.314696 -0.404393 0.685696 -0.605216
-5.555702 -10.000000 -8.314696 -0.404393 -0.685696 -0.605216
-3.826835 10.000000 -9.238795 -0.278551 0.685696 -0.672481
-3.826835 -10.000000 -9.238795 -0.278551 -0.685696 -0.672481
-1.950903 10.000000 -9.807853 -0.142004 0.685696 -0.713901
-1.950903 -10.000000 -9.807853 -0.142004 -0.685696 -0.713902
4 0 1 2 3
4 3 2 4 5
4 5 4 6 7
4 7 6 8 9
4 9 8 10 11
4 11 10 12 13
4 13 12 14 15
4 15 14 16 17
4 17 16 18 19
4 19 18 20 21
4 21 20 22 23
4 23 22 24 25
4 25 24 26 27
4 27 26 28 29
4 29 28 30 31
4 31 30 32 33
4 33 32 34 35
4 35 34 36 37
4 37 36 38 39
4 39 38 40 41
4 41 40 42 43
4 43 42 44 45
4 45 44 46 47
4 47 46 48 49
4 49 48 50 51
4 51 50 52 53
4 53 52 54 55
4 55 54 56 57
4 57 56 58 59
4 59 58 60 61
32 2 1 62 60 58 56 54 52 50 48 46 44 42 40 38 36 34 32 30 28 26 24 22 20 18 16 14 12 10 8 6 4
4 61 60 62 63
4 63 62 1 0
32 0 3 5 7 9 11 13 15 17 19 21 23 25 27 29 31 33 35 37 39 41 43 45 47 49 51 53 55 57 59 61 63
