# Blender 3.5.1
# www.blender.org
o Cone
v -2.760144 1.753759 0.841544
v -2.660468 1.586020 0.860467
v -2.570300 1.421221 0.916508
v -2.493106 1.265695 1.007514
v -2.431851 1.125419 1.129988
v -2.388891 1.005782 1.279222
v -2.365874 0.911383 1.449482
v -2.363687 0.845850 1.634225
v -2.382413 0.811700 1.826352
v -2.421333 0.810247 2.018478
v -2.478951 0.841546 2.203222
v -2.553052 0.904394 2.373482
v -2.640790 0.996376 2.522716
v -2.738791 1.113957 2.645190
v -2.843292 1.252619 2.736196
v -2.950274 1.407032 2.792237
v -3.055627 1.571264 2.811160
v -3.155303 1.739002 2.792237
v -3.245470 1.903801 2.736196
v -3.322664 2.059327 2.645190
v -3.383919 2.199604 2.522716
v -3.426880 2.319241 2.373482
v -3.449896 2.413640 2.203222
v -3.452083 2.479173 2.018478
v -3.433357 2.513322 1.826352
v -3.394437 2.514776 1.634225
v -3.336820 2.483477 1.449482
v -3.262718 2.420629 1.279222
v -3.174981 2.328647 1.129988
v -3.076979 2.211066 1.007514
v -2.972479 2.072404 0.916508
v -2.865497 1.917990 0.860467
v -1.232115 2.697489 2.173648
vn 0.5510 0.2372 -0.8001
vn 0.6364 0.0876 -0.7664
vn 0.7117 -0.0565 -0.7002
vn 0.7740 -0.1895 -0.6042
vn 0.8208 -0.3065 -0.4820
vn 0.8505 -0.4027 -0.3383
vn 0.8619 -0.4747 -0.1786
vn 0.8544 -0.5195 -0.0091
vn 0.8285 -0.5355 0.1638
vn 0.7851 -0.5221 0.3333
vn 0.7258 -0.4798 0.4930
vn 0.6530 -0.4101 0.6367
vn 0.5695 -0.3158 0.7589
vn 0.4784 -0.2006 0.8549
vn 0.3833 -0.0688 0.9211
vn 0.2877 0.0746 0.9548
vn 0.1955 0.2239 0.9548
vn 0.1101 0.3735 0.9211
vn 0.0348 0.5176 0.8549
vn -0.0274 0.6506 0.7589
vn -0.0743 0.7675 0.6367
vn -0.1040 0.8638 0.4930
vn -0.1153 0.9357 0.3333
vn -0.1079 0.9806 0.1638
vn -0.0820 0.9966 -0.0091
vn -0.0385 0.9832 -0.1786
vn 0.0207 0.9408 -0.3383
vn 0.0935 0.8712 -0.4820
vn 0.1771 0.7769 -0.6042
vn 0.2682 0.6617 -0.7002
vn -0.8379 -0.5175 -0.1736
vn 0.3633 0.5298 -0.7664
vn 0.4588 0.3865 -0.8001
s 0
f 1//1 33//1 2//1
f 2//2 33//2 3//2
f 3//3 33//3 4//3
f 4//4 33//4 5//4
f 5//5 33//5 6//5
f 6//6 33//6 7//6
f 7//7 33//7 8//7
f 8//8 33//8 9//8
f 9//9 33//9 10//9
f 10//10 33//10 11//10
f 11//11 33//11 12//11
f 12//12 33//12 13//12
f 13//13 33//13 14//13
f 14//14 33//14 15//14
f 15//15 33//15 16//15
f 16//16 33//16 17//16
f 17//17 33//17 18//17
f 18//18 33//18 19//18
f 19//19 33//19 20//19
f 20//20 33//20 21//20
f 21//21 33//21 22//21
f 22//22 33//22 23//22
f 23//23 33//23 24//23
f 24//24 33//24 25//24
f 25//25 33//25 26//25
f 26//26 33//26 27//26
f 27//27 33//27 28//27
f 28//28 33//28 29//28
f 29//29 33//29 30//29
f 30//30 33//30 31//30
f 16//31 24//31 32//31
f 31//32 33//32 32//32
f 32//33 33//33 1//33
f 32//31 1//31 2//31
f 2//31 3//31 4//31
f 4//31 5//31 6//31
f 6//31 7//31 8//31
f 8//31 9//31 10//31
f 10//31 11//31 12//31
f 12//31 13//31 14//31
f 14//31 15//31 16//31
f 16//31 17//31 18//31
f 18//31 19//31 20//31
f 20//31 21//31 22//31
f 22//31 23//31 24//31
f 24//31 25//31 26//31
f 26//31 27//31 28//31
f 28//31 29//31 30//31
f 30//31 31//31 32//31
f 32//31 2//31 4//31
f 4//31 6//31 8//31
f 8//31 10//31 12//31
f 12//31 14//31 16//31
f 16//31 18//31 20//31
f 20//31 22//31 24//31
f 24//31 26//31 28//31
f 28//31 30//31 32//31
f 32//31 4//31 8//31
f 8//31 12//31 16//31
f 16//31 20//31 24//31
f 24//31 28//31 32//31
f 32//31 8//31 16//31
