# Blender v3.5.1 OBJ File: 'pcd_creation.blend'
# www.blender.org
mtllib rotated_cone_legacy.mtl
o Cone
v -2.760144 1.753759 0.841544
v -2.660468 1.586020 0.860467
v -2.570300 1.421221 0.916508
v -2.493106 1.265695 1.007514
v -2.431851 1.125419 1.129988
v -2.388891 1.005782 1.279222
v -2.365874 0.911383 1.449482
v -2.363687 0.845850 1.634225
v -2.382413 0.811700 1.826352
v -2.421333 0.810247 2.018478
v -2.478951 0.841546 2.203222
v -2.553052 0.904394 2.373482
v -2.640790 0.996376 2.522716
v -2.738791 1.113957 2.645190
v -2.843292 1.252619 2.736196
v -2.950274 1.407032 2.792237
v -3.055627 1.571264 2.811160
v -3.155303 1.739002 2.792237
v -3.245470 1.903801 2.736196
v -3.322664 2.059327 2.645190
v -3.383919 2.199604 2.522716
v -3.426880 2.319241 2.373482
v -3.449896 2.413640 2.203222
v -3.452083 2.479173 2.018478
v -3.433357 2.513322 1.826352
v -3.394437 2.514776 1.634225
v -3.336820 2.483477 1.449482
v -3.262718 2.420629 1.279222
v -3.174981 2.328647 1.129988
v -3.076979 2.211066 1.007514
v -2.972479 2.072404 0.916508
v -2.865497 1.917990 0.860467
v -1.232115 2.697489 2.173648
vt 0.250000 0.490000
vt 0.250000 0.250000
vt 0.296822 0.485388
vt 0.341844 0.471731
vt 0.383337 0.449553
vt 0.419706 0.419706
vt 0.449553 0.383337
vt 0.471731 0.341844
vt 0.485388 0.296822
vt 0.490000 0.250000
vt 0.485388 0.203178
vt 0.471731 0.158156
vt 0.449553 0.116663
vt 0.419706 0.080294
vt 0.383337 0.050447
vt 0.341844 0.028269
vt 0.296822 0.014612
vt 0.250000 0.010000
vt 0.203178 0.014612
vt 0.158156 0.028269
vt 0.116663 0.050447
vt 0.080294 0.080294
vt 0.050447 0.116663
vt 0.028269 0.158156
vt 0.014612 0.203178
vt 0.010000 0.250000
vt 0.014612 0.296822
vt 0.028269 0.341844
vt 0.050447 0.383337
vt 0.080294 0.419706
vt 0.116663 0.449553
vt 0.158156 0.471731
vt 0.750000 0.490000
vt 0.796822 0.485388
vt 0.841844 0.471731
vt 0.883337 0.449553
vt 0.919706 0.419706
vt 0.949553 0.383337
vt 0.971731 0.341844
vt 0.985388 0.296822
vt 0.990000 0.250000
vt 0.985388 0.203178
vt 0.971731 0.158156
vt 0.949553 0.116663
vt 0.919706 0.080294
vt 0.883337 0.050447
vt 0.841844 0.028269
vt 0.796822 0.014612
vt 0.750000 0.010000
vt 0.703178 0.014612
vt 0.658156 0.028269
vt 0.616663 0.050447
vt 0.580294 0.080294
vt 0.550447 0.116663
vt 0.528269 0.158156
vt 0.514612 0.203178
vt 0.510000 0.250000
vt 0.514612 0.296822
vt 0.528269 0.341844
vt 0.550447 0.383337
vt 0.580294 0.419706
vt 0.616663 0.449553
vt 0.658156 0.471731
vt 0.703178 0.485388
vt 0.203178 0.485388
vn 0.5510 0.2372 -0.8001
vn 0.6364 0.0876 -0.7664
vn 0.7117 -0.0565 -0.7002
vn 0.7740 -0.1895 -0.6042
vn 0.8208 -0.3065 -0.4820
vn 0.8505 -0.4027 -0.3383
vn 0.8619 -0.4747 -0.1786
vn 0.8544 -0.5195 -0.0091
vn 0.8285 -0.5355 0.1638
vn 0.7851 -0.5221 0.3333
vn 0.7258 -0.4798 0.4930
vn 0.6530 -0.4101 0.6367
vn 0.5695 -0.3158 0.7589
vn 0.4784 -0.2006 0.8549
vn 0.3833 -0.0688 0.9211
vn 0.2877 0.0746 0.9548
vn 0.1955 0.2239 0.9548
vn 0.1101 0.3735 0.9211
vn 0.0348 0.5176 0.8549
vn -0.0274 0.6506 0.7589
vn -0.0743 0.7675 0.6367
vn -0.1040 0.8638 0.4930
vn -0.1153 0.9357 0.3333
vn -0.1079 0.9806 0.1638
vn -0.0820 0.9966 -0.0091
vn -0.0385 0.9832 -0.1786
vn 0.0207 0.9408 -0.3383
vn 0.0935 0.8712 -0.4820
vn 0.1771 0.7769 -0.6042
vn 0.2682 0.6617 -0.7002
vn -0.8379 -0.5175 -0.1736
vn 0.3633 0.5298 -0.7664
vn 0.4588 0.3865 -0.8001
usemtl None
s off
f 1/1/1 33/2/1 2/3/1
f 2/3/2 33/2/2 3/4/2
f 3/4/3 33/2/3 4/5/3
f 4/5/4 33/2/4 5/6/4
f 5/6/5 33/2/5 6/7/5
f 6/7/6 33/2/6 7/8/6
f 7/8/7 33/2/7 8/9/7
f 8/9/8 33/2/8 9/10/8
f 9/10/9 33/2/9 10/11/9
f 10/11/10 33/2/10 11/12/10
f 11/12/11 33/2/11 12/13/11
f 12/13/12 33/2/12 13/14/12
f 13/14/13 33/2/13 14/15/13
f 14/15/14 33/2/14 15/16/14
f 15/16/15 33/2/15 16/17/15
f 16/17/16 33/2/16 17/18/16
f 17/18/17 33/2/17 18/19/17
f 18/19/18 33/2/18 19/20/18
f 19/20/19 33/2/19 20/21/19
f 20/21/20 33/2/20 21/22/20
f 21/22/21 33/2/21 22/23/21
f 22/23/22 33/2/22 23/24/22
f 23/24/23 33/2/23 24/25/23
f 24/25/24 33/2/24 25/26/24
f 25/26/25 33/2/25 26/27/25
f 26/27/26 33/2/26 27/28/26
f 27/28/27 33/2/27 28/29/27
f 28/29/28 33/2/28 29/30/28
f 29/30/29 33/2/29 30/31/29
f 30/31/30 33/2/30 31/32/30
f 1/33/31 2/34/31 3/35/31 4/36/31 5/37/31 6/38/31 7/39/31 8/40/31 9/41/31 10/42/31 11/43/31 12/44/31 13/45/31 14/46/31 15/47/31 16/48/31 17/49/31 18/50/31 19/51/31 20/52/31 21/53/31 22/54/31 23/55/31 24/56/31 25/57/31 26/58/31 27/59/31 28/60/31 29/61/31 30/62/31 31/63/31 32/64/31
f 31/32/32 33/2/32 32/65/32
f 32/65/33 33/2/33 1/1/33
