ply
format ascii 1.0
comment Created by Blender 3.5.1 - www.blender.org
element vertex 576
property float x
property float y
property float z
property float nx
property float ny
property float nz
element face 576
property list uchar uint vertex_indices
end_header
0.425041 1.907367 2.285630 -0.963967 0.053894 0.260505
0.420567 1.745717 2.261466 -0.967547 -0.075426 0.241173
0.484238 1.729504 2.372956 -0.716575 -0.139785 0.683359
0.488592 1.886823 2.396473 -0.713466 -0.027448 0.700152
0.595662 1.722688 2.438416 -0.276076 -0.167444 0.946438
0.599689 1.868174 2.460165 -0.274257 -0.101749 0.956258
0.724982 1.727096 2.440308 0.239668 -0.150716 0.959085
0.728562 1.856416 2.459640 0.239707 -0.149321 0.959293
0.837548 1.741545 2.378123 0.693640 -0.093430 0.714237
0.840680 1.854700 2.395038 0.691880 -0.157033 0.704729
0.903198 1.762165 2.268525 0.961504 -0.010550 0.274589
0.906002 1.863487 2.283671 0.958414 -0.122189 0.257901
0.904340 1.783430 2.140880 0.967547 0.075426 -0.241173
0.907025 1.880420 2.155378 0.963967 -0.053894 -0.260504
0.840669 1.799643 2.029390 0.709025 0.140778 -0.690989
0.843473 1.900964 2.044536 0.705935 0.029138 -0.707677
0.729245 1.806458 1.963929 0.258092 0.167623 -0.951468
0.732377 1.919614 1.980844 0.256331 0.104020 -0.960976
0.599924 1.802051 1.962038 -0.260535 0.149089 -0.953884
0.603504 1.931372 1.981369 -0.260496 0.150484 -0.953675
0.487358 1.787602 2.024223 -0.706954 0.090810 -0.701406
0.491385 1.933087 2.045970 -0.705135 0.156505 -0.691586
0.421709 1.766982 2.133821 -0.964385 0.008744 -0.264359
0.426063 1.924301 2.157338 -0.961275 0.121080 -0.247566
0.436786 1.585680 2.232144 -0.954571 -0.203456 0.217715
0.500023 1.573755 2.344419 -0.705304 -0.251001 0.662982
0.610259 1.578655 2.412026 -0.269484 -0.232483 0.934521
0.737958 1.599066 2.416850 0.239809 -0.152096 0.958832
0.848902 1.629519 2.357598 0.687259 -0.030461 0.725774
0.913364 1.661854 2.250146 0.950302 0.099976 0.294840
0.914072 1.687408 2.123286 0.954571 0.203456 -0.217715
0.850835 1.699332 2.011011 0.697823 0.251304 -0.670738
0.740599 1.694432 1.943404 0.251710 0.230592 -0.939931
0.612900 1.674021 1.938580 -0.260395 0.147709 -0.954137
0.501956 1.643568 1.997832 -0.700362 0.025771 -0.713323
0.437494 1.611233 2.105284 -0.953113 -0.102472 -0.284737
0.473422 1.429994 2.198165 -0.925262 -0.328005 0.190532
0.535677 1.422241 2.311351 -0.679844 -0.359193 0.639369
0.643232 1.438538 2.381445 -0.254595 -0.295754 0.920712
0.767267 1.474517 2.389667 0.240125 -0.153439 0.958539
0.874547 1.520539 2.333812 0.672844 0.030795 0.739143
0.936327 1.564271 2.228848 0.925001 0.207496 0.318307
0.936053 1.593996 2.102899 0.925262 0.328005 -0.190532
0.873798 1.601749 1.989713 0.672521 0.358824 -0.647272
0.766244 1.585452 1.919618 0.237295 0.291848 -0.926561
0.642209 1.549473 1.911397 -0.260079 0.146365 -0.954430
0.534928 1.503451 1.967251 -0.685473 -0.037500 -0.727132
0.473148 1.459719 2.072216 -0.927654 -0.210664 -0.308350
0.529847 1.281323 2.160111 -0.880122 -0.446941 0.160089
0.590590 1.277554 2.274316 -0.640632 -0.462509 0.612924
0.694014 1.304734 2.347197 -0.231664 -0.356174 0.905247
0.812407 1.355581 2.359224 0.240611 -0.154722 0.958211
0.914045 1.416470 2.307174 0.650642 0.089292 0.754116
0.971694 1.471085 2.204996 0.886032 0.310172 0.344588
0.969908 1.504794 2.080066 0.880122 0.446941 -0.160088
0.909165 1.508563 1.965861 0.633553 0.461499 -0.620991
0.805741 1.481383 1.892981 0.215094 0.350344 -0.911588
0.687349 1.430536 1.880954 -0.259592 0.145083 -0.954758
0.585711 1.369648 1.933003 -0.662542 -0.097920 -0.742597
0.528061 1.315032 2.035181 -0.888442 -0.313981 -0.334795
0.605096 1.142212 2.118633 -0.819923 -0.558230 0.126906
0.663823 1.142170 2.233950 -0.588338 -0.559183 0.584099
0.761738 1.179534 2.309866 -0.201083 -0.412708 0.888390
0.872606 1.244292 2.326041 0.241260 -0.155922 0.957853
0.966719 1.319092 2.278140 0.621035 0.144026 0.770436
1.018860 1.383891 2.178998 0.834063 0.406246 0.373233
1.015058 1.421327 2.055180 0.819923 0.558230 -0.126906
0.956331 1.421369 1.939863 0.581584 0.557573 -0.592345
0.858416 1.384005 1.863946 0.185486 0.405079 -0.895268
0.747548 1.319247 1.847771 -0.258943 0.143883 -0.955116
0.653435 1.244448 1.895673 -0.631961 -0.154455 -0.759453
0.601294 1.179648 1.994815 -0.836148 -0.410655 -0.363620
0.697882 1.015040 2.074440 -0.745694 -0.659968 0.091552
0.754122 1.018406 2.190942 -0.523859 -0.647560 0.553388
0.845245 1.065079 2.270093 -0.163375 -0.464391 0.870431
0.946834 1.142554 2.290688 0.242060 -0.157019 0.957472
1.031669 1.230071 2.247205 0.584527 0.194064 0.787824
1.077018 1.304180 2.151298 0.769983 0.494074 0.403753
1.070729 1.345024 2.028664 0.745695 0.659968 -0.091553
1.014488 1.341658 1.912163 0.517504 0.645401 -0.561825
0.923365 1.294985 1.833011 0.148979 0.455116 -0.877881
0.821776 1.217510 1.812418 -0.258142 0.142786 -0.955497
0.736942 1.129993 1.855900 -0.594253 -0.206138 -0.777413
0.691593 1.055884 1.951807 -0.771668 -0.499031 -0.394330
0.806616 0.901984 2.028290 -0.658707 -0.750413 0.054632
0.859943 0.908379 2.146028 -0.448296 -0.726127 0.521317
0.943106 0.963328 2.228558 -0.119185 -0.510338 0.851675
1.033822 1.052109 2.253767 0.242999 -0.157994 0.957073
1.107783 1.150932 2.214900 0.541745 0.238547 0.805983
1.145171 1.233317 2.122371 0.694889 0.572154 0.435626
1.135969 1.277190 2.000974 0.658707 0.750413 -0.054632
1.082642 1.270795 1.883237 0.442410 0.723481 -0.529952
0.999479 1.215845 1.800706 0.106196 0.499600 -0.859722
0.908764 1.127064 1.775497 -0.257204 0.141811 -0.955895
0.834802 1.028242 1.814364 -0.550063 -0.252084 -0.796169
0.797414 0.945856 1.906893 -0.696105 -0.577598 -0.426402
0.929439 0.804976 1.980971 -0.560449 -0.828019 0.016777
0.979475 0.813971 2.099977 -0.362942 -0.793541 0.488433
1.053646 0.876022 2.185971 -0.069270 -0.549761 0.832445
1.132080 0.974503 2.215912 0.244058 -0.158831 0.956665
1.193759 1.083027 2.181777 0.493419 0.276716 0.824601
1.222156 1.172513 2.092712 0.610065 0.639149 0.468305
1.209663 1.218986 1.972583 0.560449 0.828019 -0.016777
1.159627 1.209991 1.853577 0.357585 0.790476 -0.497272
1.085455 1.147940 1.767583 0.057870 0.537769 -0.841104
1.007022 1.049459 1.737642 -0.256145 0.140974 -0.956303
0.945343 0.940935 1.771777 -0.500148 -0.291508 -0.815399
0.916946 0.851448 1.860842 -0.610751 -0.645012 -0.459285
1.064248 0.725679 1.933294 -0.452602 -0.891457 -0.021365
1.110671 0.736798 2.053577 -0.269258 -0.848647 0.455300
1.174975 0.804654 2.143061 -0.014483 -0.581988 0.813068
1.239927 0.911065 2.177770 0.245221 -0.159515 0.956254
1.288125 1.027519 2.148403 0.440376 0.307916 0.843360
1.306654 1.122810 2.062828 0.516962 0.693913 0.501233
1.290549 1.171407 1.943976 0.452602 0.891457 0.021365
1.244125 1.160288 1.823693 0.264483 0.845241 -0.464345
1.179822 1.092432 1.734209 0.004828 0.568969 -0.822344
1.114869 0.986021 1.699500 -0.254982 0.140290 -0.956715
1.066671 0.869568 1.728868 -0.445361 -0.323734 -0.834775
1.048142 0.774276 1.814442 -0.517067 -0.700119 -0.492418
1.208737 0.665448 1.886073 -0.337010 -0.939642 -0.059141
1.251290 0.678181 2.007622 -0.168847 -0.890504 0.422485
1.305015 0.750446 2.100563 0.044237 -0.606466 0.793878
1.355519 0.862880 2.139993 0.246468 -0.160034 0.955847
1.389268 0.985357 2.115348 0.383525 0.331615 0.861940
1.397219 1.085058 2.033231 0.417174 0.735510 0.533845
1.377242 1.135269 1.915644 0.337010 0.939642 0.059141
1.334690 1.122535 1.794096 0.164694 0.886838 -0.431733
1.280964 1.050270 1.701154 -0.052024 0.592668 -0.803765
1.230461 0.937836 1.661724 -0.253735 0.139770 -0.957122
1.196712 0.815360 1.686369 -0.386641 -0.348212 -0.853966
1.188761 0.715659 1.768486 -0.416656 -0.741976 -0.525233
1.360435 0.625314 1.840117 -0.215652 -0.971749 -0.095906
1.398923 0.639122 1.962897 -0.063426 -0.918395 0.390548
1.441543 0.714325 2.059203 0.105888 -0.622776 0.775202
1.476877 0.830773 2.103229 0.247776 -0.160380 0.955450
1.495456 0.957263 2.083179 0.323838 0.347406 0.880022
1.492303 1.059902 2.004426 0.312408 0.763228 0.565583
1.468261 1.111188 1.888070 0.215652 0.971749 0.095906
1.429774 1.097380 1.765291 0.059928 0.914556 -0.399995
1.387153 1.022176 1.668985 -0.111711 0.608459 -0.785683
1.351819 0.905729 1.624959 -0.252427 0.139424 -0.957518
1.333240 0.779239 1.645009 -0.324991 -0.364522 -0.872642
1.336394 0.676600 1.723762 -0.311235 -0.769866 -0.557170
1.516745 0.605963 1.796213 -0.090604 -0.987229 -0.131030
1.551044 0.620290 1.920169 0.045200 -0.931843 0.360037
1.582222 0.696910 2.019689 0.169412 -0.630641 0.757358
1.601925 0.815293 2.068105 0.249125 -0.160547 0.955071
1.604873 0.943717 2.052446 0.262336 0.355020 0.897297
1.590277 1.047773 1.976907 0.204456 0.776592 0.595905
1.562047 1.099578 1.861728 0.090604 0.987229 0.131030
1.527748 1.085251 1.737772 -0.048023 0.927920 -0.369674
1.496570 1.008631 1.638252 -0.173213 0.616073 -0.768409
1.476867 0.890248 1.589835 -0.251078 0.139257 -0.957897
1.473918 0.761823 1.605495 -0.261466 -0.372387 -0.890485
1.488515 0.657768 1.681034 -0.202610 -0.783314 -0.587681
1.674992 0.607727 1.755111 0.035994 -0.985818 -0.163911
1.705051 0.622007 1.880168 0.155172 -0.930616 0.331474
1.724645 0.698498 1.982697 0.233724 -0.629924 0.740654
1.728523 0.816704 2.035223 0.250490 -0.160533 0.954717
1.715647 0.944952 2.023674 0.200071 0.354326 0.913469
1.689466 1.048879 1.951144 0.095167 0.775374 0.624290
1.656996 1.100636 1.837066 -0.035994 0.985818 0.163911
1.626937 1.086357 1.712009 -0.157313 0.926701 -0.341287
1.607343 1.009866 1.609481 -0.235477 0.615379 -0.752236
1.603465 0.891659 1.556954 -0.249713 0.139272 -0.958252
1.616342 0.763411 1.568503 -0.197154 -0.371670 -0.907189
1.642522 0.659485 1.641033 -0.092638 -0.782088 -0.616244
1.832470 0.630576 1.717514 0.161976 -0.967539 -0.193988
1.858309 0.644243 1.843579 0.264608 -0.914738 0.305347
1.866375 0.719061 1.948860 0.297723 -0.620638 0.725376
1.854505 0.834983 2.005147 0.251848 -0.160335 0.954393
1.825881 0.960946 1.997357 0.138110 0.345335 0.928261
1.788172 1.063200 1.927579 -0.013591 0.759594 0.650255
1.751482 1.114345 1.814509 -0.161976 0.967539 0.193988
1.725643 1.100678 1.688444 -0.266070 0.910922 -0.315323
1.717577 1.025860 1.583163 -0.297438 0.606389 -0.737444
1.729447 0.909938 1.526876 -0.248355 0.139469 -0.958576
1.758071 0.783975 1.534666 -0.133155 -0.362384 -0.922468
1.795780 0.681721 1.604444 0.016799 -0.766209 -0.642372
1.986484 0.674118 1.684067 0.285187 -0.932705 -0.220746
2.008196 0.686619 1.811028 0.371639 -0.884479 0.282103
2.004987 0.758249 1.918757 0.360314 -0.602942 0.711782
1.977716 0.869817 1.978389 0.253177 -0.159960 0.954104
1.933690 0.991426 1.973944 0.077512 0.328203 0.941421
1.884707 1.090492 1.906614 -0.119956 0.729523 0.673355
1.843890 1.140471 1.794440 -0.285187 0.932705 0.220746
1.822178 1.127970 1.667479 -0.372436 0.880850 -0.292223
1.825387 1.056339 1.559750 -0.358037 0.589257 -0.724283
1.852658 0.944772 1.500118 -0.247026 0.139845 -0.958865
1.896684 0.823163 1.504563 -0.070564 -0.344689 -0.936061
1.945667 0.724097 1.571893 0.123829 -0.735950 -0.665615
2.134397 0.737609 1.655341 0.403518 -0.881913 -0.243727
2.152147 0.748408 1.783072 0.474429 -0.840356 0.262141
2.138109 0.815391 1.892904 0.420427 -0.577139 0.700108
2.096047 0.920609 1.955408 0.254453 -0.159412 0.953856
2.037230 1.035869 1.953835 0.019313 0.303222 0.952724
1.977418 1.130288 1.888609 -0.222109 0.685674 0.693194
1.932638 1.178565 1.777205 -0.403518 0.881913 0.243727
1.914889 1.167766 1.649474 -0.474589 0.837002 -0.272384
1.928926 1.100783 1.539642 -0.416235 0.564275 -0.712981
1.970989 0.995565 1.477138 -0.245750 0.140393 -0.959112
2.029806 0.880305 1.478710 -0.010451 -0.318886 -0.947736
2.089617 0.785886 1.543937 0.226620 -0.691828 -0.685578
2.273681 0.819962 1.631828 0.514945 -0.816030 -0.262538
2.287698 0.828555 1.760188 0.571223 -0.783126 0.245800
2.263465 0.889509 1.871742 0.477032 -0.543671 0.690552
2.207474 0.986492 1.936597 0.255654 -0.158702 0.953653
2.134728 1.093517 1.937376 -0.035490 0.270819 0.961976
2.064721 1.181906 1.873871 -0.318303 0.628799 0.709433
2.016209 1.227977 1.763096 -0.514945 0.816030 0.262538
2.002192 1.219384 1.634736 -0.570782 0.780127 -0.256146
2.026425 1.158430 1.523182 -0.471038 0.531873 -0.703729
2.082416 1.061447 1.458327 -0.244549 0.141103 -0.959315
2.155161 0.954422 1.457548 0.046153 -0.285417 -0.957291
2.225169 0.866033 1.521053 0.323413 -0.634598 -0.701918
2.401951 0.919768 1.613929 0.617561 -0.736185 -0.276856
2.412531 0.925687 1.742770 0.660362 -0.713767 0.233362
2.378908 0.979335 1.855633 0.529161 -0.503110 0.683278
2.310090 1.066337 1.922278 0.256761 -0.157841 0.953499
2.224518 1.163381 1.924847 -0.085959 0.231550 0.969018
2.145120 1.244465 1.862652 -0.406889 0.559871 0.721794
2.093171 1.287861 1.752358 -0.617561 0.736185 0.276857
2.082591 1.281942 1.623517 -0.659368 0.711198 -0.243784
2.116214 1.228294 1.510653 -0.521507 0.492602 -0.696687
2.185032 1.141292 1.444008 -0.243442 0.141964 -0.959470
2.270605 1.044248 1.441439 0.098283 -0.244856 -0.964565
2.350003 0.963165 1.503635 0.412553 -0.565239 -0.714356
2.517013 1.035320 1.601953 0.709610 -0.643744 -0.286438
2.524510 1.038142 1.731114 0.740323 -0.633466 0.225039
2.482463 1.083331 1.844854 0.575922 -0.456150 0.678411
2.402139 1.158778 1.912697 0.257753 -0.156844 0.953396
2.305061 1.244267 1.916464 -0.131231 0.186084 0.973731
2.217240 1.316892 1.855145 -0.486353 0.480068 0.730065
2.162208 1.357192 1.745172 -0.709610 0.643744 0.286438
2.154711 1.354369 1.616010 -0.738832 0.631396 -0.235513
2.196757 1.309180 1.502270 -0.566780 0.447137 -0.691975
2.277081 1.233733 1.434427 -0.242450 0.142961 -0.959573
2.374160 1.148244 1.430660 0.145044 -0.197896 -0.969433
2.461981 1.075620 1.491979 0.492513 -0.484938 -0.722679
2.616897 1.164639 1.596102 0.789518 -0.540289 -0.291118
2.621718 1.163997 1.725420 0.809736 -0.543597 0.220974
2.572359 1.199719 1.839589 0.616515 -0.403594 0.676033
2.482047 1.262234 1.908017 0.258615 -0.155728 0.953345
2.374980 1.334791 1.912368 -0.170532 0.135202 0.976032
2.279847 1.397948 1.851478 -0.555336 0.390757 0.734106
2.222138 1.434783 1.741661 -0.789518 0.540289 0.291118
2.217318 1.435426 1.612343 -0.807815 0.542084 -0.231472
2.266676 1.399704 1.498174 -0.606081 0.396255 -0.689672
2.356989 1.337189 1.429747 -0.241588 0.144077 -0.959623
2.464056 1.264632 1.425395 0.185637 -0.145340 -0.971810
2.559189 1.201474 1.486285 0.561927 -0.395069 -0.726745
2.699896 1.305515 1.596478 0.855917 -0.427588 -0.290818
2.702493 1.301098 1.725786 0.867415 -0.445698 0.221235
2.647058 1.326507 1.839927 0.650246 -0.346342 0.676186
2.548446 1.374934 1.908317 0.259331 -0.154513 0.953348
2.433079 1.433404 1.912631 -0.203189 0.079773 0.975885
2.331870 1.486249 1.851714 -0.612656 0.293465 0.733846
2.271938 1.519309 1.741887 -0.855917 0.427588 0.290817
2.269341 1.523726 1.612579 -0.865136 0.444792 -0.231732
2.324775 1.498317 1.498438 -0.638738 0.340826 -0.689820
2.423388 1.449890 1.430047 -0.240872 0.145292 -0.959620
2.538755 1.391420 1.425733 0.219368 -0.088088 -0.971658
2.639964 1.338575 1.486651 0.619606 -0.297169 -0.726484
2.764589 1.455536 1.603074 0.907671 -0.307572 -0.285541
2.765452 1.447099 1.732205 0.912372 -0.341443 0.225818
2.705281 1.461526 1.845863 0.676536 -0.285374 0.678867
2.600200 1.494951 1.913594 0.259889 -0.153219 0.953405
2.478364 1.538418 1.917248 -0.228643 0.020745 0.973289
2.372419 1.580281 1.855848 -0.657335 0.189857 0.729291
2.310753 1.609321 1.745844 -0.907671 0.307572 0.285541
2.309890 1.617759 1.616713 -0.909814 0.341184 -0.236287
2.370060 1.603332 1.503055 -0.664192 0.281799 -0.692415
2.475142 1.569906 1.435324 -0.240314 0.146586 -0.959563
2.596978 1.526439 1.431669 0.245659 -0.027120 -0.968977
2.702923 1.484576 1.493070 0.664563 -0.192914 -0.721901
2.809868 1.612134 1.615777 0.943894 -0.182292 -0.275379
2.809518 1.599501 1.744568 0.943838 -0.232616 0.234646
2.746033 1.602464 1.857296 0.694938 -0.221731 0.684029
2.636423 1.620230 1.923756 0.260279 -0.151868 0.953515
2.510059 1.648037 1.926141 -0.246459 -0.040870 0.968291
2.400800 1.678436 1.863810 -0.688606 0.081706 0.720518
2.337921 1.703281 1.753466 -0.943894 0.182292 0.275379
2.338271 1.715914 1.624675 -0.941085 0.233033 -0.245060
2.401756 1.712951 1.511947 -0.682007 0.220183 -0.697414
2.511365 1.695185 1.445486 -0.239923 0.147937 -0.959454
2.637729 1.667378 1.443102 0.264060 0.036522 -0.963814
2.746989 1.636979 1.505433 0.696029 -0.084087 -0.713073
2.834959 1.772632 1.634369 0.963967 -0.053894 -0.260505
2.833937 1.755699 1.762662 0.961275 -0.121080 0.247566
2.768615 1.746912 1.874029 0.705135 -0.156505 0.691585
2.656496 1.748628 1.938630 0.260496 -0.150483 0.953675
2.527623 1.760386 1.939155 -0.256331 -0.104020 0.960976
2.416527 1.779035 1.875464 -0.705934 -0.029138 0.707678
2.352975 1.799579 1.764621 -0.963967 0.053893 0.260504
2.353998 1.816513 1.636329 -0.958414 0.122189 -0.257901
2.419320 1.825299 1.524961 -0.691880 0.157033 -0.704729
2.531438 1.823584 1.460360 -0.239707 0.149321 -0.959293
2.660311 1.811826 1.459835 0.274258 0.101749 -0.956258
2.771408 1.793176 1.523527 0.713466 0.027448 -0.700152
2.839433 1.934283 1.658534 0.967547 0.075426 -0.241174
2.838291 1.913018 1.786179 0.964385 -0.008744 0.264359
2.772642 1.892398 1.895777 0.706954 -0.090811 0.701406
2.660076 1.877949 1.957962 0.260535 -0.149089 0.953884
2.530755 1.873541 1.956070 -0.258091 -0.167623 0.951468
2.419331 1.880357 1.890610 -0.709024 -0.140778 0.690989
2.355660 1.896570 1.779120 -0.967546 -0.075427 0.241173
2.356802 1.917835 1.651475 -0.961504 0.010550 -0.274589
2.422451 1.938455 1.541877 -0.693640 0.093430 -0.714237
2.535017 1.952904 1.479692 -0.239669 0.150716 -0.959085
2.664338 1.957312 1.481583 0.276075 0.167443 -0.946438
2.775762 1.950496 1.547044 0.716575 0.139785 -0.683360
2.823214 2.094320 1.687856 0.954571 0.203456 -0.217715
2.822506 2.068767 1.814716 0.953113 0.102472 0.284737
2.758044 2.036431 1.922167 0.700362 -0.025771 0.713323
2.647100 2.005978 1.981420 0.260395 -0.147709 0.954137
2.519401 1.985567 1.976596 -0.251710 -0.230592 0.939931
2.409165 1.980668 1.908989 -0.697822 -0.251304 0.670739
2.345928 1.992592 1.796714 -0.954571 -0.203456 0.217715
2.346636 2.018145 1.669854 -0.950302 -0.099975 -0.294840
2.411098 2.050481 1.562402 -0.687258 0.030462 -0.725774
2.522042 2.080934 1.503150 -0.239808 0.152096 -0.958832
2.649741 2.101345 1.507973 0.269484 0.232482 -0.934522
2.759977 2.106245 1.575581 0.705304 0.251000 -0.662982
2.786578 2.250005 1.721835 0.925262 0.328005 -0.190532
2.786852 2.220281 1.847784 0.927653 0.210664 0.308350
2.725072 2.176548 1.952748 0.685473 0.037500 0.727132
2.617792 2.130527 2.008603 0.260079 -0.146365 0.954430
2.493756 2.094547 2.000381 -0.237295 -0.291848 0.926561
2.386202 2.078250 1.930287 -0.672522 -0.358824 0.647271
2.323947 2.086003 1.817101 -0.925263 -0.328004 0.190532
2.323673 2.115728 1.691152 -0.925001 -0.207496 -0.318306
2.385453 2.159461 1.586187 -0.672844 -0.030795 -0.739144
2.492733 2.205482 1.530333 -0.240125 0.153439 -0.958539
2.616769 2.241462 1.538554 0.254595 0.295754 -0.920712
2.724323 2.257758 1.608649 0.679844 0.359193 -0.639369
2.730153 2.398676 1.759889 0.880122 0.446941 -0.160089
2.731939 2.364968 1.884818 0.888442 0.313980 0.334795
2.674289 2.310352 1.986997 0.662542 0.097919 0.742597
2.572651 2.249463 2.039046 0.259592 -0.145083 0.954758
2.454259 2.198617 2.027019 -0.215094 -0.350344 0.911589
2.350835 2.171437 1.954139 -0.633553 -0.461499 0.620991
2.290092 2.175206 1.839933 -0.880122 -0.446941 0.160089
2.288306 2.208914 1.715004 -0.886032 -0.310172 -0.344588
2.345955 2.263530 1.612825 -0.650642 -0.089291 -0.754116
2.447593 2.324419 1.560776 -0.240611 0.154722 -0.958210
2.565986 2.375265 1.572803 0.231664 0.356174 -0.905247
2.669410 2.402445 1.645683 0.640632 0.462509 -0.612924
2.654904 2.537788 1.801367 0.819923 0.558231 -0.126907
2.658706 2.500352 1.925185 0.836148 0.410654 0.363620
2.606565 2.435552 2.024327 0.631961 0.154454 0.759453
2.512452 2.360752 2.072229 0.258943 -0.143883 0.955116
2.401584 2.295995 2.056054 -0.185486 -0.405080 0.895268
2.303669 2.258631 1.980137 -0.581583 -0.557574 0.592345
2.244942 2.258673 1.864820 -0.819923 -0.558231 0.126906
2.241140 2.296109 1.741002 -0.834063 -0.406246 -0.373234
2.293281 2.360908 1.641860 -0.621035 -0.144026 -0.770436
2.387394 2.435708 1.593959 -0.241260 0.155922 -0.957853
2.498262 2.500466 1.610133 0.201083 0.412708 -0.888390
2.596177 2.537829 1.686050 0.588339 0.559183 -0.584100
2.562119 2.664959 1.845559 0.745694 0.659968 -0.091553
2.568407 2.624116 1.968193 0.771668 0.499031 0.394330
2.523058 2.550007 2.064100 0.594253 0.206138 0.777413
2.438224 2.462490 2.107582 0.258142 -0.142786 0.955497
2.336635 2.385015 2.086988 -0.148979 -0.455116 0.877881
2.245512 2.338341 2.007837 -0.517504 -0.645401 0.561825
2.189271 2.334976 1.891335 -0.745695 -0.659968 0.091552
2.182983 2.375819 1.768702 -0.769984 -0.494073 -0.403753
2.228331 2.449928 1.672794 -0.584527 -0.194064 -0.787824
2.313166 2.537445 1.629312 -0.242061 0.157019 -0.957472
2.414755 2.614920 1.649906 0.163375 0.464391 -0.870431
2.505878 2.661594 1.729058 0.523859 0.647559 -0.553389
2.453384 2.778016 1.891709 0.658708 0.750413 -0.054633
2.462586 2.734143 2.013107 0.696105 0.577598 0.426401
2.425198 2.651758 2.105635 0.550063 0.252084 0.796168
2.351237 2.552935 2.144502 0.257204 -0.141810 0.955895
2.260521 2.464154 2.119293 -0.106197 -0.499600 0.859722
2.177358 2.409205 2.036763 -0.442410 -0.723480 0.529952
2.124031 2.402810 1.919026 -0.658708 -0.750413 0.054632
2.114829 2.446682 1.797628 -0.694889 -0.572153 -0.435626
2.152217 2.529068 1.705100 -0.541745 -0.238547 -0.805983
2.226179 2.627891 1.666232 -0.242999 0.157994 -0.957073
2.316894 2.716671 1.691442 0.119185 0.510338 -0.851675
2.400058 2.771621 1.773972 0.448296 0.726126 -0.521317
2.330561 2.875024 1.939028 0.560449 0.828019 -0.016777
2.343054 2.828551 2.059158 0.610751 0.645012 0.459285
2.314657 2.739065 2.148222 0.500148 0.291508 0.815399
2.252978 2.630541 2.182358 0.256145 -0.140974 0.956303
2.174545 2.532060 2.152417 -0.057870 -0.537769 0.841104
2.100373 2.470009 2.066422 -0.357585 -0.790476 0.497272
2.050337 2.461014 1.947417 -0.560449 -0.828019 0.016777
2.037844 2.507486 1.827288 -0.610065 -0.639149 -0.468305
2.066241 2.596973 1.738223 -0.493418 -0.276716 -0.824601
2.127920 2.705497 1.704088 -0.244058 0.158831 -0.956665
2.206353 2.803978 1.734029 0.069270 0.549761 -0.832445
2.280525 2.866029 1.820023 0.362942 0.793540 -0.488433
2.195752 2.954321 1.986706 0.452602 0.891457 0.021365
2.211857 2.905724 2.105558 0.517067 0.700119 0.492418
2.193329 2.810432 2.191132 0.445361 0.323734 0.834775
2.145131 2.693979 2.220500 0.254982 -0.140290 0.956715
2.080178 2.587568 2.185791 -0.004828 -0.568970 0.822344
2.015875 2.519712 2.096307 -0.264482 -0.845241 0.464345
1.969451 2.508593 1.976024 -0.452601 -0.891457 -0.021365
1.953346 2.557189 1.857172 -0.516962 -0.693914 -0.501232
1.971875 2.652481 1.771597 -0.440376 -0.307916 -0.843360
2.020073 2.768934 1.742230 -0.245221 0.159515 -0.956254
2.085025 2.875346 1.776938 0.014483 0.581988 -0.813068
2.149328 2.943202 1.866423 0.269257 0.848647 -0.455300
2.051263 3.014552 2.033926 0.337010 0.939642 0.059141
2.071240 2.964341 2.151513 0.416656 0.741975 0.525234
2.063288 2.864640 2.233631 0.386641 0.348212 0.853966
2.029539 2.742164 2.258276 0.253735 -0.139771 0.957122
1.979036 2.629730 2.218846 0.052024 -0.592668 0.803765
1.925310 2.557464 2.125904 -0.164695 -0.886838 0.431734
1.882758 2.544731 2.004356 -0.337010 -0.939642 -0.059142
1.862781 2.594942 1.886769 -0.417174 -0.735511 -0.533845
1.870732 2.694643 1.804652 -0.383525 -0.331615 -0.861940
1.904481 2.817119 1.780006 -0.246468 0.160035 -0.955846
1.954985 2.929554 1.819437 -0.044237 0.606466 -0.793878
2.008711 3.001819 1.912378 0.168847 0.890504 -0.422485
1.899566 3.054686 2.079882 0.215652 0.971749 0.095906
1.923607 3.003400 2.196238 0.311236 0.769866 0.557170
1.926761 2.900761 2.274991 0.324991 0.364522 0.872642
1.908182 2.774271 2.295041 0.252426 -0.139424 0.957519
1.872848 2.657824 2.251014 0.111710 -0.608459 0.785683
1.830227 2.582620 2.154709 -0.059929 -0.914556 0.399996
1.791739 2.568812 2.031929 -0.215652 -0.971749 -0.095906
1.767698 2.620098 1.915574 -0.312408 -0.763228 -0.565583
1.764544 2.722737 1.836821 -0.323838 -0.347406 -0.880022
1.783124 2.849226 1.816771 -0.247776 0.160380 -0.955450
1.818457 2.965674 1.860797 -0.105887 0.622777 -0.775201
1.861078 3.040878 1.957103 0.063427 0.918395 -0.390548
1.743255 3.074037 2.123787 0.090605 0.987230 0.131029
1.771485 3.022232 2.238966 0.202610 0.783314 0.587681
1.786081 2.918176 2.314505 0.261466 0.372387 0.890485
1.783133 2.789752 2.330164 0.251078 -0.139258 0.957897
1.763430 2.671369 2.281748 0.173213 -0.616073 0.768409
1.732252 2.594749 2.182228 0.048023 -0.927920 0.369674
1.697953 2.580422 2.058272 -0.090604 -0.987229 -0.131030
1.669723 2.632227 1.943093 -0.204457 -0.776592 -0.595905
1.655127 2.736282 1.867554 -0.262336 -0.355020 -0.897296
1.658075 2.864707 1.851895 -0.249125 0.160548 -0.955071
1.677778 2.983090 1.900311 -0.169412 0.630641 -0.757358
1.708956 3.059710 1.999831 -0.045199 0.931842 -0.360038
1.585008 3.072273 2.164889 -0.035994 0.985818 0.163912
1.617478 3.020515 2.278966 0.092638 0.782088 0.616244
1.643659 2.916589 2.351497 0.197154 0.371670 0.907189
1.656535 2.788340 2.363046 0.249713 -0.139273 0.958252
1.652657 2.670134 2.310519 0.235477 -0.615379 0.752236
1.633064 2.593643 2.207991 0.157312 -0.926702 0.341288
1.603005 2.579364 2.082933 0.035993 -0.985818 -0.163912
1.570535 2.631121 1.968856 -0.095167 -0.775374 -0.624290
1.544354 2.735048 1.896325 -0.200071 -0.354326 -0.913469
1.531477 2.863296 1.884776 -0.250490 0.160533 -0.954717
1.535355 2.981502 1.937303 -0.233724 0.629924 -0.740655
1.554949 3.057993 2.039832 -0.155172 0.930616 -0.331474
1.427530 3.049424 2.202485 -0.161976 0.967539 0.193988
1.464220 2.998279 2.315556 -0.016799 0.766209 0.642372
1.501929 2.896025 2.385334 0.133155 0.362384 0.922468
1.530553 2.770061 2.393123 0.248355 -0.139470 0.958576
1.542423 2.654140 2.336837 0.297438 -0.606388 0.737444
1.534358 2.579322 2.231556 0.266070 -0.910922 0.315322
1.508518 2.565655 2.105491 0.161976 -0.967539 -0.193989
1.471829 2.616800 1.992421 0.013591 -0.759594 -0.650256
1.434120 2.719054 1.922643 -0.138110 -0.345336 -0.928261
1.405495 2.845017 1.914853 -0.251848 0.160335 -0.954393
1.393626 2.960938 1.971140 -0.297723 0.620638 -0.725376
1.401691 3.035757 2.076421 -0.264608 0.914738 -0.305347
1.273516 3.005882 2.235933 -0.285187 0.932706 0.220746
1.314332 2.955903 2.348107 -0.123829 0.735950 0.665615
1.363316 2.856837 2.415437 0.070564 0.344688 0.936061
1.407342 2.735228 2.419881 0.247026 -0.139845 0.958865
1.434613 2.623661 2.360250 0.358037 -0.589256 0.724284
1.437822 2.552030 2.252521 0.372436 -0.880850 0.292223
1.416110 2.539529 2.125560 0.285187 -0.932706 -0.220746
1.375293 2.589508 2.013386 0.119957 -0.729522 -0.673355
1.326310 2.688574 1.946056 -0.077512 -0.328203 -0.941422
1.282284 2.810183 1.941611 -0.253176 0.159959 -0.954104
1.255013 2.921750 2.001243 -0.360314 0.602942 -0.711783
1.251804 2.993381 2.108972 -0.371638 0.884479 -0.282103
1.125602 2.942391 2.264659 -0.403518 0.881913 0.243727
1.170382 2.894114 2.376063 -0.226620 0.691828 0.685578
1.230194 2.799695 2.441290 0.010451 0.318886 0.947736
1.289011 2.684435 2.442862 0.245750 -0.140393 0.959112
1.331074 2.579217 2.380358 0.416236 -0.564275 0.712981
1.345111 2.512234 2.270526 0.474589 -0.837002 0.272384
1.327361 2.501435 2.142795 0.403518 -0.881913 -0.243727
1.282582 2.549712 2.031391 0.222109 -0.685674 -0.693194
1.222770 2.644130 1.966164 -0.019313 -0.303222 -0.952724
1.163953 2.759391 1.964592 -0.254452 0.159412 -0.953856
1.121891 2.864609 2.027096 -0.420427 0.577139 -0.700108
1.107853 2.931592 2.136928 -0.474429 0.840357 -0.262140
0.986319 2.860038 2.288172 -0.514945 0.816030 0.262538
1.034831 2.813967 2.398946 -0.323413 0.634598 0.701918
1.104839 2.725578 2.462452 -0.046153 0.285418 0.957291
1.177584 2.618553 2.461673 0.244549 -0.141103 0.959315
1.233575 2.521570 2.396817 0.471038 -0.531873 0.703729
1.257809 2.460616 2.285264 0.570781 -0.780127 0.256146
1.243792 2.452023 2.156903 0.514944 -0.816031 -0.262538
1.195280 2.498094 2.046129 0.318302 -0.628799 -0.709433
1.125272 2.586483 1.982624 0.035490 -0.270820 -0.961976
1.052526 2.693508 1.983403 -0.255654 0.158701 -0.953653
0.996536 2.790491 2.048258 -0.477032 0.543671 -0.690552
0.972302 2.851445 2.159811 -0.571223 0.783126 -0.245800
0.858049 2.760232 2.306070 -0.617561 0.736186 0.276856
0.909998 2.716836 2.416365 -0.412553 0.565239 0.714356
0.989396 2.635752 2.478560 -0.098282 0.244856 0.964565
1.074969 2.538708 2.475991 0.243443 -0.141964 0.959470
1.143786 2.451706 2.409346 0.521507 -0.492602 0.696687
1.177410 2.398058 2.296483 0.659367 -0.711199 0.243784
1.166830 2.392139 2.167642 0.617560 -0.736186 -0.276857
1.114881 2.435536 2.057348 0.406889 -0.559871 -0.721794
1.035483 2.516619 1.995152 0.085959 -0.231550 -0.969018
0.949910 2.613664 1.997721 -0.256761 0.157841 -0.953499
0.881093 2.700666 2.064366 -0.529161 0.503110 -0.683278
0.847469 2.754313 2.177230 -0.660362 0.713768 -0.233362
0.742987 2.644680 2.318047 -0.709610 0.643744 0.286438
0.798019 2.604380 2.428021 -0.492513 0.484938 0.722679
0.885840 2.531755 2.489340 -0.145044 0.197896 0.969433
0.982919 2.446266 2.485573 0.242450 -0.142961 0.959573
1.063243 2.370819 2.417730 0.566780 -0.447138 0.691974
1.105289 2.325630 2.303990 0.738833 -0.631396 0.235513
1.097792 2.322808 2.174828 0.709610 -0.643744 -0.286438
1.042760 2.363108 2.064855 0.486353 -0.480068 -0.730066
0.954939 2.435733 2.003536 0.131231 -0.186084 -0.973730
0.857861 2.521222 2.007303 -0.257753 0.156844 -0.953396
0.777537 2.596669 2.075146 -0.575922 0.456150 -0.678411
0.735490 2.641858 2.188886 -0.740322 0.633467 -0.225039
0.643103 2.515360 2.323898 -0.789518 0.540289 0.291118
0.700811 2.478525 2.433715 -0.561927 0.395069 0.726745
0.795944 2.415368 2.494605 -0.185637 0.145340 0.971810
0.903011 2.342811 2.490253 0.241588 -0.144076 0.959623
0.993324 2.280296 2.421825 0.606081 -0.396255 0.689672
1.042682 2.244574 2.307657 0.807815 -0.542084 0.231472
1.037862 2.245216 2.178339 0.789518 -0.540289 -0.291118
0.980153 2.282051 2.068522 0.555335 -0.390757 -0.734106
0.885020 2.345209 2.007632 0.170532 -0.135202 -0.976032
0.777953 2.417766 2.011983 -0.258615 0.155728 -0.953345
0.687641 2.480281 2.080411 -0.616515 0.403594 -0.676033
0.638282 2.516003 2.194580 -0.809736 0.543597 -0.220973
0.560104 2.374485 2.323522 -0.855917 0.427588 0.290818
0.620036 2.341425 2.433349 -0.619605 0.297169 0.726484
0.721245 2.288580 2.494267 -0.219368 0.088088 0.971658
0.836612 2.230110 2.489953 0.240872 -0.145292 0.959620
0.935225 2.181683 2.421562 0.638738 -0.340826 0.689820
0.990659 2.156274 2.307421 0.865136 -0.444792 0.231732
0.988063 2.160691 2.178113 0.855917 -0.427588 -0.290817
0.928130 2.193752 2.068286 0.612657 -0.293465 -0.733846
0.826921 2.246596 2.007368 0.203189 -0.079773 -0.975884
0.711554 2.305066 2.011683 -0.259331 0.154513 -0.953348
0.612942 2.353493 2.080073 -0.650246 0.346342 -0.676186
0.557507 2.378903 2.194214 -0.867415 0.445698 -0.221235
0.495411 2.224464 2.316926 -0.907671 0.307571 0.285541
0.557077 2.195423 2.426930 -0.664563 0.192914 0.721901
0.663022 2.153561 2.488330 -0.245658 0.027120 0.968977
0.784858 2.110093 2.484676 0.240314 -0.146586 0.959563
0.889940 2.076668 2.416945 0.664192 -0.281799 0.692415
0.950110 2.062241 2.303287 0.909814 -0.341184 0.236287
0.949247 2.070678 2.174156 0.907671 -0.307571 -0.285541
0.887581 2.099719 2.064152 0.657335 -0.189857 -0.729291
0.781636 2.141581 2.002751 0.228643 -0.020746 -0.973289
0.659800 2.185049 2.006406 -0.259889 0.153219 -0.953405
0.554719 2.218474 2.074136 -0.676536 0.285373 -0.678867
0.494548 2.232901 2.187795 -0.912372 0.341443 -0.225818
0.450132 2.067865 2.304223 -0.943894 0.182292 0.275379
0.513011 2.043021 2.414567 -0.696029 0.084088 0.713073
0.622271 2.012622 2.476898 -0.264060 -0.036522 0.963814
0.748635 1.984814 2.474514 0.239924 -0.147936 0.959454
0.858244 1.967049 2.408053 0.682007 -0.220183 0.697414
0.921729 1.964086 2.295325 0.941085 -0.233033 0.245060
0.922079 1.976719 2.166534 0.943894 -0.182292 -0.275378
0.859200 2.001564 2.056190 0.688606 -0.081706 -0.720518
0.749941 2.031962 1.993859 0.246459 0.040870 -0.968291
0.623577 2.059770 1.996244 -0.260280 0.151868 -0.953515
0.513967 2.077535 2.062704 -0.694938 0.221731 -0.684029
0.450482 2.080498 2.175432 -0.943838 0.232616 -0.234646
4 0 1 2 3
4 3 2 4 5
4 5 4 6 7
4 7 6 8 9
4 9 8 10 11
4 11 10 12 13
4 13 12 14 15
4 15 14 16 17
4 17 16 18 19
4 19 18 20 21
4 21 20 22 23
4 23 22 1 0
4 1 24 25 2
4 2 25 26 4
4 4 26 27 6
4 6 27 28 8
4 8 28 29 10
4 10 29 30 12
4 12 30 31 14
4 14 31 32 16
4 16 32 33 18
4 18 33 34 20
4 20 34 35 22
4 22 35 24 1
4 24 36 37 25
4 25 37 38 26
4 26 38 39 27
4 27 39 40 28
4 28 40 41 29
4 29 41 42 30
4 30 42 43 31
4 31 43 44 32
4 32 44 45 33
4 33 45 46 34
4 34 46 47 35
4 35 47 36 24
4 36 48 49 37
4 37 49 50 38
4 38 50 51 39
4 39 51 52 40
4 40 52 53 41
4 41 53 54 42
4 42 54 55 43
4 43 55 56 44
4 44 56 57 45
4 45 57 58 46
4 46 58 59 47
4 47 59 48 36
4 48 60 61 49
4 49 61 62 50
4 50 62 63 51
4 51 63 64 52
4 52 64 65 53
4 53 65 66 54
4 54 66 67 55
4 55 67 68 56
4 56 68 69 57
4 57 69 70 58
4 58 70 71 59
4 59 71 60 48
4 60 72 73 61
4 61 73 74 62
4 62 74 75 63
4 63 75 76 64
4 64 76 77 65
4 65 77 78 66
4 66 78 79 67
4 67 79 80 68
4 68 80 81 69
4 69 81 82 70
4 70 82 83 71
4 71 83 72 60
4 72 84 85 73
4 73 85 86 74
4 74 86 87 75
4 75 87 88 76
4 76 88 89 77
4 77 89 90 78
4 78 90 91 79
4 79 91 92 80
4 80 92 93 81
4 81 93 94 82
4 82 94 95 83
4 83 95 84 72
4 84 96 97 85
4 85 97 98 86
4 86 98 99 87
4 87 99 100 88
4 88 100 101 89
4 89 101 102 90
4 90 102 103 91
4 91 103 104 92
4 92 104 105 93
4 93 105 106 94
4 94 106 107 95
4 95 107 96 84
4 96 108 109 97
4 97 109 110 98
4 98 110 111 99
4 99 111 112 100
4 100 112 113 101
4 101 113 114 102
4 102 114 115 103
4 103 115 116 104
4 104 116 117 105
4 105 117 118 106
4 106 118 119 107
4 107 119 108 96
4 108 120 121 109
4 109 121 122 110
4 110 122 123 111
4 111 123 124 112
4 112 124 125 113
4 113 125 126 114
4 114 126 127 115
4 115 127 128 116
4 116 128 129 117
4 117 129 130 118
4 118 130 131 119
4 119 131 120 108
4 120 132 133 121
4 121 133 134 122
4 122 134 135 123
4 123 135 136 124
4 124 136 137 125
4 125 137 138 126
4 126 138 139 127
4 127 139 140 128
4 128 140 141 129
4 129 141 142 130
4 130 142 143 131
4 131 143 132 120
4 132 144 145 133
4 133 145 146 134
4 134 146 147 135
4 135 147 148 136
4 136 148 149 137
4 137 149 150 138
4 138 150 151 139
4 139 151 152 140
4 140 152 153 141
4 141 153 154 142
4 142 154 155 143
4 143 155 144 132
4 144 156 157 145
4 145 157 158 146
4 146 158 159 147
4 147 159 160 148
4 148 160 161 149
4 149 161 162 150
4 150 162 163 151
4 151 163 164 152
4 152 164 165 153
4 153 165 166 154
4 154 166 167 155
4 155 167 156 144
4 156 168 169 157
4 157 169 170 158
4 158 170 171 159
4 159 171 172 160
4 160 172 173 161
4 161 173 174 162
4 162 174 175 163
4 163 175 176 164
4 164 176 177 165
4 165 177 178 166
4 166 178 179 167
4 167 179 168 156
4 168 180 181 169
4 169 181 182 170
4 170 182 183 171
4 171 183 184 172
4 172 184 185 173
4 173 185 186 174
4 174 186 187 175
4 175 187 188 176
4 176 188 189 177
4 177 189 190 178
4 178 190 191 179
4 179 191 180 168
4 180 192 193 181
4 181 193 194 182
4 182 194 195 183
4 183 195 196 184
4 184 196 197 185
4 185 197 198 186
4 186 198 199 187
4 187 199 200 188
4 188 200 201 189
4 189 201 202 190
4 190 202 203 191
4 191 203 192 180
4 192 204 205 193
4 193 205 206 194
4 194 206 207 195
4 195 207 208 196
4 196 208 209 197
4 197 209 210 198
4 198 210 211 199
4 199 211 212 200
4 200 212 213 201
4 201 213 214 202
4 202 214 215 203
4 203 215 204 192
4 204 216 217 205
4 205 217 218 206
4 206 218 219 207
4 207 219 220 208
4 208 220 221 209
4 209 221 222 210
4 210 222 223 211
4 211 223 224 212
4 212 224 225 213
4 213 225 226 214
4 214 226 227 215
4 215 227 216 204
4 216 228 229 217
4 217 229 230 218
4 218 230 231 219
4 219 231 232 220
4 220 232 233 221
4 221 233 234 222
4 222 234 235 223
4 223 235 236 224
4 224 236 237 225
4 225 237 238 226
4 226 238 239 227
4 227 239 228 216
4 228 240 241 229
4 229 241 242 230
4 230 242 243 231
4 231 243 244 232
4 232 244 245 233
4 233 245 246 234
4 234 246 247 235
4 235 247 248 236
4 236 248 249 237
4 237 249 250 238
4 238 250 251 239
4 239 251 240 228
4 240 252 253 241
4 241 253 254 242
4 242 254 255 243
4 243 255 256 244
4 244 256 257 245
4 245 257 258 246
4 246 258 259 247
4 247 259 260 248
4 248 260 261 249
4 249 261 262 250
4 250 262 263 251
4 251 263 252 240
4 252 264 265 253
4 253 265 266 254
4 254 266 267 255
4 255 267 268 256
4 256 268 269 257
4 257 269 270 258
4 258 270 271 259
4 259 271 272 260
4 260 272 273 261
4 261 273 274 262
4 262 274 275 263
4 263 275 264 252
4 264 276 277 265
4 265 277 278 266
4 266 278 279 267
4 267 279 280 268
4 268 280 281 269
4 269 281 282 270
4 270 282 283 271
4 271 283 284 272
4 272 284 285 273
4 273 285 286 274
4 274 286 287 275
4 275 287 276 264
4 276 288 289 277
4 277 289 290 278
4 278 290 291 279
4 279 291 292 280
4 280 292 293 281
4 281 293 294 282
4 282 294 295 283
4 283 295 296 284
4 284 296 297 285
4 285 297 298 286
4 286 298 299 287
4 287 299 288 276
4 288 300 301 289
4 289 301 302 290
4 290 302 303 291
4 291 303 304 292
4 292 304 305 293
4 293 305 306 294
4 294 306 307 295
4 295 307 308 296
4 296 308 309 297
4 297 309 310 298
4 298 310 311 299
4 299 311 300 288
4 300 312 313 301
4 301 313 314 302
4 302 314 315 303
4 303 315 316 304
4 304 316 317 305
4 305 317 318 306
4 306 318 319 307
4 307 319 320 308
4 308 320 321 309
4 309 321 322 310
4 310 322 323 311
4 311 323 312 300
4 312 324 325 313
4 313 325 326 314
4 314 326 327 315
4 315 327 328 316
4 316 328 329 317
4 317 329 330 318
4 318 330 331 319
4 319 331 332 320
4 320 332 333 321
4 321 333 334 322
4 322 334 335 323
4 323 335 324 312
4 324 336 337 325
4 325 337 338 326
4 326 338 339 327
4 327 339 340 328
4 328 340 341 329
4 329 341 342 330
4 330 342 343 331
4 331 343 344 332
4 332 344 345 333
4 333 345 346 334
4 334 346 347 335
4 335 347 336 324
4 336 348 349 337
4 337 349 350 338
4 338 350 351 339
4 339 351 352 340
4 340 352 353 341
4 341 353 354 342
4 342 354 355 343
4 343 355 356 344
4 344 356 357 345
4 345 357 358 346
4 346 358 359 347
4 347 359 348 336
4 348 360 361 349
4 349 361 362 350
4 350 362 363 351
4 351 363 364 352
4 352 364 365 353
4 353 365 366 354
4 354 366 367 355
4 355 367 368 356
4 356 368 369 357
4 357 369 370 358
4 358 370 371 359
4 359 371 360 348
4 360 372 373 361
4 361 373 374 362
4 362 374 375 363
4 363 375 376 364
4 364 376 377 365
4 365 377 378 366
4 366 378 379 367
4 367 379 380 368
4 368 380 381 369
4 369 381 382 370
4 370 382 383 371
4 371 383 372 360
4 372 384 385 373
4 373 385 386 374
4 374 386 387 375
4 375 387 388 376
4 376 388 389 377
4 377 389 390 378
4 378 390 391 379
4 379 391 392 380
4 380 392 393 381
4 381 393 394 382
4 382 394 395 383
4 383 395 384 372
4 384 396 397 385
4 385 397 398 386
4 386 398 399 387
4 387 399 400 388
4 388 400 401 389
4 389 401 402 390
4 390 402 403 391
4 391 403 404 392
4 392 404 405 393
4 393 405 406 394
4 394 406 407 395
4 395 407 396 384
4 396 408 409 397
4 397 409 410 398
4 398 410 411 399
4 399 411 412 400
4 400 412 413 401
4 401 413 414 402
4 402 414 415 403
4 403 415 416 404
4 404 416 417 405
4 405 417 418 406
4 406 418 419 407
4 407 419 408 396
4 408 420 421 409
4 409 421 422 410
4 410 422 423 411
4 411 423 424 412
4 412 424 425 413
4 413 425 426 414
4 414 426 427 415
4 415 427 428 416
4 416 428 429 417
4 417 429 430 418
4 418 430 431 419
4 419 431 420 408
4 420 432 433 421
4 421 433 434 422
4 422 434 435 423
4 423 435 436 424
4 424 436 437 425
4 425 437 438 426
4 426 438 439 427
4 427 439 440 428
4 428 440 441 429
4 429 441 442 430
4 430 442 443 431
4 431 443 432 420
4 432 444 445 433
4 433 445 446 434
4 434 446 447 435
4 435 447 448 436
4 436 448 449 437
4 437 449 450 438
4 438 450 451 439
4 439 451 452 440
4 440 452 453 441
4 441 453 454 442
4 442 454 455 443
4 443 455 444 432
4 444 456 457 445
4 445 457 458 446
4 446 458 459 447
4 447 459 460 448
4 448 460 461 449
4 449 461 462 450
4 450 462 463 451
4 451 463 464 452
4 452 464 465 453
4 453 465 466 454
4 454 466 467 455
4 455 467 456 444
4 456 468 469 457
4 457 469 470 458
4 458 470 471 459
4 459 471 472 460
4 460 472 473 461
4 461 473 474 462
4 462 474 475 463
4 463 475 476 464
4 464 476 477 465
4 465 477 478 466
4 466 478 479 467
4 467 479 468 456
4 468 480 481 469
4 469 481 482 470
4 470 482 483 471
4 471 483 484 472
4 472 484 485 473
4 473 485 486 474
4 474 486 487 475
4 475 487 488 476
4 476 488 489 477
4 477 489 490 478
4 478 490 491 479
4 479 491 480 468
4 480 492 493 481
4 481 493 494 482
4 482 494 495 483
4 483 495 496 484
4 484 496 497 485
4 485 497 498 486
4 486 498 499 487
4 487 499 500 488
4 488 500 501 489
4 489 501 502 490
4 490 502 503 491
4 491 503 492 480
4 492 504 505 493
4 493 505 506 494
4 494 506 507 495
4 495 507 508 496
4 496 508 509 497
4 497 509 510 498
4 498 510 511 499
4 499 511 512 500
4 500 512 513 501
4 501 513 514 502
4 502 514 515 503
4 503 515 504 492
4 504 516 517 505
4 505 517 518 506
4 506 518 519 507
4 507 519 520 508
4 508 520 521 509
4 509 521 522 510
4 510 522 523 511
4 511 523 524 512
4 512 524 525 513
4 513 525 526 514
4 514 526 527 515
4 515 527 516 504
4 516 528 529 517
4 517 529 530 518
4 518 530 531 519
4 519 531 532 520
4 520 532 533 521
4 521 533 534 522
4 522 534 535 523
4 523 535 536 524
4 524 536 537 525
4 525 537 538 526
4 526 538 539 527
4 527 539 528 516
4 528 540 541 529
4 529 541 542 530
4 530 542 543 531
4 531 543 544 532
4 532 544 545 533
4 533 545 546 534
4 534 546 547 535
4 535 547 548 536
4 536 548 549 537
4 537 549 550 538
4 538 550 551 539
4 539 551 540 528
4 540 552 553 541
4 541 553 554 542
4 542 554 555 543
4 543 555 556 544
4 544 556 557 545
4 545 557 558 546
4 546 558 559 547
4 547 559 560 548
4 548 560 561 549
4 549 561 562 550
4 550 562 563 551
4 551 563 552 540
4 552 564 565 553
4 553 565 566 554
4 554 566 567 555
4 555 567 568 556
4 556 568 569 557
4 557 569 570 558
4 558 570 571 559
4 559 571 572 560
4 560 572 573 561
4 561 573 574 562
4 562 574 575 563
4 563 575 564 552
4 564 0 3 565
4 565 3 5 566
4 566 5 7 567
4 567 7 9 568
4 568 9 11 569
4 569 11 13 570
4 570 13 15 571
4 571 15 17 572
4 572 17 19 573
4 573 19 21 574
4 574 21 23 575
4 575 23 0 564
