ply
format ascii 1.0
comment Created by Blender 3.5.1 - www.blender.org
element vertex 64
property float x
property float y
property float z
property float nx
property float ny
property float nz
element face 124
property list uchar uint vertex_indices
end_header
0.000000 10.000000 -10.000000 -0.000000 0.685697 -0.727888
1.950903 -10.000000 -9.807853 0.142004 -0.685697 -0.713901
0.000000 -10.000000 -10.000000 0.000000 -0.685696 -0.727888
1.950903 10.000000 -9.807853 0.142004 0.685696 -0.713901
3.826835 -10.000000 -9.238795 0.278551 -0.685696 -0.672480
3.826835 10.000000 -9.238795 0.278550 0.685696 -0.672480
5.555702 -10.000000 -8.314696 0.404393 -0.685697 -0.605216
5.555702 10.000000 -8.314696 0.404393 0.685696 -0.605216
7.071068 -10.000000 -7.071068 0.514694 -0.685696 -0.514694
7.071068 10.000000 -7.071068 0.514694 0.685697 -0.514694
8.314696 -10.000000 -5.555702 0.605216 -0.685697 -0.404393
8.314696 10.000000 -5.555702 0.605216 0.685696 -0.404393
9.238795 -10.000000 -3.826835 0.672480 -0.685696 -0.278550
9.238795 10.000000 -3.826835 0.672480 0.685696 -0.278551
9.807853 -10.000000 -1.950903 0.713901 -0.685697 -0.142004
9.807853 10.000000 -1.950903 0.713901 0.685696 -0.142004
10.000000 -10.000000 0.000000 0.727888 -0.685696 0.000000
10.000000 10.000000 0.000000 0.727888 0.685697 -0.000000
9.807853 -10.000000 1.950903 0.713901 -0.685697 0.142004
9.807853 10.000000 1.950903 0.713901 0.685697 0.142004
9.238795 -10.000000 3.826835 0.672480 -0.685696 0.278551
9.238795 10.000000 3.826835 0.672480 0.685697 0.278550
8.314696 -10.000000 5.555702 0.605216 -0.685697 0.404393
8.314696 10.000000 5.555702 0.605216 0.685696 0.404393
7.071068 -10.000000 7.071068 0.514694 -0.685696 0.514694
7.071068 10.000000 7.071068 0.514694 0.685697 0.514694
5.555702 -10.000000 8.314696 0.404393 -0.685697 0.605216
5.555702 10.000000 8.314696 0.404393 0.685696 0.605216
3.826835 -10.000000 9.238795 0.278551 -0.685696 0.672481
3.826835 10.000000 9.238795 0.278551 0.685696 0.672480
1.950903 -10.000000 9.807853 0.142004 -0.685697 0.713901
1.950903 10.000000 9.807853 0.142004 0.685696 0.713901
0.000000 -10.000000 10.000000 -0.000000 -0.685696 0.727888
0.000000 10.000000 10.000000 0.000000 0.685697 0.727888
-1.950903 -10.000000 9.807853 -0.142004 -0.685697 0.713901
-1.950903 10.000000 9.807853 -0.142004 0.685697 0.713901
-3.826835 -10.000000 9.238795 -0.278551 -0.685696 0.672480
-3.826835 10.000000 9.238795 -0.278550 0.685697 0.672480
-5.555702 -10.000000 8.314696 -0.404393 -0.685697 0.605216
-5.555702 10.000000 8.314696 -0.404393 0.685696 0.605216
-7.071068 -10.000000 7.071068 -0.514694 -0.685696 0.514694
-7.071068 10.000000 7.071068 -0.514694 0.685697 0.514694
-8.314696 -10.000000 5.555702 -0.605216 -0.685697 0.404393
-8.314696 10.000000 5.555702 -0.605216 0.685696 0.404393
-9.238795 -10.000000 3.826835 -0.672480 -0.685696 0.278550
-9.238795 10.000000 3.826835 -0.672480 0.685697 0.278551
-9.807853 -10.000000 1.950903 -0.713901 -0.685697 0.142004
-9.807853 10.000000 1.950903 -0.713901 0.685697 0.142004
-10.000000 -10.000000 0.000000 -0.727888 -0.685696 -0.000000
-10.000000 10.000000 0.000000 -0.727888 0.685697 0.000000
-9.807853 -10.000000 -1.950903 -0.713901 -0.685697 -0.142004
-9.807853 10.000000 -1.950903 -0.713901 0.685696 -0.142004
-9.238795 -10.000000 -3.826835 -0.672480 -0.685696 -0.278551
-9.238795 10.000000 -3.826835 -0.672480 0.685696 -0.278550
-8.314696 -10.000000 -5.555702 -0.605216 -0.685697 -0.404393
-8.314696 10.000000 -5.555702 -0.605216 0.685696 -0.404393
-7.071068 -10.000000 -7.071068 -0.514694 -0.685696 -0.514694
-7.071068 10.000000 -7.071068 -0.514694 0.685697 -0.514694
-5.555702 -10.000000 -8.314696 -0.404393 -0.685697 -0.605216
-5.555702 10.000000 -8.314696 -0.404393 0.685696 -0.605216
-3.826835 -10.000000 -9.238795 -0.278551 -0.685696 -0.672481
-3.826835 10.000000 -9.238795 -0.278551 0.685697 -0.672480
-1.950903 -10.000000 -9.807853 -0.142004 -0.685697 -0.713901
-1.950903 10.000000 -9.807853 -0.142004 0.685697 -0.713901
3 0 1 2
3 3 4 1
3 5 6 4
3 7 8 6
3 9 10 8
3 11 12 10
3 13 14 12
3 15 16 14
3 17 18 16
3 19 20 18
3 21 22 20
3 23 24 22
3 25 26 24
3 27 28 26
3 29 30 28
3 31 32 30
3 33 34 32
3 35 36 34
3 37 38 36
3 39 40 38
3 41 42 40
3 43 44 42
3 45 46 44
3 47 48 46
3 49 50 48
3 51 52 50
3 53 54 52
3 55 56 54
3 57 58 56
3 59 60 58
3 37 21 5
3 61 62 60
3 63 2 62
3 30 46 62
3 0 3 1
3 3 5 4
3 5 7 6
3 7 9 8
3 9 11 10
3 11 13 12
3 13 15 14
3 15 17 16
3 17 19 18
3 19 21 20
3 21 23 22
3 23 25 24
3 25 27 26
3 27 29 28
3 29 31 30
3 31 33 32
3 33 35 34
3 35 37 36
3 37 39 38
3 39 41 40
3 41 43 42
3 43 45 44
3 45 47 46
3 47 49 48
3 49 51 50
3 51 53 52
3 53 55 54
3 55 57 56
3 57 59 58
3 59 61 60
3 5 3 0
3 0 63 5
3 63 61 5
3 61 59 57
3 57 55 53
3 53 51 49
3 49 47 53
3 47 45 53
3 45 43 41
3 41 39 37
3 37 35 29
3 35 33 29
3 33 31 29
3 29 27 25
3 25 23 21
3 21 19 13
3 19 17 13
3 17 15 13
3 13 11 9
3 9 7 5
3 61 57 5
3 57 53 5
3 45 41 53
3 41 37 53
3 29 25 37
3 25 21 37
3 13 9 21
3 9 5 21
3 5 53 37
3 61 63 62
3 63 0 2
3 62 2 1
3 1 4 6
3 6 8 10
3 10 12 14
3 14 16 18
3 18 20 22
3 22 24 26
3 26 28 30
3 30 32 34
3 34 36 38
3 38 40 42
3 42 44 46
3 46 48 50
3 50 52 54
3 54 56 58
3 58 60 62
3 62 1 14
3 1 6 14
3 6 10 14
3 14 18 30
3 18 22 30
3 22 26 30
3 30 34 46
3 34 38 46
3 38 42 46
3 46 50 62
3 50 54 62
3 54 58 62
3 62 14 30
