ply
format ascii 1.0
comment Created by Blender 3.5.1 - www.blender.org
element vertex 42
property float x
property float y
property float z
property float nx
property float ny
property float nz
element face 80
property list uchar uint vertex_indices
end_header
0.000000 -10.000000 0.000000 -0.000002 -1.000000 0.000000
4.253227 -8.506542 3.090114 0.425324 -0.850653 0.309013
-1.624555 -8.506543 4.999952 -0.162457 -0.850654 0.499996
7.236073 -4.472196 5.257253 0.723608 -0.447217 0.525727
8.506478 -5.257359 0.000000 0.850649 -0.525734 0.000000
-5.257298 -8.506516 0.000000 -0.525730 -0.850652 0.000000
-1.624555 -8.506543 -4.999952 -0.162457 -0.850653 -0.499996
4.253227 -8.506542 -3.090114 0.425323 -0.850653 -0.309013
9.510579 0.000000 3.090126 0.951057 -0.000000 0.309015
-2.763880 -4.472198 8.506492 -0.276389 -0.447218 0.850650
2.628688 -5.257377 8.090117 0.262869 -0.525735 0.809013
0.000000 0.000000 10.000000 -0.000000 -0.000000 1.000000
-8.944262 -4.472156 0.000000 -0.894426 -0.447215 0.000000
-6.881894 -5.257362 4.999969 -0.688189 -0.525734 0.499999
-9.510579 0.000000 3.090126 -0.951057 0.000000 0.309015
-2.763880 -4.472198 -8.506492 -0.276389 -0.447218 -0.850650
-6.881894 -5.257362 -4.999969 -0.688189 -0.525734 -0.499999
-5.877856 0.000000 -8.090167 -0.587786 -0.000000 -0.809016
7.236073 -4.472196 -5.257253 0.723608 -0.447217 -0.525727
2.628689 -5.257377 -8.090117 0.262869 -0.525735 -0.809013
5.877856 0.000000 -8.090167 0.587786 0.000000 -0.809016
5.877856 0.000000 8.090167 0.587786 0.000000 0.809016
-5.877856 0.000000 8.090167 -0.587786 -0.000000 0.809016
-9.510579 0.000000 -3.090126 -0.951057 0.000000 -0.309015
0.000000 0.000000 -10.000000 0.000000 0.000000 -1.000000
9.510579 0.000000 -3.090126 0.951057 -0.000000 -0.309015
2.763880 4.472198 8.506492 0.276389 0.447218 0.850650
6.881894 5.257362 4.999969 0.688189 0.525734 0.499999
1.624555 8.506543 4.999952 0.162457 0.850654 0.499996
-7.236073 4.472196 5.257253 -0.723608 0.447217 0.525727
-2.628689 5.257377 8.090117 -0.262869 0.525735 0.809013
-4.253227 8.506542 3.090114 -0.425324 0.850653 0.309013
-7.236073 4.472196 -5.257253 -0.723608 0.447217 -0.525727
-8.506478 5.257359 0.000000 -0.850649 0.525734 0.000000
-4.253227 8.506542 -3.090114 -0.425323 0.850653 -0.309013
2.763880 4.472198 -8.506492 0.276389 0.447218 -0.850650
-2.628688 5.257377 -8.090117 -0.262869 0.525735 -0.809013
1.624555 8.506543 -4.999952 0.162457 0.850654 -0.499996
8.944262 4.472156 0.000000 0.894426 0.447215 -0.000000
6.881894 5.257362 -4.999969 0.688189 0.525734 -0.499999
5.257298 8.506516 0.000000 0.525730 0.850652 -0.000000
0.000000 10.000000 0.000000 0.000002 1.000000 0.000000
3 0 1 2
3 3 1 4
3 0 2 5
3 0 5 6
3 0 6 7
3 3 4 8
3 9 10 11
3 12 13 14
3 15 16 17
3 18 19 20
3 3 8 21
3 9 11 22
3 12 14 23
3 15 17 24
3 18 20 25
3 26 27 28
3 29 30 31
3 32 33 34
3 35 36 37
3 38 39 40
3 40 37 41
3 40 39 37
3 39 35 37
3 37 34 41
3 37 36 34
3 36 32 34
3 34 31 41
3 34 33 31
3 33 29 31
3 31 28 41
3 31 30 28
3 30 26 28
3 28 40 41
3 28 27 40
3 27 38 40
3 25 39 38
3 25 20 39
3 20 35 39
3 24 36 35
3 24 17 36
3 17 32 36
3 23 33 32
3 23 14 33
3 14 29 33
3 22 30 29
3 22 11 30
3 11 26 30
3 21 27 26
3 21 8 27
3 8 38 27
3 20 24 35
3 20 19 24
3 19 15 24
3 17 23 32
3 17 16 23
3 16 12 23
3 14 22 29
3 14 13 22
3 13 9 22
3 11 21 26
3 11 10 21
3 10 3 21
3 8 25 38
3 8 4 25
3 4 18 25
3 7 19 18
3 7 6 19
3 6 15 19
3 6 16 15
3 6 5 16
3 5 12 16
3 5 13 12
3 5 2 13
3 2 9 13
3 4 7 18
3 4 1 7
3 1 0 7
3 2 10 9
3 2 1 10
3 1 3 10
