ply
format ascii 1.0
comment Created by Blender 3.5.1 - www.blender.org
element vertex 576
property float x
property float y
property float z
property float nx
property float ny
property float nz
element face 1152
property list uchar uint vertex_indices
end_header
12.393061 0.000000 -1.631577 0.991445 0.000000 -0.130526
12.165064 1.250000 0.000000 0.868671 0.495389 -0.000000
12.500000 0.000000 0.000000 1.000000 0.000000 -0.000000
11.153755 2.165063 -1.468419 0.503655 0.861356 -0.066307
11.250000 2.165063 0.000000 0.508001 0.861356 0.000000
10.000000 2.500000 0.000000 0.010783 0.999942 0.000000
9.914449 2.500000 -1.305262 0.010691 0.999942 -0.001407
8.750000 2.165063 0.000000 -0.491827 0.870693 0.000000
8.675142 2.165063 -1.142104 -0.487620 0.870693 0.064196
7.834936 1.250000 0.000000 -0.863281 0.504724 0.000000
7.435837 0.000000 -0.978946 -0.991445 0.000000 0.130526
7.500000 0.000000 0.000000 -1.000000 0.000000 0.000000
7.834936 -1.250000 0.000000 -0.863281 -0.504724 -0.000000
7.767907 -1.250000 -1.022664 -0.855895 -0.504724 0.112681
8.750000 -2.165063 0.000000 -0.491827 -0.870693 -0.000000
8.675142 -2.165063 -1.142104 -0.487620 -0.870693 0.064196
10.000000 -2.500000 0.000000 0.010783 -0.999942 -0.000000
9.914449 -2.500000 -1.305262 0.010691 -0.999942 -0.001407
11.250000 -2.165063 0.000000 0.508001 -0.861356 -0.000000
11.153755 -2.165063 -1.468419 0.503655 -0.861356 -0.066307
12.165064 -1.250000 0.000000 0.868671 -0.495389 0.000000
12.060990 -1.250000 -1.587859 0.861240 -0.495389 -0.113384
12.074072 0.000000 -3.235237 0.965926 0.000000 -0.258819
12.060990 1.250000 -1.587859 0.861240 0.495389 -0.113384
11.750549 1.250000 -3.148550 0.839072 0.495389 -0.224829
10.866666 2.165063 -2.911714 0.490691 0.861356 -0.131480
9.659258 2.500000 -2.588190 0.010415 0.999942 -0.002791
7.567967 1.250000 -2.027830 -0.833865 0.504724 0.223433
7.767907 1.250000 -1.022664 -0.855895 0.504724 0.112681
7.244444 0.000000 -1.941142 -0.965926 0.000000 0.258819
7.567967 -1.250000 -2.027830 -0.833865 -0.504724 0.223433
9.659258 -2.500000 -2.588190 0.010415 -0.999942 -0.002791
10.866666 -2.165063 -2.911714 0.490691 -0.861356 -0.131480
11.750549 -1.250000 -3.148550 0.839072 -0.495389 -0.224829
11.239054 1.250000 -4.655367 0.802548 0.495389 -0.332426
10.393644 2.165063 -4.305188 0.469332 0.861357 -0.194403
8.083946 2.165063 -3.348480 -0.454389 0.870693 0.188214
8.451851 2.165063 -2.264666 -0.475069 0.870693 0.127294
7.238538 1.250000 -2.998300 -0.797567 0.504725 0.330363
6.929097 0.000000 -2.870125 -0.923879 0.000000 0.382684
7.238538 -1.250000 -2.998300 -0.797567 -0.504725 0.330363
8.451851 -2.165063 -2.264666 -0.475069 -0.870693 0.127294
9.238795 -2.500000 -3.826834 0.009962 -0.999942 -0.004126
10.393644 -2.165063 -4.305188 0.469332 -0.861357 -0.194403
11.239054 -1.250000 -4.655367 0.802548 -0.495389 -0.332426
11.548494 0.000000 -4.783542 0.923880 0.000000 -0.382683
10.535254 1.250000 -6.082533 0.752291 0.495389 -0.434336
9.742785 2.165063 -5.625001 0.439942 0.861356 -0.254000
8.660254 2.500000 -5.000001 0.009338 0.999942 -0.005391
9.238795 2.500000 -3.826834 0.009962 0.999942 -0.004126
6.785254 1.250000 -3.917469 -0.747623 0.504725 0.431640
6.495190 0.000000 -3.750001 -0.866025 -0.000000 0.500000
6.785254 -1.250000 -3.917469 -0.747623 -0.504725 0.431640
8.083946 -2.165063 -3.348480 -0.454389 -0.870693 0.188214
8.660254 -2.500000 -5.000001 0.009338 -0.999942 -0.005391
9.742785 -2.165063 -5.625001 0.439942 -0.861356 -0.254000
10.535254 -1.250000 -6.082533 0.752291 -0.495389 -0.434336
9.916918 0.000000 -7.609516 0.793353 0.000000 -0.608761
10.825317 0.000000 -6.250001 0.866025 0.000000 -0.500000
8.925226 2.165063 -6.848565 0.403024 0.861356 -0.309252
7.933535 2.500000 -6.087613 0.008555 0.999942 -0.006564
7.577722 2.165063 -4.375001 -0.425935 0.870693 0.245914
6.215874 1.250000 -4.769606 -0.684887 0.504724 0.525532
5.950150 0.000000 -4.565710 -0.793353 -0.000000 0.608761
6.215874 -1.250000 -4.769606 -0.684887 -0.504725 0.525532
7.577722 -2.165063 -4.375001 -0.425935 -0.870693 0.245914
6.941843 -2.165063 -5.326662 -0.390193 -0.870693 0.299405
7.933535 -2.500000 -6.087613 0.008555 -0.999942 -0.006564
8.925226 -2.165063 -6.848565 0.403024 -0.861356 -0.309252
8.838834 0.000000 -8.838836 0.707107 0.000000 -0.707107
9.651195 1.250000 -7.405620 0.689163 0.495389 -0.528814
8.601998 1.250000 -8.601999 0.614243 0.495389 -0.614243
7.954950 2.165063 -7.954951 0.359211 0.861356 -0.359211
7.071067 2.500000 -7.071068 0.007625 0.999942 -0.007625
6.941843 2.165063 -5.326662 -0.390193 0.870693 0.299405
6.187184 2.165063 -6.187185 -0.347774 0.870693 0.347775
5.540136 1.250000 -5.540137 -0.610431 0.504724 0.610431
5.540136 -1.250000 -5.540137 -0.610431 -0.504724 0.610431
6.187184 -2.165063 -6.187185 -0.347774 -0.870693 0.347775
7.071067 -2.500000 -7.071068 0.007625 -0.999942 -0.007625
8.601998 -1.250000 -8.601999 0.614243 -0.495389 -0.614243
9.651195 -1.250000 -7.405620 0.689163 -0.495389 -0.528814
7.609519 0.000000 -9.916915 0.608762 -0.000000 -0.793353
6.848568 2.165063 -8.925223 0.309252 0.861357 -0.403024
6.087615 2.500000 -7.933532 0.006564 0.999942 -0.008555
4.769608 1.250000 -6.215872 -0.525532 0.504724 0.684887
5.303301 0.000000 -5.303301 -0.707107 -0.000000 0.707107
4.565711 0.000000 -5.950150 -0.608761 0.000000 0.793353
4.769608 -1.250000 -6.215872 -0.525532 -0.504724 0.684887
6.087615 -2.500000 -7.933532 0.006564 -0.999942 -0.008555
6.848568 -2.165063 -8.925223 0.309252 -0.861356 -0.403024
7.954950 -2.165063 -7.954951 0.359211 -0.861356 -0.359211
7.405623 -1.250000 -9.651193 0.528814 -0.495389 -0.689163
6.250000 0.000000 -10.825318 0.500000 -0.000000 -0.866025
7.405623 1.250000 -9.651193 0.528814 0.495389 -0.689163
5.625000 2.165063 -9.742786 0.254001 0.861356 -0.439942
5.000000 2.500000 -8.660254 0.005392 0.999942 -0.009338
5.326663 2.165063 -6.941841 -0.299406 0.870693 0.390193
3.917468 1.250000 -6.785254 -0.431640 0.504725 0.747623
3.750000 0.000000 -6.495191 -0.500000 -0.000000 0.866025
3.917468 -1.250000 -6.785254 -0.431640 -0.504724 0.747623
5.326663 -2.165063 -6.941841 -0.299406 -0.870693 0.390193
4.375000 -2.165063 -7.577723 -0.245914 -0.870693 0.425935
5.000000 -2.500000 -8.660254 0.005392 -0.999942 -0.009338
5.625000 -2.165063 -9.742786 0.254001 -0.861356 -0.439942
6.082531 -1.250000 -10.535254 0.434336 -0.495389 -0.752291
4.655371 1.250000 -11.239052 0.332426 0.495389 -0.802548
6.082531 1.250000 -10.535254 0.434336 0.495389 -0.752291
4.305192 2.165063 -10.393643 0.194404 0.861356 -0.469332
3.826837 2.500000 -9.238794 0.004126 0.999942 -0.009962
4.375000 2.165063 -7.577723 -0.245914 0.870693 0.425935
3.348482 2.165063 -8.083945 -0.188214 0.870693 0.454389
2.998302 1.250000 -7.238536 -0.330363 0.504724 0.797567
2.870128 0.000000 -6.929096 -0.382684 -0.000000 0.923880
2.998302 -1.250000 -7.238536 -0.330363 -0.504724 0.797567
3.826837 -2.500000 -9.238794 0.004126 -0.999942 -0.009962
4.305192 -2.165063 -10.393643 0.194404 -0.861356 -0.469332
4.655371 -1.250000 -11.239052 0.332426 -0.495389 -0.802548
3.235239 0.000000 -12.074072 0.258819 0.000000 -0.965926
4.783545 0.000000 -11.548492 0.382683 0.000000 -0.923880
3.148551 1.250000 -11.750549 0.224829 0.495389 -0.839072
2.911715 2.165063 -10.866666 0.131480 0.861356 -0.490691
2.588191 2.500000 -9.659258 0.002791 0.999942 -0.010415
2.027831 1.250000 -7.567967 -0.223433 0.504724 0.833865
1.941143 0.000000 -7.244444 -0.258819 0.000000 0.965926
2.027831 -1.250000 -7.567967 -0.223433 -0.504724 0.833865
3.348482 -2.165063 -8.083945 -0.188214 -0.870693 0.454389
2.264667 -2.165063 -8.451851 -0.127294 -0.870693 0.475069
2.588191 -2.500000 -9.659258 0.002791 -0.999942 -0.010415
2.911715 -2.165063 -10.866666 0.131480 -0.861356 -0.490691
3.148551 -1.250000 -11.750549 0.224829 -0.495389 -0.839072
1.631575 0.000000 -12.393061 0.130526 -0.000000 -0.991445
1.587857 1.250000 -12.060990 0.113384 0.495389 -0.861240
1.305260 2.500000 -9.914449 0.001407 0.999942 -0.010691
2.264667 2.165063 -8.451851 -0.127294 0.870693 0.475069
1.142103 2.165063 -8.675142 -0.064196 0.870693 0.487620
1.022663 1.250000 -7.767907 -0.112681 0.504724 0.855895
1.022663 -1.250000 -7.767907 -0.112681 -0.504724 0.855895
1.305260 -2.500000 -9.914449 0.001407 -0.999942 -0.010691
1.468418 -2.165063 -11.153755 0.066307 -0.861356 -0.503655
1.587857 -1.250000 -12.060990 0.113384 -0.495389 -0.861240
0.000001 0.000000 -12.500000 -0.000000 0.000000 -1.000000
0.000001 1.250000 -12.165064 -0.000000 0.495389 -0.868671
1.468418 2.165063 -11.153755 0.066307 0.861356 -0.503655
0.000001 2.165063 -11.250000 -0.000000 0.861356 -0.508001
0.000001 2.165063 -8.750000 -0.000000 0.870693 0.491827
0.000001 1.250000 -7.834936 -0.000000 0.504724 0.863280
0.978945 0.000000 -7.435837 -0.130526 0.000000 0.991445
0.000001 0.000000 -7.500000 0.000000 0.000000 1.000000
0.000001 -1.250000 -7.834936 -0.000000 -0.504724 0.863280
1.142103 -2.165063 -8.675142 -0.064196 -0.870693 0.487620
0.000001 -2.165063 -8.750000 -0.000000 -0.870693 0.491827
0.000001 -2.500000 -10.000000 -0.000000 -0.999942 -0.010783
0.000001 -2.165063 -11.250000 -0.000000 -0.861356 -0.508001
-1.631579 0.000000 -12.393060 -0.130526 -0.000000 -0.991445
-1.587861 1.250000 -12.060989 -0.113384 0.495389 -0.861240
-1.468421 2.165063 -11.153754 -0.066307 0.861357 -0.503655
0.000001 2.500000 -10.000000 0.000000 0.999942 -0.010783
-1.305263 2.500000 -9.914448 -0.001407 0.999942 -0.010691
-1.142105 2.165063 -8.675142 0.064196 0.870693 0.487620
-1.022666 1.250000 -7.767907 0.112681 0.504724 0.855895
-1.022666 -1.250000 -7.767907 0.112681 -0.504725 0.855895
-1.305263 -2.500000 -9.914448 -0.001407 -0.999942 -0.010691
-1.468421 -2.165063 -11.153754 -0.066307 -0.861356 -0.503655
-1.587861 -1.250000 -12.060989 -0.113384 -0.495389 -0.861240
0.000001 -1.250000 -12.165064 -0.000000 -0.495389 -0.868671
-3.235236 0.000000 -12.074074 -0.258819 -0.000000 -0.965926
-2.911713 2.165063 -10.866666 -0.131480 0.861356 -0.490691
-2.588189 2.500000 -9.659259 -0.002791 0.999942 -0.010416
-2.264666 2.165063 -8.451852 0.127294 0.870693 0.475069
-2.027830 1.250000 -7.567968 0.223434 0.504725 0.833865
-0.978948 0.000000 -7.435836 0.130526 0.000000 0.991445
-1.941142 0.000000 -7.244444 0.258819 0.000000 0.965926
-2.027830 -1.250000 -7.567968 0.223433 -0.504725 0.833865
-1.142105 -2.165063 -8.675142 0.064196 -0.870693 0.487620
-2.264666 -2.165063 -8.451852 0.127294 -0.870693 0.475069
-2.588189 -2.500000 -9.659259 -0.002791 -0.999942 -0.010416
-2.911713 -2.165063 -10.866666 -0.131480 -0.861356 -0.490691
-3.148549 -1.250000 -11.750550 -0.224829 -0.495389 -0.839072
-4.783544 0.000000 -11.548494 -0.382683 -0.000000 -0.923880
-3.148549 1.250000 -11.750550 -0.224829 0.495389 -0.839072
-4.655369 1.250000 -11.239053 -0.332426 0.495389 -0.802547
-4.305190 2.165063 -10.393644 -0.194404 0.861356 -0.469332
-3.348481 2.165063 -8.083945 0.188214 0.870693 0.454389
-2.998301 1.250000 -7.238537 0.330363 0.504724 0.797567
-2.870126 0.000000 -6.929096 0.382683 -0.000000 0.923880
-2.998301 -1.250000 -7.238537 0.330363 -0.504724 0.797567
-3.826835 -2.500000 -9.238795 -0.004126 -0.999942 -0.009962
-4.655369 -1.250000 -11.239053 -0.332426 -0.495389 -0.802547
-6.249998 0.000000 -10.825319 -0.500000 0.000000 -0.866025
-5.624998 2.165063 -9.742786 -0.254001 0.861356 -0.439942
-3.826835 2.500000 -9.238795 -0.004127 0.999942 -0.009962
-4.999999 2.500000 -8.660255 -0.005392 0.999942 -0.009338
-4.374999 2.165063 -7.577724 0.245913 0.870693 0.425935
-3.917467 1.250000 -6.785254 0.431640 0.504725 0.747623
-3.749999 0.000000 -6.495192 0.500000 -0.000000 0.866026
-3.917467 -1.250000 -6.785254 0.431640 -0.504724 0.747623
-3.348481 -2.165063 -8.083945 0.188214 -0.870693 0.454389
-4.374999 -2.165063 -7.577724 0.245913 -0.870693 0.425935
-4.999999 -2.500000 -8.660255 -0.005392 -0.999942 -0.009338
-4.305190 -2.165063 -10.393644 -0.194404 -0.861356 -0.469332
-5.624998 -2.165063 -9.742786 -0.254001 -0.861356 -0.439942
-6.082530 -1.250000 -10.535255 -0.434336 -0.495389 -0.752291
-7.609518 0.000000 -9.916917 -0.608761 0.000000 -0.793353
-6.082530 1.250000 -10.535255 -0.434336 0.495389 -0.752291
-7.405622 1.250000 -9.651194 -0.528814 0.495389 -0.689163
-6.848566 2.165063 -8.925224 -0.309251 0.861356 -0.403024
-6.087614 2.500000 -7.933533 -0.006564 0.999942 -0.008555
-5.326663 2.165063 -6.941842 0.299406 0.870693 0.390193
-4.565711 0.000000 -5.950150 0.608762 -0.000000 0.793353
-5.326663 -2.165063 -6.941842 0.299406 -0.870693 0.390193
-6.087614 -2.500000 -7.933533 -0.006564 -0.999942 -0.008555
-6.848566 -2.165063 -8.925224 -0.309251 -0.861356 -0.403024
-7.405622 -1.250000 -9.651194 -0.528813 -0.495389 -0.689163
-8.838837 0.000000 -8.838833 -0.707107 0.000000 -0.707107
-8.602001 1.250000 -8.601997 -0.614243 0.495389 -0.614243
-7.071070 2.500000 -7.071066 -0.007625 0.999942 -0.007625
-6.187186 2.165063 -6.187182 0.347774 0.870693 0.347774
-4.769607 1.250000 -6.215873 0.525532 0.504725 0.684886
-5.540138 1.250000 -5.540135 0.610431 0.504724 0.610431
-5.303302 0.000000 -5.303299 0.707107 -0.000000 0.707107
-4.769607 -1.250000 -6.215873 0.525532 -0.504725 0.684886
-6.187186 -2.165063 -6.187182 0.347774 -0.870693 0.347774
-7.071070 -2.500000 -7.071066 -0.007625 -0.999942 -0.007625
-7.954953 -2.165063 -7.954949 -0.359211 -0.861356 -0.359211
-8.602001 -1.250000 -8.601997 -0.614243 -0.495389 -0.614243
-9.916917 0.000000 -7.609518 -0.793353 -0.000000 -0.608761
-9.651194 1.250000 -7.405622 -0.689163 0.495389 -0.528813
-7.954953 2.165063 -7.954949 -0.359211 0.861356 -0.359211
-8.925224 2.165063 -6.848566 -0.403024 0.861356 -0.309251
-6.941842 2.165063 -5.326663 0.390193 0.870693 0.299405
-6.215873 1.250000 -4.769607 0.684886 0.504725 0.525532
-5.950150 0.000000 -4.565711 0.793353 -0.000000 0.608762
-5.540138 -1.250000 -5.540135 0.610431 -0.504724 0.610431
-6.941842 -2.165063 -5.326663 0.390193 -0.870693 0.299405
-7.933533 -2.500000 -6.087614 -0.008555 -0.999942 -0.006564
-9.651194 -1.250000 -7.405622 -0.689163 -0.495389 -0.528813
-10.535252 1.250000 -6.082535 -0.752291 0.495389 -0.434336
-8.660253 2.500000 -5.000002 -0.009338 0.999942 -0.005392
-7.933533 2.500000 -6.087614 -0.008555 0.999942 -0.006564
-7.577721 2.165063 -4.375002 0.425935 0.870693 0.245914
-6.785253 1.250000 -3.917470 0.747623 0.504724 0.431640
-6.495190 0.000000 -3.750002 0.866025 -0.000000 0.500000
-6.215873 -1.250000 -4.769607 0.684886 -0.504725 0.525532
-6.785253 -1.250000 -3.917470 0.747623 -0.504724 0.431640
-8.660253 -2.500000 -5.000002 -0.009338 -0.999942 -0.005392
-8.925224 -2.165063 -6.848566 -0.403024 -0.861357 -0.309251
-9.742785 -2.165063 -5.625002 -0.439942 -0.861356 -0.254001
-10.535252 -1.250000 -6.082535 -0.752291 -0.495389 -0.434336
-11.548494 0.000000 -4.783544 -0.923879 -0.000000 -0.382684
-10.825315 0.000000 -6.250003 -0.866025 -0.000000 -0.500000
-11.239053 1.250000 -4.655369 -0.802547 0.495389 -0.332426
-9.742785 2.165063 -5.625002 -0.439942 0.861356 -0.254001
-10.393644 2.165063 -4.305189 -0.469332 0.861356 -0.194404
-8.083945 2.165063 -3.348480 0.454389 0.870693 0.188214
-7.238537 1.250000 -2.998301 0.797567 0.504724 0.330363
-7.238537 -1.250000 -2.998301 0.797567 -0.504724 0.330363
-7.577721 -2.165063 -4.375002 0.425935 -0.870693 0.245914
-8.083945 -2.165063 -3.348480 0.454389 -0.870693 0.188214
-9.238795 -2.500000 -3.826835 -0.009962 -0.999942 -0.004126
-11.239053 -1.250000 -4.655369 -0.802547 -0.495389 -0.332426
-11.750550 1.250000 -3.148549 -0.839072 0.495389 -0.224828
-10.866666 2.165063 -2.911713 -0.490691 0.861356 -0.131480
-9.238795 2.500000 -3.826835 -0.009962 0.999942 -0.004126
-8.451852 2.165063 -2.264666 0.475069 0.870693 0.127294
-7.567968 1.250000 -2.027830 0.833865 0.504725 0.223433
-6.929096 0.000000 -2.870126 0.923880 0.000000 0.382683
-7.244444 0.000000 -1.941142 0.965926 0.000000 0.258819
-7.567968 -1.250000 -2.027830 0.833865 -0.504725 0.223433
-8.451852 -2.165063 -2.264666 0.475069 -0.870693 0.127294
-10.866666 -2.165063 -2.911713 -0.490691 -0.861356 -0.131480
-10.393644 -2.165063 -4.305189 -0.469332 -0.861356 -0.194404
-11.750550 -1.250000 -3.148549 -0.839072 -0.495389 -0.224829
-12.393060 0.000000 -1.631579 -0.991445 -0.000000 -0.130526
-12.074074 0.000000 -3.235236 -0.965926 -0.000000 -0.258819
-12.060989 1.250000 -1.587861 -0.861240 0.495389 -0.113384
-11.153754 2.165063 -1.468421 -0.503655 0.861356 -0.066307
-9.659259 2.500000 -2.588189 -0.010416 0.999942 -0.002791
-9.914448 2.500000 -1.305263 -0.010691 0.999942 -0.001407
-8.675142 2.165063 -1.142105 0.487620 0.870693 0.064196
-7.767907 1.250000 -1.022665 0.855895 0.504724 0.112681
-7.435836 0.000000 -0.978947 0.991445 -0.000000 0.130526
-8.675142 -2.165063 -1.142105 0.487620 -0.870693 0.064196
-9.914448 -2.500000 -1.305263 -0.010691 -0.999942 -0.001407
-9.659259 -2.500000 -2.588189 -0.010416 -0.999942 -0.002791
-11.153754 -2.165063 -1.468421 -0.503655 -0.861356 -0.066307
-12.060989 -1.250000 -1.587861 -0.861240 -0.495389 -0.113384
-12.165064 1.250000 -0.000001 -0.868671 0.495389 -0.000000
-11.250000 2.165063 -0.000001 -0.508001 0.861356 -0.000000
-10.000000 2.500000 -0.000001 -0.010783 0.999942 -0.000000
-8.750000 2.165063 -0.000001 0.491827 0.870693 -0.000000
-7.834936 1.250000 -0.000001 0.863280 0.504724 0.000000
-7.500000 0.000000 -0.000001 1.000000 -0.000000 0.000000
-7.767907 -1.250000 -1.022665 0.855895 -0.504724 0.112681
-8.750000 -2.165063 -0.000001 0.491827 -0.870693 0.000000
-10.000000 -2.500000 -0.000001 -0.010783 -0.999942 0.000000
-11.250000 -2.165063 -0.000001 -0.508001 -0.861356 -0.000000
-12.165064 -1.250000 -0.000001 -0.868671 -0.495389 -0.000000
-12.393060 0.000000 1.631579 -0.991445 0.000000 0.130526
-12.500000 0.000000 -0.000001 -1.000000 0.000000 -0.000000
-12.060989 1.250000 1.587861 -0.861240 0.495389 0.113384
-11.153754 2.165063 1.468421 -0.503655 0.861356 0.066307
-9.914448 2.500000 1.305263 -0.010691 0.999942 0.001407
-8.675142 2.165063 1.142105 0.487620 0.870693 -0.064196
-7.767907 1.250000 1.022665 0.855895 0.504724 -0.112681
-7.767907 -1.250000 1.022665 0.855895 -0.504724 -0.112681
-7.834936 -1.250000 -0.000001 0.863280 -0.504724 0.000000
-9.914448 -2.500000 1.305263 -0.010691 -0.999942 0.001407
-11.153754 -2.165063 1.468421 -0.503655 -0.861356 0.066307
-12.060989 -1.250000 1.587861 -0.861240 -0.495389 0.113384
-11.750550 1.250000 3.148549 -0.839072 0.495389 0.224828
-10.866666 2.165063 2.911713 -0.490691 0.861356 0.131480
-9.659259 2.500000 2.588189 -0.010416 0.999942 0.002791
-8.451852 2.165063 2.264666 0.475069 0.870693 -0.127294
-7.567968 1.250000 2.027830 0.833865 0.504725 -0.223433
-7.435836 0.000000 0.978947 0.991445 0.000000 -0.130526
-7.244444 0.000000 1.941142 0.965926 -0.000000 -0.258819
-7.567968 -1.250000 2.027830 0.833865 -0.504725 -0.223433
-8.675142 -2.165063 1.142105 0.487620 -0.870693 -0.064196
-8.451852 -2.165063 2.264666 0.475069 -0.870693 -0.127294
-9.659259 -2.500000 2.588189 -0.010416 -0.999942 0.002791
-10.866666 -2.165063 2.911713 -0.490691 -0.861357 0.131480
-12.074074 0.000000 3.235236 -0.965926 0.000000 0.258819
-11.548496 0.000000 4.783538 -0.923880 -0.000000 0.382683
-11.239056 1.250000 4.655364 -0.802548 0.495389 0.332426
-9.238797 2.500000 3.826831 -0.009962 0.999942 0.004126
-8.083947 2.165063 3.348477 0.454389 0.870693 -0.188214
-7.238538 1.250000 2.998297 0.797567 0.504724 -0.330363
-6.929098 0.000000 2.870123 0.923880 -0.000000 -0.382683
-8.083947 -2.165063 3.348477 0.454389 -0.870693 -0.188214
-9.238797 -2.500000 3.826831 -0.009962 -0.999942 0.004127
-11.239056 -1.250000 4.655364 -0.802548 -0.495389 0.332426
-11.750550 -1.250000 3.148549 -0.839072 -0.495389 0.224828
-10.825319 0.000000 6.249998 -0.866025 -0.000000 0.500000
-10.535255 1.250000 6.082530 -0.752291 0.495389 0.434336
-10.393647 2.165063 4.305184 -0.469332 0.861356 0.194403
-9.742786 2.165063 5.624998 -0.439942 0.861356 0.254001
-8.660255 2.500000 4.999998 -0.009338 0.999942 0.005392
-7.577724 2.165063 4.374999 0.425935 0.870693 -0.245913
-6.495192 0.000000 3.749999 0.866026 0.000000 -0.500000
-7.238538 -1.250000 2.998297 0.797567 -0.504724 -0.330363
-6.785254 -1.250000 3.917467 0.747623 -0.504724 -0.431640
-7.577724 -2.165063 4.374999 0.425935 -0.870693 -0.245913
-9.742786 -2.165063 5.624998 -0.439942 -0.861357 0.254001
-10.393647 -2.165063 4.305184 -0.469332 -0.861356 0.194403
-10.535255 -1.250000 6.082530 -0.752291 -0.495389 0.434336
-9.916917 0.000000 7.609518 -0.793353 0.000000 0.608761
-9.651194 1.250000 7.405622 -0.689163 0.495389 0.528813
-8.925224 2.165063 6.848566 -0.403024 0.861356 0.309251
-6.941842 2.165063 5.326663 0.390193 0.870693 -0.299405
-6.785254 1.250000 3.917467 0.747623 0.504724 -0.431640
-6.215873 1.250000 4.769607 0.684886 0.504725 -0.525532
-5.950150 0.000000 4.565711 0.793353 0.000000 -0.608761
-6.941842 -2.165063 5.326663 0.390193 -0.870693 -0.299405
-8.660255 -2.500000 4.999998 -0.009338 -0.999942 0.005392
-7.933533 -2.500000 6.087614 -0.008555 -0.999942 0.006564
-9.651194 -1.250000 7.405622 -0.689163 -0.495389 0.528813
-8.838837 0.000000 8.838833 -0.707107 0.000000 0.707107
-7.954953 2.165063 7.954949 -0.359211 0.861356 0.359211
-7.933533 2.500000 6.087614 -0.008555 0.999942 0.006564
-7.071070 2.500000 7.071066 -0.007625 0.999942 0.007625
-6.187186 2.165063 6.187182 0.347775 0.870693 -0.347774
-5.540138 1.250000 5.540135 0.610432 0.504724 -0.610431
-5.303302 0.000000 5.303299 0.707107 0.000000 -0.707107
-6.215873 -1.250000 4.769607 0.684886 -0.504725 -0.525532
-5.540138 -1.250000 5.540135 0.610432 -0.504724 -0.610431
-7.071070 -2.500000 7.071066 -0.007625 -0.999942 0.007625
-8.925224 -2.165063 6.848566 -0.403024 -0.861356 0.309251
-7.954953 -2.165063 7.954949 -0.359211 -0.861356 0.359211
-8.602001 -1.250000 8.601997 -0.614244 -0.495389 0.614243
-7.405627 1.250000 9.651190 -0.528814 0.495389 0.689163
-8.602001 1.250000 8.601997 -0.614244 0.495389 0.614243
-6.848571 2.165063 8.925221 -0.309252 0.861356 0.403024
-5.326666 2.165063 6.941839 0.299406 0.870693 -0.390193
-4.769610 1.250000 6.215870 0.525532 0.504724 -0.684886
-4.565714 0.000000 5.950148 0.608762 -0.000000 -0.793353
-4.769610 -1.250000 6.215870 0.525532 -0.504724 -0.684886
-6.187186 -2.165063 6.187182 0.347775 -0.870693 -0.347774
-5.326666 -2.165063 6.941839 0.299406 -0.870693 -0.390193
-6.087618 -2.500000 7.933530 -0.006564 -0.999942 0.008555
-6.848571 -2.165063 8.925221 -0.309252 -0.861356 0.403024
-7.405627 -1.250000 9.651190 -0.528814 -0.495389 0.689163
-7.609523 0.000000 9.916913 -0.608762 0.000000 0.793353
-6.082530 1.250000 10.535255 -0.434336 0.495389 0.752291
-5.624998 2.165063 9.742786 -0.254001 0.861356 0.439942
-6.087618 2.500000 7.933530 -0.006564 0.999942 0.008555
-4.999999 2.500000 8.660255 -0.005392 0.999942 0.009338
-3.917467 1.250000 6.785254 0.431640 0.504724 -0.747623
-3.749999 0.000000 6.495192 0.500000 -0.000000 -0.866025
-3.917467 -1.250000 6.785254 0.431640 -0.504724 -0.747623
-4.374999 -2.165063 7.577724 0.245914 -0.870693 -0.425935
-5.624998 -2.165063 9.742786 -0.254000 -0.861356 0.439942
-6.082530 -1.250000 10.535255 -0.434336 -0.495389 0.752291
-4.783544 0.000000 11.548494 -0.382683 -0.000000 0.923880
-6.249998 0.000000 10.825319 -0.500000 -0.000000 0.866025
-4.655369 1.250000 11.239053 -0.332426 0.495389 0.802548
-4.305190 2.165063 10.393644 -0.194404 0.861356 0.469332
-3.826835 2.500000 9.238795 -0.004127 0.999942 0.009962
-4.374999 2.165063 7.577724 0.245914 0.870693 -0.425935
-3.348481 2.165063 8.083945 0.188214 0.870693 -0.454389
-2.998301 1.250000 7.238537 0.330363 0.504724 -0.797567
-2.870126 0.000000 6.929096 0.382684 -0.000000 -0.923880
-2.998301 -1.250000 7.238537 0.330363 -0.504724 -0.797567
-3.826835 -2.500000 9.238795 -0.004126 -0.999942 0.009962
-4.999999 -2.500000 8.660255 -0.005392 -0.999942 0.009338
-4.655369 -1.250000 11.239053 -0.332426 -0.495389 0.802548
-3.235242 0.000000 12.074072 -0.258819 0.000000 0.965926
-3.148554 1.250000 11.750547 -0.224829 0.495389 0.839072
-2.911718 2.165063 10.866665 -0.131481 0.861356 0.490691
-2.588194 2.500000 9.659258 -0.002791 0.999942 0.010416
-2.027833 1.250000 7.567966 0.223434 0.504724 -0.833865
-1.941145 0.000000 7.244443 0.258819 0.000000 -0.965926
-2.027833 -1.250000 7.567966 0.223434 -0.504724 -0.833865
-3.348481 -2.165063 8.083945 0.188214 -0.870693 -0.454389
-2.264669 -2.165063 8.451851 0.127295 -0.870693 -0.475068
-2.588194 -2.500000 9.659258 -0.002791 -0.999942 0.010416
-4.305190 -2.165063 10.393644 -0.194404 -0.861356 0.469332
-3.148554 -1.250000 11.750547 -0.224829 -0.495389 0.839072
-1.631585 0.000000 12.393060 -0.130527 0.000000 0.991445
-1.468426 2.165063 11.153754 -0.066308 0.861356 0.503655
-1.305268 2.500000 9.914448 -0.001407 0.999942 0.010691
-2.264669 2.165063 8.451851 0.127295 0.870693 -0.475068
-1.022669 1.250000 7.767907 0.112681 0.504725 -0.855895
-0.978951 0.000000 7.435836 0.130526 0.000000 -0.991445
-1.022669 -1.250000 7.767907 0.112681 -0.504725 -0.855895
-1.305268 -2.500000 9.914448 -0.001407 -0.999942 0.010691
-2.911718 -2.165063 10.866665 -0.131481 -0.861356 0.490691
-1.468426 -2.165063 11.153754 -0.066308 -0.861356 0.503655
-1.587867 -1.250000 12.060989 -0.113385 -0.495389 0.861240
0.000001 0.000000 12.500000 -0.000000 -0.000000 1.000000
-1.587867 1.250000 12.060989 -0.113385 0.495389 0.861240
0.000001 1.250000 12.165064 -0.000000 0.495389 0.868671
0.000001 2.500000 10.000000 -0.000000 0.999942 0.010783
0.000001 2.165063 8.750000 -0.000000 0.870693 -0.491827
-1.142110 2.165063 8.675142 0.064196 0.870693 -0.487620
0.000001 0.000000 7.500000 0.000000 -0.000000 -1.000000
0.000001 -1.250000 7.834936 -0.000000 -0.504724 -0.863280
-1.142110 -2.165063 8.675142 0.064196 -0.870693 -0.487620
0.000001 -2.165063 8.750000 -0.000000 -0.870693 -0.491827
0.000001 -2.500000 10.000000 0.000000 -0.999942 0.010783
0.000001 -2.165063 11.250000 -0.000000 -0.861357 0.508001
0.000001 -1.250000 12.165064 -0.000000 -0.495389 0.868671
1.587857 1.250000 12.060990 0.113384 0.495389 0.861240
0.000001 2.165063 11.250000 -0.000000 0.861356 0.508001
1.468418 2.165063 11.153755 0.066307 0.861356 0.503655
1.305260 2.500000 9.914449 0.001407 0.999942 0.010691
1.142103 2.165063 8.675142 -0.064196 0.870693 -0.487620
0.000001 1.250000 7.834936 -0.000000 0.504724 -0.863280
1.022663 1.250000 7.767907 -0.112681 0.504724 -0.855895
0.978945 0.000000 7.435837 -0.130526 -0.000000 -0.991445
1.142103 -2.165063 8.675142 -0.064196 -0.870693 -0.487620
1.305260 -2.500000 9.914449 0.001407 -0.999942 0.010691
1.468418 -2.165063 11.153755 0.066307 -0.861356 0.503655
1.587857 -1.250000 12.060990 0.113384 -0.495389 0.861240
3.235233 0.000000 12.074075 0.258819 0.000000 0.965926
1.631575 0.000000 12.393061 0.130526 -0.000000 0.991445
3.148545 1.250000 11.750550 0.224829 0.495389 0.839072
2.911709 2.165063 10.866667 0.131480 0.861356 0.490691
2.588186 2.500000 9.659260 0.002791 0.999942 0.010416
2.264663 2.165063 8.451852 -0.127294 0.870693 -0.475069
1.941139 0.000000 7.244444 -0.258819 -0.000000 -0.965926
1.022663 -1.250000 7.767907 -0.112681 -0.504724 -0.855895
2.027827 -1.250000 7.567968 -0.223433 -0.504724 -0.833865
2.588186 -2.500000 9.659260 0.002791 -0.999942 0.010416
2.911709 -2.165063 10.866667 0.131480 -0.861356 0.490691
3.148545 -1.250000 11.750550 0.224828 -0.495389 0.839072
4.783545 0.000000 11.548492 0.382683 0.000000 0.923880
4.655371 1.250000 11.239052 0.332426 0.495389 0.802548
4.305192 2.165063 10.393643 0.194404 0.861356 0.469332
3.826837 2.500000 9.238794 0.004126 0.999942 0.009962
3.348482 2.165063 8.083945 -0.188214 0.870693 -0.454389
2.027827 1.250000 7.567968 -0.223433 0.504725 -0.833865
2.998302 1.250000 7.238536 -0.330363 0.504724 -0.797567
2.870128 0.000000 6.929096 -0.382683 0.000000 -0.923880
2.998302 -1.250000 7.238536 -0.330363 -0.504724 -0.797567
2.264663 -2.165063 8.451852 -0.127294 -0.870693 -0.475069
3.348482 -2.165063 8.083945 -0.188214 -0.870693 -0.454389
4.305192 -2.165063 10.393643 0.194404 -0.861356 0.469332
4.655371 -1.250000 11.239052 0.332426 -0.495389 0.802548
6.250000 0.000000 10.825318 0.500000 -0.000000 0.866025
6.082531 1.250000 10.535254 0.434336 0.495389 0.752291
5.000000 2.500000 8.660254 0.005391 0.999942 0.009338
4.375000 2.165063 7.577723 -0.245914 0.870693 -0.425935
3.917468 1.250000 6.785254 -0.431640 0.504725 -0.747623
3.750000 0.000000 6.495191 -0.500000 0.000000 -0.866025
3.917468 -1.250000 6.785254 -0.431640 -0.504725 -0.747623
4.375000 -2.165063 7.577723 -0.245914 -0.870693 -0.425935
3.826837 -2.500000 9.238794 0.004126 -0.999942 0.009962
5.000000 -2.500000 8.660254 0.005391 -0.999942 0.009338
5.625000 -2.165063 9.742786 0.254001 -0.861356 0.439942
7.405619 1.250000 9.651196 0.528813 0.495389 0.689164
5.625000 2.165063 9.742786 0.254001 0.861356 0.439942
6.848564 2.165063 8.925227 0.309251 0.861356 0.403025
6.087612 2.500000 7.933535 0.006564 0.999942 0.008555
5.326660 2.165063 6.941843 -0.299405 0.870693 -0.390193
4.769605 1.250000 6.215874 -0.525532 0.504724 -0.684887
4.565709 0.000000 5.950151 -0.608761 -0.000000 -0.793353
4.769605 -1.250000 6.215874 -0.525532 -0.504724 -0.684887
5.326660 -2.165063 6.941843 -0.299405 -0.870693 -0.390193
6.087612 -2.500000 7.933535 0.006564 -0.999942 0.008555
7.405619 -1.250000 9.651196 0.528813 -0.495389 0.689163
6.082531 -1.250000 10.535254 0.434336 -0.495389 0.752291
7.609515 0.000000 9.916919 0.608761 -0.000000 0.793354
8.601995 1.250000 8.602004 0.614243 0.495389 0.614244
7.071064 2.500000 7.071072 0.007625 0.999942 0.007625
6.187181 2.165063 6.187188 -0.347774 0.870693 -0.347775
5.540133 1.250000 5.540140 -0.610431 0.504724 -0.610432
5.303298 0.000000 5.303304 -0.707106 0.000000 -0.707107
5.540133 -1.250000 5.540140 -0.610431 -0.504724 -0.610432
6.187181 -2.165063 6.187188 -0.347774 -0.870693 -0.347774
7.071064 -2.500000 7.071072 0.007625 -0.999942 0.007625
6.848564 -2.165063 8.925227 0.309251 -0.861356 0.403025
8.601995 -1.250000 8.602004 0.614243 -0.495389 0.614244
8.838830 0.000000 8.838840 0.707107 -0.000000 0.707107
9.651195 1.250000 7.405620 0.689163 0.495389 0.528814
7.954947 2.165063 7.954956 0.359211 0.861356 0.359211
7.933535 2.500000 6.087613 0.008555 0.999942 0.006564
6.941843 2.165063 5.326662 -0.390193 0.870693 -0.299405
6.215874 1.250000 4.769606 -0.684886 0.504724 -0.525532
5.950150 0.000000 4.565710 -0.793353 0.000000 -0.608761
6.941843 -2.165063 5.326662 -0.390193 -0.870693 -0.299405
7.933535 -2.500000 6.087613 0.008555 -0.999942 0.006564
7.954947 -2.165063 7.954956 0.359211 -0.861356 0.359211
8.925226 -2.165063 6.848565 0.403024 -0.861356 0.309251
9.651195 -1.250000 7.405620 0.689163 -0.495389 0.528814
10.825317 0.000000 6.250001 0.866025 0.000000 0.500000
9.916918 0.000000 7.609516 0.793353 -0.000000 0.608762
10.535254 1.250000 6.082533 0.752291 0.495389 0.434336
8.925226 2.165063 6.848565 0.403024 0.861356 0.309252
9.742785 2.165063 5.625001 0.439942 0.861356 0.254001
8.660254 2.500000 5.000001 0.009338 0.999942 0.005391
7.577722 2.165063 4.375001 -0.425935 0.870693 -0.245914
6.785254 1.250000 3.917469 -0.747623 0.504725 -0.431640
6.495190 0.000000 3.750001 -0.866025 0.000000 -0.500000
6.215874 -1.250000 4.769606 -0.684886 -0.504725 -0.525532
7.577722 -2.165063 4.375001 -0.425935 -0.870693 -0.245914
8.660254 -2.500000 5.000001 0.009338 -0.999942 0.005391
10.535254 -1.250000 6.082533 0.752291 -0.495389 0.434336
11.548492 0.000000 4.783547 0.923880 0.000000 0.382684
11.239052 1.250000 4.655373 0.802548 0.495389 0.332426
9.238794 2.500000 3.826838 0.009962 0.999942 0.004127
8.083944 2.165063 3.348484 -0.454389 0.870693 -0.188214
7.238536 1.250000 2.998303 -0.797567 0.504725 -0.330363
6.929095 0.000000 2.870129 -0.923879 -0.000000 -0.382684
6.785254 -1.250000 3.917469 -0.747623 -0.504724 -0.431640
7.238536 -1.250000 2.998303 -0.797567 -0.504725 -0.330363
8.083944 -2.165063 3.348484 -0.454389 -0.870693 -0.188214
9.238794 -2.500000 3.826838 0.009962 -0.999942 0.004126
9.742785 -2.165063 5.625001 0.439942 -0.861356 0.254001
10.393643 -2.165063 4.305193 0.469332 -0.861356 0.194404
11.239052 -1.250000 4.655373 0.802548 -0.495389 0.332426
12.074074 0.000000 3.235235 0.965926 -0.000000 0.258819
11.750550 1.250000 3.148547 0.839072 0.495389 0.224829
10.393643 2.165063 4.305193 0.469332 0.861356 0.194404
10.866666 2.165063 2.911711 0.490691 0.861357 0.131480
9.659259 2.500000 2.588188 0.010416 0.999942 0.002791
8.451852 2.165063 2.264664 -0.475069 0.870693 -0.127294
7.567968 1.250000 2.027829 -0.833865 0.504724 -0.223433
7.244444 0.000000 1.941141 -0.965926 0.000000 -0.258819
8.451852 -2.165063 2.264664 -0.475069 -0.870693 -0.127294
9.659259 -2.500000 2.588188 0.010416 -0.999942 0.002791
10.866666 -2.165063 2.911711 0.490691 -0.861357 0.131480
11.750550 -1.250000 3.148547 0.839072 -0.495389 0.224829
12.060990 1.250000 1.587859 0.861240 0.495389 0.113384
11.153755 2.165063 1.468419 0.503655 0.861356 0.066307
9.914449 2.500000 1.305262 0.010691 0.999942 0.001407
8.675142 2.165063 1.142104 -0.487620 0.870693 -0.064196
7.435837 0.000000 0.978946 -0.991445 0.000000 -0.130526
7.567968 -1.250000 2.027829 -0.833865 -0.504724 -0.223433
7.767907 -1.250000 1.022664 -0.855895 -0.504724 -0.112681
9.914449 -2.500000 1.305262 0.010691 -0.999942 0.001407
11.153755 -2.165063 1.468419 0.503655 -0.861356 0.066307
12.060990 -1.250000 1.587859 0.861240 -0.495389 0.113384
12.393061 0.000000 1.631577 0.991445 0.000000 0.130526
7.767907 1.250000 1.022664 -0.855895 0.504724 -0.112681
8.675142 -2.165063 1.142104 -0.487620 -0.870693 -0.064196
3 0 1 2
3 1 3 4
3 3 5 4
3 6 7 5
3 8 9 7
3 9 10 11
3 10 12 11
3 13 14 12
3 15 16 14
3 17 18 16
3 19 20 18
3 21 2 20
3 22 23 0
3 24 3 23
3 25 6 3
3 26 8 6
3 8 27 28
3 27 10 28
3 29 13 10
3 30 15 13
3 15 31 17
3 17 32 19
3 19 33 21
3 33 0 21
3 22 34 24
3 34 25 24
3 35 26 25
3 26 36 37
3 37 38 27
3 27 39 29
3 39 30 29
3 40 41 30
3 41 42 31
3 31 43 32
3 32 44 33
3 44 22 33
3 45 46 34
3 34 47 35
3 35 48 49
3 48 36 49
3 36 50 38
3 50 39 38
3 51 40 39
3 52 53 40
3 53 54 42
3 54 43 42
3 55 44 43
3 56 45 44
3 57 46 58
3 46 59 47
3 59 48 47
3 60 61 48
3 61 62 50
3 62 51 50
3 63 52 51
3 64 65 52
3 66 54 65
3 67 55 54
3 68 56 55
3 56 57 58
3 69 70 57
3 71 59 70
3 72 60 59
3 73 74 60
3 75 62 74
3 76 63 62
3 63 77 64
3 77 66 64
3 78 67 66
3 79 68 67
3 68 80 81
3 80 57 81
3 82 71 69
3 71 83 72
3 83 73 72
3 84 75 73
3 75 85 76
3 85 86 76
3 87 77 86
3 88 78 77
3 78 89 79
3 79 90 91
3 90 80 91
3 92 69 80
3 93 94 82
3 94 95 83
3 83 96 84
3 96 97 84
3 97 98 85
3 98 87 85
3 99 88 87
3 100 101 88
3 102 89 101
3 103 90 89
3 104 92 90
3 105 82 92
3 93 106 107
3 106 95 107
3 108 96 95
3 109 110 96
3 111 98 110
3 112 99 98
3 113 100 99
3 114 102 100
3 102 115 103
3 103 116 104
3 116 105 104
3 117 93 105
3 118 106 119
3 120 108 106
3 121 109 108
3 122 111 109
3 111 123 112
3 123 113 112
3 124 114 113
3 125 126 114
3 127 115 126
3 128 116 115
3 129 117 116
3 130 119 117
3 131 120 118
3 132 121 120
3 121 133 122
3 133 134 122
3 135 123 134
3 136 124 123
3 124 137 125
3 137 127 125
3 127 138 128
3 138 129 128
3 139 130 129
3 140 118 130
3 141 132 131
3 142 143 132
3 144 133 143
3 133 145 135
3 135 146 136
3 146 147 136
3 148 137 147
3 149 150 137
3 151 138 150
3 152 139 138
3 153 140 139
3 140 141 131
3 154 142 141
3 155 144 142
3 156 157 144
3 158 145 157
3 159 146 145
3 160 148 146
3 148 161 149
3 161 151 149
3 151 162 152
3 152 163 153
3 153 164 165
3 165 154 141
3 166 155 154
3 155 167 156
3 156 168 158
3 168 159 158
3 169 160 159
3 170 171 160
3 172 161 171
3 173 174 161
3 175 162 174
3 176 163 162
3 177 164 163
3 178 154 164
3 179 180 166
3 181 167 180
3 182 168 167
3 168 183 169
3 183 170 169
3 184 172 170
3 185 173 172
3 186 175 173
3 175 187 176
3 187 177 176
3 177 188 178
3 188 166 178
3 189 181 179
3 181 190 182
3 190 191 182
3 192 183 191
3 193 184 183
3 194 185 184
3 195 186 185
3 196 197 186
3 198 187 197
3 199 200 187
3 201 188 200
3 202 179 188
3 203 204 189
3 205 190 204
3 206 192 190
3 207 193 192
3 208 194 193
3 194 209 195
3 209 196 195
3 196 210 198
3 198 211 199
3 199 212 201
3 201 213 202
3 213 189 202
3 214 205 203
3 215 206 205
3 206 216 207
3 216 208 207
3 217 218 208
3 219 209 218
3 220 221 209
3 221 222 210
3 222 211 210
3 223 212 211
3 224 213 212
3 225 203 213
3 226 215 214
3 227 228 215
3 229 216 228
3 216 230 217
3 230 219 217
3 231 220 219
3 232 233 220
3 233 234 222
3 234 223 222
3 235 224 223
3 224 236 225
3 236 214 225
3 226 237 227
3 237 229 227
3 229 238 239
3 238 230 239
3 240 231 230
3 241 232 231
3 242 243 232
3 244 234 243
3 234 245 235
3 245 246 235
3 247 236 246
3 248 226 236
3 249 237 250
3 251 252 237
3 253 238 252
3 238 254 240
3 254 241 240
3 255 242 241
3 242 256 244
3 256 257 244
3 258 245 257
3 259 247 245
3 247 260 248
3 260 250 248
3 249 261 251
3 261 253 251
3 262 263 253
3 263 264 254
3 264 255 254
3 265 266 255
3 267 256 266
3 268 258 256
3 269 259 258
3 259 270 271
3 270 260 271
3 272 249 260
3 273 261 274
3 275 262 261
3 276 277 262
3 278 264 277
3 279 265 264
3 280 267 265
3 281 268 267
3 268 282 269
3 269 283 284
3 284 285 270
3 270 286 272
3 272 273 274
3 273 287 275
3 287 276 275
3 288 278 276
3 289 279 278
3 290 280 279
3 291 281 280
3 292 293 281
3 293 294 282
3 294 283 282
3 295 285 283
3 296 286 285
3 297 273 286
3 298 287 299
3 300 288 287
3 301 289 288
3 302 290 289
3 303 291 290
3 304 292 291
3 292 305 306
3 305 294 306
3 294 307 295
3 295 308 296
3 296 309 297
3 297 298 299
3 298 310 300
3 300 311 301
3 301 312 302
3 302 313 303
3 303 314 304
3 314 315 304
3 316 305 315
3 317 318 305
3 319 307 318
3 320 308 307
3 321 309 308
3 309 322 298
3 323 310 322
3 324 311 310
3 311 325 312
3 325 313 312
3 326 314 313
3 327 316 314
3 328 317 316
3 317 329 319
3 329 320 319
3 330 321 320
3 321 331 332
3 332 323 322
3 333 324 323
3 334 335 324
3 336 325 335
3 337 326 325
3 338 327 326
3 327 339 328
3 339 340 328
3 341 329 340
3 342 330 329
3 330 343 344
3 344 345 331
3 345 323 331
3 346 334 333
3 347 336 334
3 348 337 336
3 337 349 338
3 349 350 338
3 351 339 350
3 352 341 339
3 341 353 342
3 353 354 342
3 355 343 354
3 343 356 345
3 356 333 345
3 357 347 346
3 347 358 348
3 358 359 348
3 360 349 359
3 361 351 349
3 362 352 351
3 363 364 352
3 365 353 364
3 353 366 355
3 366 367 355
3 368 356 367
3 369 346 356
3 357 370 371
3 371 372 358
3 372 360 358
3 360 373 361
3 373 362 361
3 374 363 362
3 375 365 363
3 376 377 365
3 378 366 377
3 379 368 366
3 380 369 368
3 381 357 369
3 382 383 370
3 383 372 370
3 384 385 372
3 386 373 385
3 373 387 374
3 387 375 374
3 388 376 375
3 389 378 376
3 390 379 378
3 379 391 380
3 380 392 381
3 392 382 381
3 393 383 394
3 395 384 383
3 396 386 384
3 397 398 386
3 399 387 398
3 400 388 387
3 401 389 388
3 402 390 389
3 390 403 404
3 403 391 404
3 391 405 392
3 405 394 392
3 406 395 393
3 407 396 395
3 408 397 396
3 409 399 397
3 399 410 400
3 410 401 400
3 411 402 401
3 412 413 402
3 414 403 413
3 415 416 403
3 416 417 405
3 417 393 405
3 418 407 406
3 407 419 408
3 419 409 408
3 420 421 409
3 421 422 410
3 422 411 410
3 423 412 411
3 424 414 412
3 414 425 415
3 425 426 415
3 427 417 426
3 428 406 417
3 429 430 418
3 431 419 430
3 419 432 420
3 420 433 434
3 433 422 434
3 422 435 423
3 435 424 423
3 436 437 424
3 438 425 437
3 439 427 425
3 440 428 427
3 441 418 428
3 429 442 431
3 442 443 431
3 444 432 443
3 445 433 432
3 446 447 433
3 448 435 447
3 449 436 435
3 436 450 438
3 438 451 439
3 451 440 439
3 452 441 440
3 453 429 441
3 454 442 455
3 456 444 442
3 457 445 444
3 458 446 445
3 459 448 446
3 448 460 449
3 460 461 449
3 462 450 461
3 450 463 451
3 451 464 452
3 464 453 452
3 465 455 453
3 466 456 454
3 467 457 456
3 468 458 457
3 469 459 458
3 470 471 459
3 472 460 471
3 473 462 460
3 474 475 462
3 476 463 475
3 463 477 464
3 464 478 465
3 478 454 465
3 479 467 466
3 480 468 467
3 468 481 469
3 469 482 470
3 482 472 470
3 483 473 472
3 484 474 473
3 485 476 474
3 486 487 476
3 488 477 487
3 489 478 477
3 478 479 466
3 479 490 480
3 490 491 480
3 492 481 491
3 493 482 481
3 494 483 482
3 495 484 483
3 496 485 484
3 497 486 485
3 498 488 486
3 499 489 488
3 489 500 501
3 500 479 501
3 502 503 490
3 503 492 490
3 492 504 493
3 493 505 494
3 494 506 495
3 506 496 495
3 507 497 496
3 508 498 497
3 509 499 498
3 510 511 499
3 511 512 500
3 512 502 500
3 513 514 503
3 514 515 503
3 515 516 504
3 516 505 504
3 517 506 505
3 518 507 506
3 519 508 507
3 508 520 509
3 509 521 510
3 521 522 510
3 523 512 522
3 524 513 512
3 525 514 526
3 527 528 514
3 529 516 528
3 530 517 516
3 531 518 517
3 532 519 518
3 533 534 519
3 534 535 520
3 535 521 520
3 536 523 521
3 523 537 524
3 537 526 524
3 538 527 525
3 539 529 527
3 529 540 530
3 540 531 530
3 541 532 531
3 542 533 532
3 543 544 533
3 545 535 544
3 546 536 535
3 547 548 536
3 549 537 548
3 550 525 537
3 551 539 538
3 552 553 539
3 554 540 553
3 555 541 540
3 556 542 541
3 557 543 542
3 558 545 543
3 545 559 546
3 559 547 546
3 560 549 547
3 561 550 549
3 562 538 550
3 551 563 552
3 552 564 554
3 554 565 555
3 565 556 555
3 566 557 556
3 557 567 558
3 567 568 558
3 569 559 568
3 559 570 560
3 570 561 560
3 571 562 561
3 572 551 562
3 2 563 573
3 1 564 563
3 4 565 564
3 5 566 565
3 7 574 566
3 9 567 574
3 567 12 569
3 12 575 569
3 14 570 575
3 16 571 570
3 571 20 572
3 572 2 573
3 0 23 1
3 1 23 3
3 3 6 5
3 6 8 7
3 8 28 9
3 9 28 10
3 10 13 12
3 13 15 14
3 15 17 16
3 17 19 18
3 19 21 20
3 21 0 2
3 22 24 23
3 24 25 3
3 25 26 6
3 26 37 8
3 8 37 27
3 27 29 10
3 29 30 13
3 30 41 15
3 15 41 31
3 17 31 32
3 19 32 33
3 33 22 0
3 22 45 34
3 34 35 25
3 35 49 26
3 26 49 36
3 37 36 38
3 27 38 39
3 39 40 30
3 40 53 41
3 41 53 42
3 31 42 43
3 32 43 44
3 44 45 22
3 45 58 46
3 34 46 47
3 35 47 48
3 48 61 36
3 36 61 50
3 50 51 39
3 51 52 40
3 52 65 53
3 53 65 54
3 54 55 43
3 55 56 44
3 56 58 45
3 57 70 46
3 46 70 59
3 59 60 48
3 60 74 61
3 61 74 62
3 62 63 51
3 63 64 52
3 64 66 65
3 66 67 54
3 67 68 55
3 68 81 56
3 56 81 57
3 69 71 70
3 71 72 59
3 72 73 60
3 73 75 74
3 75 76 62
3 76 86 63
3 63 86 77
3 77 78 66
3 78 79 67
3 79 91 68
3 68 91 80
3 80 69 57
3 82 94 71
3 71 94 83
3 83 84 73
3 84 97 75
3 75 97 85
3 85 87 86
3 87 88 77
3 88 101 78
3 78 101 89
3 79 89 90
3 90 92 80
3 92 82 69
3 93 107 94
3 94 107 95
3 83 95 96
3 96 110 97
3 97 110 98
3 98 99 87
3 99 100 88
3 100 102 101
3 102 103 89
3 103 104 90
3 104 105 92
3 105 93 82
3 93 119 106
3 106 108 95
3 108 109 96
3 109 111 110
3 111 112 98
3 112 113 99
3 113 114 100
3 114 126 102
3 102 126 115
3 103 115 116
3 116 117 105
3 117 119 93
3 118 120 106
3 120 121 108
3 121 122 109
3 122 134 111
3 111 134 123
3 123 124 113
3 124 125 114
3 125 127 126
3 127 128 115
3 128 129 116
3 129 130 117
3 130 118 119
3 131 132 120
3 132 143 121
3 121 143 133
3 133 135 134
3 135 136 123
3 136 147 124
3 124 147 137
3 137 150 127
3 127 150 138
3 138 139 129
3 139 140 130
3 140 131 118
3 141 142 132
3 142 144 143
3 144 157 133
3 133 157 145
3 135 145 146
3 146 148 147
3 148 149 137
3 149 151 150
3 151 152 138
3 152 153 139
3 153 165 140
3 140 165 141
3 154 155 142
3 155 156 144
3 156 158 157
3 158 159 145
3 159 160 146
3 160 171 148
3 148 171 161
3 161 174 151
3 151 174 162
3 152 162 163
3 153 163 164
3 165 164 154
3 166 180 155
3 155 180 167
3 156 167 168
3 168 169 159
3 169 170 160
3 170 172 171
3 172 173 161
3 173 175 174
3 175 176 162
3 176 177 163
3 177 178 164
3 178 166 154
3 179 181 180
3 181 182 167
3 182 191 168
3 168 191 183
3 183 184 170
3 184 185 172
3 185 186 173
3 186 197 175
3 175 197 187
3 187 200 177
3 177 200 188
3 188 179 166
3 189 204 181
3 181 204 190
3 190 192 191
3 192 193 183
3 193 194 184
3 194 195 185
3 195 196 186
3 196 198 197
3 198 199 187
3 199 201 200
3 201 202 188
3 202 189 179
3 203 205 204
3 205 206 190
3 206 207 192
3 207 208 193
3 208 218 194
3 194 218 209
3 209 221 196
3 196 221 210
3 198 210 211
3 199 211 212
3 201 212 213
3 213 203 189
3 214 215 205
3 215 228 206
3 206 228 216
3 216 217 208
3 217 219 218
3 219 220 209
3 220 233 221
3 221 233 222
3 222 223 211
3 223 224 212
3 224 225 213
3 225 214 203
3 226 227 215
3 227 229 228
3 229 239 216
3 216 239 230
3 230 231 219
3 231 232 220
3 232 243 233
3 233 243 234
3 234 235 223
3 235 246 224
3 224 246 236
3 236 226 214
3 226 250 237
3 237 252 229
3 229 252 238
3 238 240 230
3 240 241 231
3 241 242 232
3 242 244 243
3 244 257 234
3 234 257 245
3 245 247 246
3 247 248 236
3 248 250 226
3 249 251 237
3 251 253 252
3 253 263 238
3 238 263 254
3 254 255 241
3 255 266 242
3 242 266 256
3 256 258 257
3 258 259 245
3 259 271 247
3 247 271 260
3 260 249 250
3 249 274 261
3 261 262 253
3 262 277 263
3 263 277 264
3 264 265 255
3 265 267 266
3 267 268 256
3 268 269 258
3 269 284 259
3 259 284 270
3 270 272 260
3 272 274 249
3 273 275 261
3 275 276 262
3 276 278 277
3 278 279 264
3 279 280 265
3 280 281 267
3 281 293 268
3 268 293 282
3 269 282 283
3 284 283 285
3 270 285 286
3 272 286 273
3 273 299 287
3 287 288 276
3 288 289 278
3 289 290 279
3 290 291 280
3 291 292 281
3 292 306 293
3 293 306 294
3 294 295 283
3 295 296 285
3 296 297 286
3 297 299 273
3 298 300 287
3 300 301 288
3 301 302 289
3 302 303 290
3 303 304 291
3 304 315 292
3 292 315 305
3 305 318 294
3 294 318 307
3 295 307 308
3 296 308 309
3 297 309 298
3 298 322 310
3 300 310 311
3 301 311 312
3 302 312 313
3 303 313 314
3 314 316 315
3 316 317 305
3 317 319 318
3 319 320 307
3 320 321 308
3 321 332 309
3 309 332 322
3 323 324 310
3 324 335 311
3 311 335 325
3 325 326 313
3 326 327 314
3 327 328 316
3 328 340 317
3 317 340 329
3 329 330 320
3 330 344 321
3 321 344 331
3 332 331 323
3 333 334 324
3 334 336 335
3 336 337 325
3 337 338 326
3 338 350 327
3 327 350 339
3 339 341 340
3 341 342 329
3 342 354 330
3 330 354 343
3 344 343 345
3 345 333 323
3 346 347 334
3 347 348 336
3 348 359 337
3 337 359 349
3 349 351 350
3 351 352 339
3 352 364 341
3 341 364 353
3 353 355 354
3 355 367 343
3 343 367 356
3 356 346 333
3 357 371 347
3 347 371 358
3 358 360 359
3 360 361 349
3 361 362 351
3 362 363 352
3 363 365 364
3 365 377 353
3 353 377 366
3 366 368 367
3 368 369 356
3 369 357 346
3 357 382 370
3 371 370 372
3 372 385 360
3 360 385 373
3 373 374 362
3 374 375 363
3 375 376 365
3 376 378 377
3 378 379 366
3 379 380 368
3 380 381 369
3 381 382 357
3 382 394 383
3 383 384 372
3 384 386 385
3 386 398 373
3 373 398 387
3 387 388 375
3 388 389 376
3 389 390 378
3 390 404 379
3 379 404 391
3 380 391 392
3 392 394 382
3 393 395 383
3 395 396 384
3 396 397 386
3 397 399 398
3 399 400 387
3 400 401 388
3 401 402 389
3 402 413 390
3 390 413 403
3 403 416 391
3 391 416 405
3 405 393 394
3 406 407 395
3 407 408 396
3 408 409 397
3 409 421 399
3 399 421 410
3 410 411 401
3 411 412 402
3 412 414 413
3 414 415 403
3 415 426 416
3 416 426 417
3 417 406 393
3 418 430 407
3 407 430 419
3 419 420 409
3 420 434 421
3 421 434 422
3 422 423 411
3 423 424 412
3 424 437 414
3 414 437 425
3 425 427 426
3 427 428 417
3 428 418 406
3 429 431 430
3 431 443 419
3 419 443 432
3 420 432 433
3 433 447 422
3 422 447 435
3 435 436 424
3 436 438 437
3 438 439 425
3 439 440 427
3 440 441 428
3 441 429 418
3 429 455 442
3 442 444 443
3 444 445 432
3 445 446 433
3 446 448 447
3 448 449 435
3 449 461 436
3 436 461 450
3 438 450 451
3 451 452 440
3 452 453 441
3 453 455 429
3 454 456 442
3 456 457 444
3 457 458 445
3 458 459 446
3 459 471 448
3 448 471 460
3 460 462 461
3 462 475 450
3 450 475 463
3 451 463 464
3 464 465 453
3 465 454 455
3 466 467 456
3 467 468 457
3 468 469 458
3 469 470 459
3 470 472 471
3 472 473 460
3 473 474 462
3 474 476 475
3 476 487 463
3 463 487 477
3 464 477 478
3 478 466 454
3 479 480 467
3 480 491 468
3 468 491 481
3 469 481 482
3 482 483 472
3 483 484 473
3 484 485 474
3 485 486 476
3 486 488 487
3 488 489 477
3 489 501 478
3 478 501 479
3 479 502 490
3 490 492 491
3 492 493 481
3 493 494 482
3 494 495 483
3 495 496 484
3 496 497 485
3 497 498 486
3 498 499 488
3 499 511 489
3 489 511 500
3 500 502 479
3 502 513 503
3 503 515 492
3 492 515 504
3 493 504 505
3 494 505 506
3 506 507 496
3 507 508 497
3 508 509 498
3 509 510 499
3 510 522 511
3 511 522 512
3 512 513 502
3 513 526 514
3 514 528 515
3 515 528 516
3 516 517 505
3 517 518 506
3 518 519 507
3 519 534 508
3 508 534 520
3 509 520 521
3 521 523 522
3 523 524 512
3 524 526 513
3 525 527 514
3 527 529 528
3 529 530 516
3 530 531 517
3 531 532 518
3 532 533 519
3 533 544 534
3 534 544 535
3 535 536 521
3 536 548 523
3 523 548 537
3 537 525 526
3 538 539 527
3 539 553 529
3 529 553 540
3 540 541 531
3 541 542 532
3 542 543 533
3 543 545 544
3 545 546 535
3 546 547 536
3 547 549 548
3 549 550 537
3 550 538 525
3 551 552 539
3 552 554 553
3 554 555 540
3 555 556 541
3 556 557 542
3 557 558 543
3 558 568 545
3 545 568 559
3 559 560 547
3 560 561 549
3 561 562 550
3 562 551 538
3 551 573 563
3 552 563 564
3 554 564 565
3 565 566 556
3 566 574 557
3 557 574 567
3 567 569 568
3 569 575 559
3 559 575 570
3 570 571 561
3 571 572 562
3 572 573 551
3 2 1 563
3 1 4 564
3 4 5 565
3 5 7 566
3 7 9 574
3 9 11 567
3 567 11 12
3 12 14 575
3 14 16 570
3 16 18 571
3 571 18 20
3 572 20 2
